<?xml version="1.0" standalone="no"?>
<!DOCTYPE svg PUBLIC "-//W3C//DTD SVG 1.1//EN" "http://www.w3.org/Graphics/SVG/1.1/DTD/svg11.dtd" >
<svg xmlns="http://www.w3.org/2000/svg" xmlns:xlink="http://www.w3.org/1999/xlink" version="1.1">
<metadata>
Created by FontForge 20201107 at Thu Feb 16 18:27:38 2017
 By Unknown
Copyright (c) 2013-2015 Gall Productions Pvt. Ltd (http://www.sticknobillsonline.com) Copyright (c) 2015 mooniak (http://mooniak.com)
</metadata>
<defs>
<font id="PostNoBillsJaffna-Regular" horiz-adv-x="455" >
  <font-face 
    font-family="Post No Bills Jaffna"
    font-weight="400"
    font-stretch="normal"
    units-per-em="1024"
    panose-1="2 0 5 3 0 0 0 0 0 0"
    ascent="819"
    descent="-205"
    x-height="521"
    cap-height="700"
    bbox="-176 -529 2048 1150"
    underline-thickness="0"
    underline-position="0"
    unicode-range="U+0020-FB02"
  />
<missing-glyph horiz-adv-x="631" 
d="M50 -93v847h531v-847h-531zM266 75q0 21 20 28q5 2 9 2q21 0 28 -21q1 -5 1 -9q0 -22 -21 -28q-4 -1 -8 -1q-22 0 -28 21q-1 4 -1 8zM97 707v-753h436v753h-436zM175 493q55 70 135 71q92 0 130 -72q17 -33 18 -73q1 -92 -74 -132q-31 -17 -65 -18v-135h-49v178
q116 1 135 68q4 16 4 35q0 61 -47 90q-24 15 -54 15q-61 -2 -101 -57z" />
    <glyph glyph-name="fi" unicode="fi" horiz-adv-x="494" 
d="M61 434v48h63v70q0 78 46 118q31 26 77 26h18l-11 -48q-11 0 -14 -1q-66 -7 -66 -95v-71h159v-481h-50v434h-109v-434h-50v434h-63zM274 589q0 22 22 31q6 2 12 2q23 0 31 -22q2 -6 2 -11q0 -23 -22 -31q-6 -2 -11 -2q-23 0 -32 21q-2 6 -2 12z" />
    <glyph glyph-name="fl" unicode="fl" horiz-adv-x="336" 
d="M61 434h63v-434h50v434h64v48l-64 -1v71l5 34q16 60 67 62h52v-648h51v696h-102q-92 0 -117 -95q-6 -24 -6 -49v-70h-63v-48z" />
    <glyph glyph-name=".notdef" horiz-adv-x="631" 
d="M50 -93v847h531v-847h-531zM266 75q0 21 20 28q5 2 9 2q21 0 28 -21q1 -5 1 -9q0 -22 -21 -28q-4 -1 -8 -1q-22 0 -28 21q-1 4 -1 8zM97 707v-753h436v753h-436zM175 493q55 70 135 71q92 0 130 -72q17 -33 18 -73q1 -92 -74 -132q-31 -17 -65 -18v-135h-49v178
q116 1 135 68q4 16 4 35q0 61 -47 90q-24 15 -54 15q-61 -2 -101 -57z" />
    <glyph glyph-name=".null" horiz-adv-x="0" 
 />
    <glyph glyph-name="nonmarkingreturn" horiz-adv-x="341" 
 />
    <glyph glyph-name="A" unicode="A" horiz-adv-x="442" 
d="M30 0l136 597h17l16 -76l-116 -521h-53zM157 129l11 51h153l-114 519h53l153 -699h-53l-27 129h-176z" />
    <glyph glyph-name="AE" unicode="&#xc6;" horiz-adv-x="727" 
d="M74 0l180 700h447v-52h-267v-274h173v-52h-173v-271h267v-51h-320v183h-156l12 50h144v415h-84l-165 -648h-58z" />
    <glyph glyph-name="Aacute" unicode="&#xc1;" horiz-adv-x="442" 
d="M217 766l37 152h51l-52 -152h-36zM30 0l136 597h17l16 -76l-116 -521h-53zM157 129l11 51h153l-114 519h53l153 -699h-53l-27 129h-176z" />
    <glyph glyph-name="Abreve" unicode="&#x102;" horiz-adv-x="442" 
d="M167 832h36q0 -24 22 -31q6 -1 10 -1q24 0 31 22q1 6 1 10h36q0 -31 -27 -52q-19 -14 -41 -14q-43 0 -62 41q-6 14 -6 25zM30 0l136 597h17l16 -76l-116 -521h-53zM157 129l11 51h153l-114 519h53l153 -699h-53l-27 129h-176z" />
    <glyph glyph-name="Acircumflex" unicode="&#xc2;" horiz-adv-x="442" 
d="M142 766l75 152h36l76 -152h-42l-52 106l-51 -106h-42zM30 0l136 597h17l16 -76l-116 -521h-53zM157 129l11 51h153l-114 519h53l153 -699h-53l-27 129h-176z" />
    <glyph glyph-name="Adieresis" unicode="&#xc4;" horiz-adv-x="442" 
d="M146 799q0 22 22 31q6 2 12 2q25 0 32 -24q1 -4 1 -9q0 -25 -23 -32q-5 -1 -10 -1q-24 0 -32 22q-2 6 -2 11zM256 799q0 22 22 31q6 2 12 2q25 0 32 -24q1 -4 1 -9q0 -25 -23 -32q-5 -1 -10 -1q-24 0 -32 22q-2 6 -2 11zM30 0l136 597h17l16 -76l-116 -521h-53zM157 129
l11 51h153l-114 519h53l153 -699h-53l-27 129h-176z" />
    <glyph glyph-name="Agrave" unicode="&#xc0;" horiz-adv-x="442" 
d="M162 918h52l37 -152h-37zM30 0l136 597h17l16 -76l-116 -521h-53zM157 129l11 51h153l-114 519h53l153 -699h-53l-27 129h-176z" />
    <glyph glyph-name="Amacron" unicode="&#x100;" horiz-adv-x="442" 
d="M77 766v36h316v-36h-316zM30 0l136 597h17l16 -76l-116 -521h-53zM157 129l11 51h153l-114 519h53l153 -699h-53l-27 129h-176z" />
    <glyph glyph-name="Aogonek" unicode="&#x104;" horiz-adv-x="442" 
d="M515 -176q-94 0 -131 75q-14 30 -14 61h47q0 -58 51 -81q22 -10 47 -10v-45zM30 0l136 597h17l16 -76l-116 -521h-53zM157 129l11 51h153l-114 519h53l153 -699h-53l-27 129h-176z" />
    <glyph glyph-name="Aring" unicode="&#xc5;" horiz-adv-x="516" 
d="M68 0l136 597h16l17 -76l-116 -521h-53zM195 129l10 51h153l-113 515q-36 10 -48 47q-4 12 -4 23q0 46 40 66q17 9 35 9q45 0 67 -39q9 -17 9 -36q0 -45 -39 -66q-4 -2 -7 -3l151 -696h-52l-27 129h-175zM231 765q0 -26 25 -35q6 -2 12 -2q29 0 36 26q2 6 2 11
q0 27 -25 36q-7 2 -13 2q-25 0 -34 -24q-3 -7 -3 -14z" />
    <glyph glyph-name="Atilde" unicode="&#xc3;" horiz-adv-x="442" 
d="M94 782v47q39 22 70 22q25 0 71 -23q35 -18 60 -18q35 1 80 28v-46q-46 -28 -84 -28q-27 0 -74 23q-34 17 -57 17q-31 -1 -66 -22zM30 0l136 597h17l16 -76l-116 -521h-53zM157 129l11 51h153l-114 519h53l153 -699h-53l-27 129h-176z" />
    <glyph glyph-name="B" unicode="B" horiz-adv-x="509" 
d="M39 0h53v700h-53v-700zM138 -1h121q109 0 169 78q42 55 42 127q0 83 -56 134l-16 14q64 48 69 133v13q0 90 -62 148q-58 54 -150 54h-117v-49h113q101 0 144 -80q19 -36 19 -74q-2 -120 -135 -121h-141v-49h141q126 0 137 -103q1 -9 1 -19q0 -82 -66 -125
q-51 -32 -129 -32h-84v-49z" />
    <glyph glyph-name="C" unicode="C" horiz-adv-x="513" 
d="M40 181q0 -58 43 -113q58 -72 157 -73v51q-86 0 -129 74q-18 33 -18 61v337q0 46 38 88q43 47 109 48v51q-115 1 -172 -95q-28 -48 -28 -92v-337zM286 -5q82 0 140 62q50 55 50 125l-48 11q0 -10 -2 -18q-2 -18 -6 -32q-13 -42 -46.5 -66t-60.5 -27l-27 -4v-51zM286 654
l32 -6q74 -24 102 -100q5 -16 6 -28v-17l50 13q0 77 -64 136q-58 53 -126 53v-51z" />
    <glyph glyph-name="Cacute" unicode="&#x106;" horiz-adv-x="513" 
d="M269 766l37 152h51l-52 -152h-36zM40 181q0 -58 43 -113q58 -72 157 -73v51q-86 0 -129 74q-18 33 -18 61v337q0 46 38 88q43 47 109 48v51q-115 1 -172 -95q-28 -48 -28 -92v-337zM286 -5q82 0 140 62q50 55 50 125l-48 11q0 -10 -2 -18q-2 -18 -6 -32
q-13 -42 -46.5 -66t-60.5 -27l-27 -4v-51zM286 654l32 -6q74 -24 102 -100q5 -16 6 -28v-17l50 13q0 77 -64 136q-58 53 -126 53v-51z" />
    <glyph glyph-name="Ccaron" unicode="&#x10c;" horiz-adv-x="513" 
d="M168 918h42l52 -106l51 106h42l-75 -152h-36zM40 181q0 -58 43 -113q58 -72 157 -73v51q-86 0 -129 74q-18 33 -18 61v337q0 46 38 88q43 47 109 48v51q-115 1 -172 -95q-28 -48 -28 -92v-337zM286 -5q82 0 140 62q50 55 50 125l-48 11q0 -10 -2 -18q-2 -18 -6 -32
q-13 -42 -46.5 -66t-60.5 -27l-27 -4v-51zM286 654l32 -6q74 -24 102 -100q5 -16 6 -28v-17l50 13q0 77 -64 136q-58 53 -126 53v-51z" />
    <glyph glyph-name="Ccedilla" unicode="&#xc7;" horiz-adv-x="513" 
d="M140 -177v45q61 0 87 46q11 21 11 45h47q0 -65 -49 -105q-39 -31 -96 -31zM40 181q0 -58 43 -113q58 -72 157 -73v51q-86 0 -129 74q-18 33 -18 61v337q0 46 38 88q43 47 109 48v51q-115 1 -172 -95q-28 -48 -28 -92v-337zM286 -5q82 0 140 62q50 55 50 125l-48 11
q0 -10 -2 -18q-2 -18 -6 -32q-13 -42 -46.5 -66t-60.5 -27l-27 -4v-51zM286 654l32 -6q74 -24 102 -100q5 -16 6 -28v-17l50 13q0 77 -64 136q-58 53 -126 53v-51z" />
    <glyph glyph-name="D" unicode="D" horiz-adv-x="472" 
d="M40 0v700h53v-700h-53zM140 0v51q123 0 170 21q68 33 69 125v306q0 106 -90 133q-42 12 -149 13v51q147 0 207 -31q84 -45 85 -166v-306q0 -143 -117 -180q-55 -17 -175 -17z" />
    <glyph glyph-name="Dcaron" unicode="&#x10e;" horiz-adv-x="472" 
d="M144 918h42l52 -106l51 106h42l-75 -152h-36zM40 0v700h53v-700h-53zM140 0v51q123 0 170 21q68 33 69 125v306q0 106 -90 133q-42 12 -149 13v51q147 0 207 -31q84 -45 85 -166v-306q0 -143 -117 -180q-55 -17 -175 -17z" />
    <glyph glyph-name="Dcroat" unicode="&#x110;" horiz-adv-x="458" 
d="M26 329v50h56v321h53v-321h56v-50h-56v-329h-53v329h-56zM181 0v51q124 0 171 21q68 33 69 125v306q0 106 -89 133q-43 12 -151 13v51q147 0 208 -31q84 -45 85 -166v-306q0 -143 -118 -180q-56 -17 -175 -17z" />
    <glyph glyph-name="E" unicode="E" horiz-adv-x="444" 
d="M40 0v700h364v-51h-311v-274h217v-52h-217v-272h311v-51h-364z" />
    <glyph glyph-name="Eacute" unicode="&#xc9;" horiz-adv-x="444" 
d="M240 766l37 152h51l-52 -152h-36zM40 0v700h364v-51h-311v-274h217v-52h-217v-272h311v-51h-364z" />
    <glyph glyph-name="Ecaron" unicode="&#x11a;" horiz-adv-x="444" 
d="M130 918h42l52 -106l51 106h42l-75 -152h-36zM40 0v700h364v-51h-311v-274h217v-52h-217v-272h311v-51h-364z" />
    <glyph glyph-name="Ecircumflex" unicode="&#xca;" horiz-adv-x="444" 
d="M130 766l75 152h36l76 -152h-42l-52 106l-51 -106h-42zM40 0v700h364v-51h-311v-274h217v-52h-217v-272h311v-51h-364z" />
    <glyph glyph-name="Edieresis" unicode="&#xcb;" horiz-adv-x="444" 
d="M135 799q0 22 22 31q6 2 12 2q25 0 32 -24q1 -4 1 -9q0 -25 -23 -32q-5 -1 -10 -1q-24 0 -32 22q-2 6 -2 11zM245 799q0 22 22 31q6 2 12 2q25 0 32 -24q1 -4 1 -9q0 -25 -23 -32q-5 -1 -10 -1q-24 0 -32 22q-2 6 -2 11zM40 0v700h364v-51h-311v-274h217v-52h-217v-272
h311v-51h-364z" />
    <glyph glyph-name="Edotaccent" unicode="&#x116;" horiz-adv-x="444" 
d="M188 802q0 26 24 35q6 2 12 2q25 0 34 -25q2 -6 2 -12q0 -25 -23 -34q-7 -2 -13 -2q-25 0 -34 23q-2 7 -2 13zM40 0v700h364v-51h-311v-274h217v-52h-217v-272h311v-51h-364z" />
    <glyph glyph-name="Egrave" unicode="&#xc8;" horiz-adv-x="444" 
d="M151 918h52l37 -152h-37zM40 0v700h364v-51h-311v-274h217v-52h-217v-272h311v-51h-364z" />
    <glyph glyph-name="Emacron" unicode="&#x112;" horiz-adv-x="444" 
d="M66 766v36h316v-36h-316zM40 0v700h364v-51h-311v-274h217v-52h-217v-272h311v-51h-364z" />
    <glyph glyph-name="Eogonek" unicode="&#x118;" horiz-adv-x="444" 
d="M412 -176v45q-61 0 -87 46q-11 21 -11 45h-47q0 -65 49 -105q39 -31 96 -31zM40 0v700h364v-51h-311v-274h217v-52h-217v-272h311v-51h-364z" />
    <glyph glyph-name="Eth" unicode="&#xd0;" horiz-adv-x="458" 
d="M26 329v50h56v321h53v-321h56v-50h-56v-329h-53v329h-56zM181 0v51q124 0 171 21q68 33 69 125v306q0 106 -89 133q-43 12 -151 13v51q147 0 208 -31q84 -45 85 -166v-306q0 -143 -118 -180q-56 -17 -175 -17z" />
    <glyph glyph-name="Euro" unicode="&#x20ac;" horiz-adv-x="503" 
d="M51 279v38h39v60h-39v38h39v100q0 61 45 117q58 72 153 72v-51q-85 0 -126 -73q-19 -33 -19 -63v-102h266v-38h-266v-60h266v-38h-266v-95q0 -51 40 -94q42 -43 105 -43v-51q-113 1 -169 94q-28 46 -29 91v98h-39zM335 -4v51q39 0 78 25q42 28 56 75q7 25 8 49l47 -13
q0 -85 -69 -142q-55 -45 -120 -45zM335 653v51q79 1 139 -65q50 -56 50 -123l-49 -15q0 27 -6 44q-30 87 -112 105q-14 3 -22 3z" />
    <glyph glyph-name="F" unicode="F" horiz-adv-x="442" 
d="M40 1v699h364v-51h-311v-274h217v-52h-217v-322h-53z" />
    <glyph glyph-name="G" unicode="G" horiz-adv-x="514" 
d="M40 192v332q1 56 46 110q60 71 153 71v-51q-70 -1 -115 -58q-31 -40 -31 -88v-316q0 -84 84 -128q36 -18 62 -18v-51q-62 0 -120 42q-78 58 -79 155zM285 -5v51q40 0 86 42q49 47 50 102v113h-136v50h190v-177q0 -61 -62 -121q-63 -59 -128 -60zM285 654v51q78 1 138 -65
q52 -57 52 -124l-52 -19q0 15 -1 19q-7 84 -83 123q-30 15 -54 15z" />
    <glyph glyph-name="Gbreve" unicode="&#x11e;" horiz-adv-x="514" 
d="M193 832h36q0 -24 22 -31q6 -1 10 -1q24 0 31 22q1 6 1 10h36q0 -31 -27 -52q-19 -14 -41 -14q-43 0 -62 41q-6 14 -6 25zM40 192v332q1 56 46 110q60 71 153 71v-51q-70 -1 -115 -58q-31 -40 -31 -88v-316q0 -84 84 -128q36 -18 62 -18v-51q-62 0 -120 42
q-78 58 -79 155zM285 -5v51q40 0 86 42q49 47 50 102v113h-136v50h190v-177q0 -61 -62 -121q-63 -59 -128 -60zM285 654v51q78 1 138 -65q52 -57 52 -124l-52 -19q0 15 -1 19q-7 84 -83 123q-30 15 -54 15z" />
    <glyph glyph-name="H" unicode="H" horiz-adv-x="477" 
d="M40 0v700h53v-322h122v-51h-122v-327h-53zM262 327v51h122v322h53v-700h-53v327h-122z" />
    <glyph glyph-name="I" unicode="I" horiz-adv-x="137" 
d="M42 0v700h53v-700h-53z" />
    <glyph glyph-name="Iacute" unicode="&#xcd;" horiz-adv-x="137" 
d="M50 766l37 152h51l-52 -152h-36zM42 0v700h53v-700h-53z" />
    <glyph glyph-name="Icircumflex" unicode="&#xce;" horiz-adv-x="137" 
d="M-25 766l75 152h36l76 -152h-42l-52 106l-51 -106h-42zM42 0v700h53v-700h-53z" />
    <glyph glyph-name="Idieresis" unicode="&#xcf;" horiz-adv-x="137" 
d="M-20 799q0 22 22 31q6 2 12 2q25 0 32 -24q1 -5 1 -9q0 -25 -23 -32q-5 -1 -10 -1q-24 0 -32 22q-2 6 -2 11zM90 799q0 22 22 31q6 2 12 2q25 0 32 -24q1 -4 1 -9q0 -25 -23 -32q-5 -1 -10 -1q-24 0 -32 22q-2 6 -2 11zM42 0v700h53v-700h-53z" />
    <glyph glyph-name="Idotaccent" unicode="&#x130;" horiz-adv-x="137" 
d="M33 802q0 26 24 35q6 2 12 2q25 0 34 -25q2 -6 2 -12q0 -25 -23 -34q-7 -2 -13 -2q-25 0 -34 23q-2 7 -2 13zM42 0v700h53v-700h-53z" />
    <glyph glyph-name="Igrave" unicode="&#xcc;" horiz-adv-x="137" 
d="M-3 918h52l37 -152h-37zM42 0v700h53v-700h-53z" />
    <glyph glyph-name="Imacron" unicode="&#x12a;" horiz-adv-x="137" 
d="M-89 766v36h316v-36h-316zM42 0v700h53v-700h-53z" />
    <glyph glyph-name="Iogonek" unicode="&#x12e;" horiz-adv-x="137" 
d="M190 -175q-94 0 -131 75q-14 30 -14 61h47q0 -58 51 -81q22 -10 47 -10v-45zM42 0v700h53v-700h-53z" />
    <glyph glyph-name="J" unicode="J" horiz-adv-x="495" 
d="M19 193v49h53v-43q1 -87 75 -132q34 -20 63 -20v-52q-55 0 -112 42q-78 60 -79 156zM257 -5v52q39 0 85 33q60 46 61 113v507h53v-507q0 -111 -100 -168q-52 -30 -99 -30z" />
    <glyph glyph-name="K" unicode="K" horiz-adv-x="491" 
d="M40 0v700h53v-700h-53zM138 341l268 359h61l-268 -359l272 -341h-61z" />
    <glyph glyph-name="L" unicode="L" horiz-adv-x="436" 
d="M40 0v700h53v-649h323v-51h-376z" />
    <glyph glyph-name="Lacute" unicode="&#x139;" horiz-adv-x="436" 
d="M50 766l37 152h51l-52 -152h-36zM40 0v700h53v-649h323v-51h-376z" />
    <glyph glyph-name="Lcaron" unicode="&#x13d;" horiz-adv-x="436" 
d="M159 553l37 152h51l-37 -152h-51zM40 0v700h53v-649h323v-51h-376z" />
    <glyph glyph-name="Lslash" unicode="&#x141;" horiz-adv-x="441" 
d="M48 275l81 63v362h53v-322l69 54l32 -40l-101 -77v-264h323v-51h-376v274l-50 -39z" />
    <glyph glyph-name="M" unicode="M" horiz-adv-x="696" 
d="M42 0v535h9l44 -108v-427h-53zM42 669v31h46l255 -618l202 456h10v-110l-189 -428h-46zM601 0v700h53v-700h-53z" />
    <glyph glyph-name="N" unicode="N" horiz-adv-x="529" 
d="M42 0v582h8l45 -73v-509h-53zM42 667v33h49l396 -632v-68h-27zM434 229v471h53v-545h-8z" />
    <glyph glyph-name="Nacute" unicode="&#x143;" horiz-adv-x="529" 
d="M246 766l37 152h51l-52 -152h-36zM42 0v582h8l45 -73v-509h-53zM42 667v33h49l396 -632v-68h-27zM434 229v471h53v-545h-8z" />
    <glyph glyph-name="Ncaron" unicode="&#x147;" horiz-adv-x="529" 
d="M171 918h42l52 -106l51 106h42l-75 -152h-36zM42 0v582h8l45 -73v-509h-53zM42 667v33h49l396 -632v-68h-27zM434 229v471h53v-545h-8z" />
    <glyph glyph-name="Ntilde" unicode="&#xd1;" horiz-adv-x="529" 
d="M124 784v47q39 22 70 22q25 0 71 -23q35 -18 60 -18q35 1 80 28v-46q-46 -28 -84 -28q-27 0 -74 23q-34 17 -57 17q-31 -1 -66 -22zM42 0v582h8l45 -73v-509h-53zM42 667v33h49l396 -632v-68h-27zM434 229v471h53v-545h-8z" />
    <glyph glyph-name="O" unicode="O" horiz-adv-x="527" 
d="M40 195v329q0 53 45 108q60 72 152 73v-52q-73 0 -119 -71q-25 -39 -25 -74v-313q0 -77 72 -123q39 -25 71 -25v-52q-57 0 -114 41q-81 60 -82 159zM291 -5v52q47 0 92 40q51 45 52 108v313q0 51 -41 97q-43 47 -103 48v52q101 0 162 -87q35 -50 35 -94v-329
q0 -111 -99 -170q-52 -30 -98 -30z" />
    <glyph glyph-name="OE" unicode="&#x152;" horiz-adv-x="461" 
d="M-20 197v308q0 137 97 174q54 21 176 21v-51q-110 -1 -149 -16q-70 -29 -71 -130v-306q0 -104 77 -131q41 -14 143 -14v-52q-131 0 -183 23q-89 41 -90 174zM300 0v52h34v597h-34v51h398v-51h-311v-274h217v-52h-217v-272h311v-51h-398z" />
    <glyph glyph-name="Oacute" unicode="&#xd3;" horiz-adv-x="527" 
d="M244 766l37 152h51l-52 -152h-36zM40 195v329q0 53 45 108q60 72 152 73v-52q-73 0 -119 -71q-25 -39 -25 -74v-313q0 -77 72 -123q39 -25 71 -25v-52q-57 0 -114 41q-81 60 -82 159zM291 -5v52q47 0 92 40q51 45 52 108v313q0 51 -41 97q-43 47 -103 48v52
q101 0 162 -87q35 -50 35 -94v-329q0 -111 -99 -170q-52 -30 -98 -30z" />
    <glyph glyph-name="Ocircumflex" unicode="&#xd4;" horiz-adv-x="527" 
d="M168 766l75 152h36l76 -152h-42l-52 106l-51 -106h-42zM40 195v329q0 53 45 108q60 72 152 73v-52q-73 0 -119 -71q-25 -39 -25 -74v-313q0 -77 72 -123q39 -25 71 -25v-52q-57 0 -114 41q-81 60 -82 159zM291 -5v52q47 0 92 40q51 45 52 108v313q0 51 -41 97
q-43 47 -103 48v52q101 0 162 -87q35 -50 35 -94v-329q0 -111 -99 -170q-52 -30 -98 -30z" />
    <glyph glyph-name="Odieresis" unicode="&#xd6;" horiz-adv-x="527" 
d="M173 799q0 22 22 31q6 2 12 2q25 0 32 -24q1 -4 1 -9q0 -25 -23 -32q-5 -1 -10 -1q-24 0 -32 22q-2 6 -2 11zM283 799q0 22 22 31q6 2 12 2q25 0 32 -24q1 -4 1 -9q0 -25 -23 -32q-5 -1 -10 -1q-24 0 -32 22q-2 6 -2 11zM40 195v329q0 53 45 108q60 72 152 73v-52
q-73 0 -119 -71q-25 -39 -25 -74v-313q0 -77 72 -123q39 -25 71 -25v-52q-57 0 -114 41q-81 60 -82 159zM291 -5v52q47 0 92 40q51 45 52 108v313q0 51 -41 97q-43 47 -103 48v52q101 0 162 -87q35 -50 35 -94v-329q0 -111 -99 -170q-52 -30 -98 -30z" />
    <glyph glyph-name="Ograve" unicode="&#xd2;" horiz-adv-x="527" 
d="M189 918h52l37 -152h-37zM40 195v329q0 53 45 108q60 72 152 73v-52q-73 0 -119 -71q-25 -39 -25 -74v-313q0 -77 72 -123q39 -25 71 -25v-52q-57 0 -114 41q-81 60 -82 159zM291 -5v52q47 0 92 40q51 45 52 108v313q0 51 -41 97q-43 47 -103 48v52q101 0 162 -87
q35 -50 35 -94v-329q0 -111 -99 -170q-52 -30 -98 -30z" />
    <glyph glyph-name="Ohungarumlaut" unicode="&#x150;" horiz-adv-x="527" 
d="M294 766l37 152h51l-52 -152h-36zM197 766l37 152h51l-52 -152h-36zM40 195v329q0 53 45 108q60 72 152 73v-52q-73 0 -119 -71q-25 -39 -25 -74v-313q0 -77 72 -123q39 -25 71 -25v-52q-57 0 -114 41q-81 60 -82 159zM291 -5v52q47 0 92 40q51 45 52 108v313
q0 51 -41 97q-43 47 -103 48v52q101 0 162 -87q35 -50 35 -94v-329q0 -111 -99 -170q-52 -30 -98 -30z" />
    <glyph glyph-name="Omacron" unicode="&#x14c;" horiz-adv-x="527" 
d="M104 766v36h316v-36h-316zM40 195v329q0 53 45 108q60 72 152 73v-52q-73 0 -119 -71q-25 -39 -25 -74v-313q0 -77 72 -123q39 -25 71 -25v-52q-57 0 -114 41q-81 60 -82 159zM291 -5v52q47 0 92 40q51 45 52 108v313q0 51 -41 97q-43 47 -103 48v52q101 0 162 -87
q35 -50 35 -94v-329q0 -111 -99 -170q-52 -30 -98 -30z" />
    <glyph glyph-name="Oslash" unicode="&#xd8;" horiz-adv-x="672" 
d="M21 104l87 80v340q0 53 45 108q60 72 152 73v-52q-74 0 -119 -71q-25 -40 -25 -75v-276l338 304q-15 63 -67 97q-34 21 -73 21v52q101 0 161 -87q15 -21 24 -43l63 56l32 -35l-83 -75v-326q0 -111 -99 -170q-52 -30 -98 -30v52q47 0 93 40q50 45 51 108v278l-339 -305
q13 -67 81 -104q33 -17 59 -17v-52q-56 0 -114 42q-51 37 -71 92l-64 -59z" />
    <glyph glyph-name="Otilde" unicode="&#xd5;" horiz-adv-x="527" 
d="M121 794v47q39 22 70 22q25 0 71 -23q35 -18 60 -18q35 1 80 28v-46q-46 -28 -84 -28q-27 0 -74 23q-34 17 -57 17q-31 -1 -66 -22zM40 195v329q0 53 45 108q60 72 152 73v-52q-73 0 -119 -71q-25 -39 -25 -74v-313q0 -77 72 -123q39 -25 71 -25v-52q-57 0 -114 41
q-81 60 -82 159zM291 -5v52q47 0 92 40q51 45 52 108v313q0 51 -41 97q-43 47 -103 48v52q101 0 162 -87q35 -50 35 -94v-329q0 -111 -99 -170q-52 -30 -98 -30z" />
    <glyph glyph-name="P" unicode="P" horiz-adv-x="483" 
d="M42 0h53v700h-53v-700zM141 309h154q134 4 161 122q8 34 8 75q0 171 -139 191q-15 2 -30 3h-154v-49h134q108 0 129 -87q6 -25 6 -56q0 -122 -85 -143q-22 -5 -49 -5h-135v-51z" />
    <glyph glyph-name="Q" unicode="Q" horiz-adv-x="528" 
d="M40 195v329q0 52 44 106q61 75 156 75v-51q-79 -1 -123 -71q-24 -38 -24 -75v-313q0 -93 93 -134q33 -14 54 -14v-52q-62 0 -121 43q-78 59 -79 157zM287 -5v52q28 0 70 24q76 44 77 124v313q0 55 -44 101q-43 44 -103 45v51q105 1 166 -87q35 -50 35 -94v-329
q-1 -125 -141 -187l57 -85l-42 -30z" />
    <glyph glyph-name="R" unicode="R" horiz-adv-x="508" 
d="M42 0v700h53v-700h-53zM141 314v50h141q94 0 114 79q7 27 7 63q0 117 -83 141q-26 7 -60 7h-119v46h139q175 -10 176 -194q-1 -126 -69 -167q69 -32 76 -122l17 -217h-52l-15 178q-8 89 -42 116q-28 21 -79 20h-151z" />
    <glyph glyph-name="Racute" unicode="&#x154;" horiz-adv-x="508" 
d="M199 766l37 152h51l-52 -152h-36zM42 0v700h53v-700h-53zM141 314v50h141q94 0 114 79q7 27 7 63q0 117 -83 141q-26 7 -60 7h-119v46h139q175 -10 176 -194q-1 -126 -69 -167q69 -32 76 -122l17 -217h-52l-15 178q-8 89 -42 116q-28 21 -79 20h-151z" />
    <glyph glyph-name="Rcaron" unicode="&#x158;" horiz-adv-x="508" 
d="M122 918h42l52 -106l51 106h42l-75 -152h-36zM42 0v700h53v-700h-53zM141 314v50h141q94 0 114 79q7 27 7 63q0 117 -83 141q-26 7 -60 7h-119v46h139q175 -10 176 -194q-1 -126 -69 -167q69 -32 76 -122l17 -217h-52l-15 178q-8 89 -42 116q-28 21 -79 20h-151z" />
    <glyph glyph-name="S" unicode="S" horiz-adv-x="498" 
d="M29 158l48 17q18 -92 107 -121l32 -7v-50q-90 0 -150 76q-36 46 -37 85zM37 513q0 107 94 161q45 26 85 26v-50q-36 -1 -76 -33q-50 -43 -51 -108q0 -75 108 -107q11 -4 113 -25q20 -4 32 -8q92 -28 117 -95q11 -31 11 -70q0 -85 -67 -148q-62 -59 -141 -59v50
q44 0 93 40q61 51 62 121q0 85 -115 117q-9 2 -106 21q-24 5 -36 9q-81 32 -106 79q-17 33 -17 79zM262 650v50q90 0 149 -82q26 -36 31 -65l-50 -16q-8 30 -24 53t-34 34t-34.5 17.5t-27.5 7.5z" />
    <glyph glyph-name="Sacute" unicode="&#x15a;" horiz-adv-x="498" 
d="M212 766l37 152h51l-52 -152h-36zM29 158l48 17q18 -92 107 -121l32 -7v-50q-90 0 -150 76q-36 46 -37 85zM37 513q0 107 94 161q45 26 85 26v-50q-36 -1 -76 -33q-50 -43 -51 -108q0 -75 108 -107q11 -4 113 -25q20 -4 32 -8q92 -28 117 -95q11 -31 11 -70
q0 -85 -67 -148q-62 -59 -141 -59v50q44 0 93 40q61 51 62 121q0 85 -115 117q-9 2 -106 21q-24 5 -36 9q-81 32 -106 79q-17 33 -17 79zM262 650v50q90 0 149 -82q26 -36 31 -65l-50 -16q-8 30 -24 53t-34 34t-34.5 17.5t-27.5 7.5z" />
    <glyph glyph-name="Scaron" unicode="&#x160;" horiz-adv-x="498" 
d="M128 918h42l52 -106l51 106h42l-75 -152h-36zM22 158l48 17q18 -92 107 -121l32 -7v-50q-90 0 -150 76q-36 46 -37 85zM30 513q0 107 94 161q45 26 85 26v-50q-36 -1 -76 -33q-50 -43 -51 -108q0 -75 108 -107q11 -4 113 -25q20 -4 32 -8q92 -28 117 -95q11 -31 11 -70
q0 -85 -67 -148q-62 -59 -141 -59v50q44 0 93 40q61 51 62 121q0 85 -115 117q-9 2 -106 21q-24 5 -36 9q-81 32 -106 79q-17 33 -17 79zM255 650v50q90 0 149 -82q26 -36 31 -65l-50 -16q-8 30 -24 53t-34 34t-34.5 17.5t-26.5 7.5z" />
    <glyph glyph-name="T" unicode="T" horiz-adv-x="472" 
d="M19 649v51h433v-51h-190v-649h-53v649h-190z" />
    <glyph glyph-name="Tcaron" unicode="&#x164;" horiz-adv-x="472" 
d="M138 918h42l52 -106l51 106h42l-75 -152h-36zM19 649v51h433v-51h-190v-649h-53v649h-190z" />
    <glyph glyph-name="Thorn" unicode="&#xde;" horiz-adv-x="474" 
d="M70 0v700h53v-700h-53zM174 208v51h42q138 0 169 78q10 27 10 61q0 122 -130 138q-23 3 -51 3h-40v51q176 5 232 -56q40 -44 42 -135q2 -147 -124 -181q-59 -15 -150 -10z" />
    <glyph glyph-name="U" unicode="U" horiz-adv-x="525" 
d="M39 193v507h53v-507q0 -80 82 -125q38 -21 65 -21v-52q-57 0 -116 40q-83 59 -84 158zM286 -5v52q42 0 87 33q59 44 60 113v507h53v-507q0 -112 -101 -169q-52 -29 -99 -29z" />
    <glyph glyph-name="Uacute" unicode="&#xda;" horiz-adv-x="525" 
d="M237 766l37 152h51l-52 -152h-36zM39 193v507h53v-507q0 -80 82 -125q38 -21 65 -21v-52q-57 0 -116 40q-83 59 -84 158zM286 -5v52q42 0 87 33q59 44 60 113v507h53v-507q0 -112 -101 -169q-52 -29 -99 -29z" />
    <glyph glyph-name="Ucircumflex" unicode="&#xdb;" horiz-adv-x="525" 
d="M162 766l75 152h36l76 -152h-42l-52 106l-51 -106h-42zM39 193v507h53v-507q0 -80 82 -125q38 -21 65 -21v-52q-57 0 -116 40q-83 59 -84 158zM286 -5v52q42 0 87 33q59 44 60 113v507h53v-507q0 -112 -101 -169q-52 -29 -99 -29z" />
    <glyph glyph-name="Udieresis" unicode="&#xdc;" horiz-adv-x="525" 
d="M167 799q0 22 22 31q6 2 12 2q25 0 32 -24q1 -4 1 -9q0 -25 -23 -32q-5 -1 -10 -1q-24 0 -32 22q-2 6 -2 11zM277 799q0 22 22 31q6 2 12 2q25 0 32 -24q1 -4 1 -9q0 -25 -23 -32q-5 -1 -10 -1q-24 0 -32 22q-2 6 -2 11zM39 193v507h53v-507q0 -80 82 -125q38 -21 65 -21
v-52q-57 0 -116 40q-83 59 -84 158zM286 -5v52q42 0 87 33q59 44 60 113v507h53v-507q0 -112 -101 -169q-52 -29 -99 -29z" />
    <glyph glyph-name="Ugrave" unicode="&#xd9;" horiz-adv-x="525" 
d="M183 918h52l37 -152h-37zM39 193v507h53v-507q0 -80 82 -125q38 -21 65 -21v-52q-57 0 -116 40q-83 59 -84 158zM286 -5v52q42 0 87 33q59 44 60 113v507h53v-507q0 -112 -101 -169q-52 -29 -99 -29z" />
    <glyph glyph-name="Uhungarumlaut" unicode="&#x170;" horiz-adv-x="525" 
d="M313 766l37 152h51l-52 -152h-36zM216 766l37 152h51l-52 -152h-36zM39 193v507h53v-507q0 -80 82 -125q38 -21 65 -21v-52q-57 0 -116 40q-83 59 -84 158zM286 -5v52q42 0 87 33q59 44 60 113v507h53v-507q0 -112 -101 -169q-52 -29 -99 -29z" />
    <glyph glyph-name="Umacron" unicode="&#x16a;" horiz-adv-x="525" 
d="M98 766v36h316v-36h-316zM39 193v507h53v-507q0 -80 82 -125q38 -21 65 -21v-52q-57 0 -116 40q-83 59 -84 158zM286 -5v52q42 0 87 33q59 44 60 113v507h53v-507q0 -112 -101 -169q-52 -29 -99 -29z" />
    <glyph glyph-name="Uogonek" unicode="&#x172;" horiz-adv-x="525" 
d="M377 -176q-94 0 -131 75q-14 30 -14 61h47q0 -58 51 -81q22 -10 47 -10v-45zM39 193v507h53v-507q0 -80 82 -125q38 -21 65 -21v-52q-57 0 -116 40q-83 59 -84 158zM286 -5v52q42 0 87 33q59 44 60 113v507h53v-507q0 -112 -101 -169q-52 -29 -99 -29z" />
    <glyph glyph-name="Uring" unicode="&#x16e;" horiz-adv-x="525" 
d="M185 862q0 42 38 63q16 8 33 8q42 0 63 -38q8 -16 8 -33q0 -42 -38 -63q-16 -8 -33 -8q-42 0 -63 38q-8 16 -8 33zM224 862q0 -24 22 -31q6 -1 10 -1q24 0 31 22q1 6 1 10q0 24 -22 31q-6 1 -10 1q-24 0 -31 -22q-1 -6 -1 -10zM39 193v507h53v-507q0 -80 82 -125
q38 -21 65 -21v-52q-57 0 -116 40q-83 59 -84 158zM286 -5v52q42 0 87 33q59 44 60 113v507h53v-507q0 -112 -101 -169q-52 -29 -99 -29z" />
    <glyph glyph-name="V" unicode="V" horiz-adv-x="475" 
d="M10 700h52l190 -650l-18 -50h-21zM246 210l167 490h53q-2 -8 -82 -243q-104 -308 -107 -319h-10z" />
    <glyph glyph-name="W" unicode="W" horiz-adv-x="792" 
d="M10 700l203 -700h19l17 59l-186 641h-53zM239 225l21 -74h10q2 8 64 235q42 156 58 216l161 -602h19l18 54l-171 646h-53zM589 224l22 -73h10l161 549h-53z" />
    <glyph glyph-name="X" unicode="X" horiz-adv-x="468" 
d="M28 0l180 362l-168 338h52l142 -282l142 282h52l-168 -338l180 -362h-53l-153 304l-153 -304h-53z" />
    <glyph glyph-name="Y" unicode="Y" horiz-adv-x="482" 
d="M28 700h54l177 -447v-253h-54v252zM257 384l143 316h55l-168 -386h-5z" />
    <glyph glyph-name="Yacute" unicode="&#xdd;" horiz-adv-x="482" 
d="M207 766l37 152h51l-52 -152h-36zM28 700h54l177 -447v-253h-54v252zM257 384l143 316h55l-168 -386h-5z" />
    <glyph glyph-name="Ydieresis" unicode="&#x178;" horiz-adv-x="482" 
d="M137 799q0 22 22 31q6 2 12 2q25 0 32 -24q1 -4 1 -9q0 -25 -23 -32q-5 -1 -10 -1q-24 0 -32 22q-2 6 -2 11zM247 799q0 22 22 31q6 2 12 2q25 0 32 -24q1 -4 1 -9q0 -25 -23 -32q-5 -1 -10 -1q-24 0 -32 22q-2 6 -2 11zM28 700h54l177 -447v-253h-54v252zM257 384
l143 316h55l-168 -386h-5z" />
    <glyph glyph-name="Z" unicode="Z" horiz-adv-x="444" 
d="M39 0v49l308 600h-308v51h366v-48l-309 -600h310l-1 -52h-366z" />
    <glyph glyph-name="Zacute" unicode="&#x179;" horiz-adv-x="444" 
d="M195 766l37 152h51l-52 -152h-36zM39 0v49l308 600h-308v51h366v-48l-309 -600h310l-1 -52h-366z" />
    <glyph glyph-name="Zcaron" unicode="&#x17d;" horiz-adv-x="444" 
d="M119 918h42l52 -106l51 106h42l-75 -152h-36zM39 0v49l308 600h-308v51h366v-48l-309 -600h310l-1 -52h-366z" />
    <glyph glyph-name="Zdotaccent" unicode="&#x17b;" horiz-adv-x="444" 
d="M177 802q0 26 24 35q6 2 12 2q25 0 34 -25q2 -6 2 -12q0 -25 -23 -34q-7 -2 -13 -2q-25 0 -34 23q-2 7 -2 13zM39 0v49l308 600h-308v51h366v-48l-309 -600h310l-1 -52h-366z" />
    <glyph glyph-name="a" unicode="a" horiz-adv-x="465" 
d="M38 122q0 -53 52 -89q44 -32 106 -32v49q-78 0 -101 51q-7 16 -7 34v36q0 26 11 37q17 17 125 41q96 22 125 37v-135q-1 -100 -107 -101v-49q67 0 108 31q4 3 7 6q33 -34 70 -37v50q-26 1 -26 34v283q0 70 -50 117q-44 41 -109 41v-48q49 0 82 -40q24 -30 24 -69v-17
q1 -24 -124 -54q-119 -29 -136 -38q-49 -28 -50 -91v-47zM45 394l47 -18q0 57 51 86q25 15 53 15v49q-67 0 -115 -48q-36 -38 -36 -84z" />
    <glyph glyph-name="aacute" unicode="&#xe1;" horiz-adv-x="465" 
d="M188 587l37 152h51l-52 -152h-36zM38 122q0 -53 52 -89q44 -32 106 -32v49q-78 0 -101 51q-7 16 -7 34v36q0 26 11 37q17 17 125 41q96 22 125 37v-135q-1 -100 -107 -101v-49q67 0 108 31q4 3 7 6q33 -34 70 -37v50q-26 1 -26 34v283q0 70 -50 117q-44 41 -109 41v-48
q49 0 82 -40q24 -30 24 -69v-17q1 -24 -124 -54q-119 -29 -136 -38q-49 -28 -50 -91v-47zM45 394l47 -18q0 57 51 86q25 15 53 15v49q-67 0 -115 -48q-36 -38 -36 -84z" />
    <glyph glyph-name="abreve" unicode="&#x103;" horiz-adv-x="465" 
d="M138 653h36q0 -24 22 -31q6 -1 10 -1q24 0 31 22q1 6 1 10h36q0 -31 -27 -52q-19 -14 -41 -14q-43 0 -62 41q-6 14 -6 25zM38 122q0 -53 52 -89q44 -32 106 -32v49q-78 0 -101 51q-7 16 -7 34v36q0 26 11 37q17 17 125 41q96 22 125 37v-135q-1 -100 -107 -101v-49
q67 0 108 31q4 3 7 6q33 -34 70 -37v50q-26 1 -26 34v283q0 70 -50 117q-44 41 -109 41v-48q49 0 82 -40q24 -30 24 -69v-17q1 -24 -124 -54q-119 -29 -136 -38q-49 -28 -50 -91v-47zM45 394l47 -18q0 57 51 86q25 15 53 15v49q-67 0 -115 -48q-36 -38 -36 -84z" />
    <glyph glyph-name="acircumflex" unicode="&#xe2;" horiz-adv-x="465" 
d="M112 587l75 152h36l76 -152h-42l-52 106l-51 -106h-42zM38 122q0 -53 52 -89q44 -32 106 -32v49q-78 0 -101 51q-7 16 -7 34v36q0 26 11 37q17 17 125 41q96 22 125 37v-135q-1 -100 -107 -101v-49q67 0 108 31q4 3 7 6q33 -34 70 -37v50q-26 1 -26 34v283q0 70 -50 117
q-44 41 -109 41v-48q49 0 82 -40q24 -30 24 -69v-17q1 -24 -124 -54q-119 -29 -136 -38q-49 -28 -50 -91v-47zM45 394l47 -18q0 57 51 86q25 15 53 15v49q-67 0 -115 -48q-36 -38 -36 -84z" />
    <glyph glyph-name="acute" unicode="&#xb4;" horiz-adv-x="319" 
d="M115 605l37 152h51l-52 -152h-36z" />
    <glyph glyph-name="adieresis" unicode="&#xe4;" horiz-adv-x="465" 
d="M117 620q0 22 22 31q6 2 12 2q25 0 32 -24q1 -4 1 -9q0 -25 -23 -32q-5 -1 -10 -1q-24 0 -32 22q-2 6 -2 11zM227 620q0 22 22 31q6 2 12 2q25 0 32 -24q1 -4 1 -9q0 -25 -23 -32q-5 -1 -10 -1q-24 0 -32 22q-2 6 -2 11zM38 122q0 -53 52 -89q44 -32 106 -32v49
q-78 0 -101 51q-7 16 -7 34v36q0 26 11 37q17 17 125 41q96 22 125 37v-135q-1 -100 -107 -101v-49q67 0 108 31q4 3 7 6q33 -34 70 -37v50q-26 1 -26 34v283q0 70 -50 117q-44 41 -109 41v-48q49 0 82 -40q24 -30 24 -69v-17q1 -24 -124 -54q-119 -29 -136 -38
q-49 -28 -50 -91v-47zM45 394l47 -18q0 57 51 86q25 15 53 15v49q-67 0 -115 -48q-36 -38 -36 -84z" />
    <glyph glyph-name="ae" unicode="&#xe6;" horiz-adv-x="465" 
d="M26 120q0 -53 53 -89q43 -30 103 -30v48q-81 0 -101 58q-6 17 -6 36v19q-1 53 99 84q21 6 63 16q81 20 96 35v-148q0 -90 -83 -99q-11 -1 -23 -1v-48q96 -1 138 68q38 -63 140 -69h15q151 1 186 120l-45 16q-16 -60 -83 -82q-27 -9 -57 -9q-66 0 -110 41q-26 27 -27 57
v99h321v136q0 61 -63 105q-48 33 -100 33v-46q54 0 91 -43q23 -28 23 -59v-78h-272v70q0 48 43 83q31 25 70 25v48q-86 0 -135 -70q-2 -1 -2 -2q-46 76 -155 76q-88 0 -138 -50q-33 -35 -33 -83l45 -15q0 73 75 95q24 7 50 7q70 0 109 -44q20 -23 20 -49v-20q0 -27 -68 -48
q-14 -4 -45 -12q-111 -29 -151 -59q-42 -34 -43 -82v-40z" />
    <glyph glyph-name="agrave" unicode="&#xe0;" horiz-adv-x="465" 
d="M134 739h52l37 -152h-37zM38 122q0 -53 52 -89q44 -32 106 -32v49q-78 0 -101 51q-7 16 -7 34v36q0 26 11 37q17 17 125 41q96 22 125 37v-135q-1 -100 -107 -101v-49q67 0 108 31q4 3 7 6q33 -34 70 -37v50q-26 1 -26 34v283q0 70 -50 117q-44 41 -109 41v-48
q49 0 82 -40q24 -30 24 -69v-17q1 -24 -124 -54q-119 -29 -136 -38q-49 -28 -50 -91v-47zM45 394l47 -18q0 57 51 86q25 15 53 15v49q-67 0 -115 -48q-36 -38 -36 -84z" />
    <glyph glyph-name="amacron" unicode="&#x101;" horiz-adv-x="465" 
d="M65 587v36h316v-36h-316zM38 122q0 -53 52 -89q44 -32 106 -32v49q-78 0 -101 51q-7 16 -7 34v36q0 26 11 37q17 17 125 41q96 22 125 37v-135q-1 -100 -107 -101v-49q67 0 108 31q4 3 7 6q33 -34 70 -37v50q-26 1 -26 34v283q0 70 -50 117q-44 41 -109 41v-48
q49 0 82 -40q24 -30 24 -69v-17q1 -24 -124 -54q-119 -29 -136 -38q-49 -28 -50 -91v-47zM45 394l47 -18q0 57 51 86q25 15 53 15v49q-67 0 -115 -48q-36 -38 -36 -84z" />
    <glyph glyph-name="ampersand" unicode="&#x26;" horiz-adv-x="639" 
d="M383 104q-48 -52 -121 -52q-80 0 -131 56q-39 44 -39 105q1 75 65 126l-37 39q-80 -68 -81 -165q0 -106 82 -168q61 -46 137 -46q92 1 161 65zM427 546q-8 53 -52 86q-25 18 -52 22v52q81 -11 127 -81q20 -31 27 -66zM268 654q-55 -6 -86 -53q-20 -30 -20 -69
q0 -12 3.5 -24t7 -20t11.5 -18.5t11.5 -14t12.5 -13.5l10 -9l240 -253q44 45 61 121q6 24 6 44h53q-1 -98 -63 -183q-10 -13 -19 -23l104 -111l-56 -15l-369 388q-49 52 -59 88q-5 20 -5 43q0 85 68 137q39 30 89 37v-52z" />
    <glyph glyph-name="aogonek" unicode="&#x105;" horiz-adv-x="465" 
d="M483 -176q-94 0 -131 75q-14 30 -14 61h47q0 -58 51 -81q22 -10 47 -10v-45zM38 122q0 -53 52 -89q44 -32 106 -32v49q-78 0 -101 51q-7 16 -7 34v36q0 26 11 37q17 17 125 41q96 22 125 37v-135q-1 -100 -107 -101v-49q67 0 108 31q4 3 7 6q33 -34 70 -37v50
q-26 1 -26 34v283q0 70 -50 117q-44 41 -109 41v-48q49 0 82 -40q24 -30 24 -69v-17q1 -24 -124 -54q-119 -29 -136 -38q-49 -28 -50 -91v-47zM45 394l47 -18q0 57 51 86q25 15 53 15v49q-67 0 -115 -48q-36 -38 -36 -84z" />
    <glyph glyph-name="approxequal" unicode="&#x2248;" horiz-adv-x="568" 
d="M50 248v49q61 35 113 35q43 0 109 -35q65 -35 103 -38h12q58 1 131 45v-47q-76 -46 -137 -46q-47 0 -116 37q-72 34 -108 36q-52 -1 -107 -36zM50 402v49q61 35 113 35q43 0 109 -35q65 -35 103 -38h12q58 1 131 45v-47q-76 -46 -137 -46q-47 0 -116 37q-72 34 -108 36
q-52 -1 -107 -36z" />
    <glyph glyph-name="aring" unicode="&#xe5;" horiz-adv-x="465" 
d="M146 683q0 42 38 63q16 8 33 8q42 0 63 -38q8 -16 8 -33q0 -42 -38 -63q-16 -8 -33 -8q-42 0 -63 38q-8 16 -8 33zM185 683q0 -24 22 -31q6 -1 10 -1q24 0 31 22q1 6 1 10q0 24 -22 31q-6 1 -10 1q-24 0 -31 -22q-1 -6 -1 -10zM38 122q0 -53 52 -89q44 -32 106 -32v49
q-78 0 -101 51q-7 16 -7 34v36q0 26 11 37q17 17 125 41q96 22 125 37v-135q-1 -100 -107 -101v-49q67 0 108 31q4 3 7 6q33 -34 70 -37v50q-26 1 -26 34v283q0 70 -50 117q-44 41 -109 41v-48q49 0 82 -40q24 -30 24 -69v-17q1 -24 -124 -54q-119 -29 -136 -38
q-49 -28 -50 -91v-47zM45 394l47 -18q0 57 51 86q25 15 53 15v49q-67 0 -115 -48q-36 -38 -36 -84z" />
    <glyph glyph-name="asciicircum" unicode="^" horiz-adv-x="436" 
d="M51 460l149 296h36l149 -296h-52l-116 230l-114 -230h-52z" />
    <glyph glyph-name="asciitilde" unicode="~" horiz-adv-x="628" 
d="M80 314v50q61 35 113 35q43 0 109 -35q65 -35 103 -38h12q58 1 131 45v-48q-76 -46 -137 -46q-47 0 -116 37q-72 34 -108 36q-52 -1 -107 -36z" />
    <glyph glyph-name="asterisk" unicode="*" horiz-adv-x="351" 
d="M38 703l26 35l89 -56v103h44v-107l93 60l24 -35l-105 -70l105 -72l-25 -36l-92 66v-113h-44v113l-92 -62l-24 35l106 70z" />
    <glyph glyph-name="at" unicode="@" horiz-adv-x="773" 
d="M37 309q0 154 108 261q109 107 273 113h16q117 0 204 -68q97 -78 98 -202q0 -181 -124 -239q-42 -19 -83 -19q-36 0 -68 36q-9 11 -12 20q-27 -38 -76 -47q-11 -2 -21 -2q-56 0 -89 56q-23 38 -23 84q0 103 78 157q43 29 87 29q46 0 79 -31l3 -3l6 21h45l-43 -167
q-6 -23 -9 -42q-5 -20 15 -44q17 -18 38 -19q55 0 97 45q52 57 52 164q0 106 -95 172q-72 51 -159 51q-141 0 -242 -91q-103 -98 -105 -235q0 -150 104 -241q88 -77 215 -77q136 1 261 88l22 -42q-125 -94 -282 -94q-178 0 -282 118q-88 101 -88 248z" />
    <glyph glyph-name="atilde" unicode="&#xe3;" horiz-adv-x="465" 
d="M74 605v47q39 22 70 22q25 0 71 -23q35 -18 60 -18q35 1 80 28v-46q-46 -28 -84 -28q-27 0 -74 23q-34 17 -57 17q-31 -1 -66 -22zM38 122q0 -53 52 -89q44 -32 106 -32v49q-78 0 -101 51q-7 16 -7 34v36q0 26 11 37q17 17 125 41q96 22 125 37v-135q-1 -100 -107 -101
v-49q67 0 108 31q4 3 7 6q33 -34 70 -37v50q-26 1 -26 34v283q0 70 -50 117q-44 41 -109 41v-48q49 0 82 -40q24 -30 24 -69v-17q1 -24 -124 -54q-119 -29 -136 -38q-49 -28 -50 -91v-47zM45 394l47 -18q0 57 51 86q25 15 53 15v49q-67 0 -115 -48q-36 -38 -36 -84z" />
    <glyph glyph-name="b" unicode="b" horiz-adv-x="433" 
d="M40 0v701h53v-701h-53zM139 0v50h107q43 0 79 38q25 27 26 57v233q0 43 -44 74q-30 21 -61 21h-107v50h108q73 0 123 -58q33 -40 33 -83v-239q0 -47 -40 -91q-47 -51 -118 -52h-106z" />
    <glyph glyph-name="backslash" unicode="\" horiz-adv-x="308" 
d="M40 716h52l175 -739h-53z" />
    <glyph glyph-name="bar" unicode="|" horiz-adv-x="144" 
d="M50 -134v888h44v-888h-44z" />
    <glyph glyph-name="braceleft" unicode="{" horiz-adv-x="228" 
d="M15 348q43 18 52 29q9 12 10 31v142q0 135 52 168q28 17 79 17v-43q-46 0 -60 -22q-19 -29 -20 -164v-37v-86q0 -26 -30 -34q-1 -1 -2 -1q31 -11 32 -44v-97q0 -168 43 -195q14 -8 37 -8v-42q-83 0 -111 59q-20 44 -20 124v145q0 25 -31 42q-4 3 -15 8t-16 8z" />
    <glyph glyph-name="braceright" unicode="}" horiz-adv-x="228" 
d="M20 -38v42q41 0 57 31q23 45 23 172v97q2 34 32 44q-31 9 -32 35v86q0 160 -16 194q-13 27 -52 29h-12v43q75 0 103 -40q28 -43 28 -145v-142q1 -32 32 -47q6 -3 30 -13q-44 -23 -49 -27q-13 -13 -13 -31v-145q0 -140 -67 -171q-26 -12 -64 -12z" />
    <glyph glyph-name="bracketleft" unicode="[" horiz-adv-x="190" 
d="M50 -36v775h95v-47h-42l-3 -681h45v-47h-95z" />
    <glyph glyph-name="bracketright" unicode="]" horiz-adv-x="189" 
d="M45 -36v47h45l-3 681h-42v47h95v-775h-95z" />
    <glyph glyph-name="breve" unicode="&#x2d8;" horiz-adv-x="244" 
d="M54 526h36q0 -24 22 -31q6 -1 10 -1q24 0 31 22q1 6 1 10h36q0 -31 -27 -52q-19 -14 -41 -14q-43 0 -62 41q-6 13 -6 25z" />
    <glyph glyph-name="brokenbar" unicode="&#xa6;" horiz-adv-x="143" 
d="M42 -135v355h51v-355h-51zM42 400v355h51v-355h-51z" />
    <glyph glyph-name="bullet" unicode="&#x2022;" horiz-adv-x="352" 
d="M104 345q0 44 38 64q17 8 34 8q44 0 64 -38q8 -16 8 -34q0 -45 -39 -65q-16 -7 -33 -7q-44 0 -64 38q-8 16 -8 34z" />
    <glyph glyph-name="c" unicode="c" horiz-adv-x="435" 
d="M40 143q0 -54 41 -97q46 -46 120 -46v50q-59 0 -93 49q-16 23 -16 44v232q0 40 39 72q32 26 71 26v50q-92 0 -139 -72q-23 -37 -23 -73v-235zM246 472q51 0 80 -42q16 -23 19 -53v-18l50 18q0 71 -58 115q-41 31 -91 31v-51zM245 -1q71 0 122 53q40 42 39 94l-49 19
q0 -2 -0.5 -8.5t-0.5 -8.5q-7 -57 -59 -86q-25 -13 -52 -13v-50z" />
    <glyph glyph-name="cacute" unicode="&#x107;" horiz-adv-x="435" 
d="M204 584l37 152h51l-52 -152h-36zM40 143q0 -54 41 -97q46 -46 120 -46v50q-59 0 -93 49q-16 23 -16 44v232q0 40 39 72q32 26 71 26v50q-92 0 -139 -72q-23 -37 -23 -73v-235zM246 472q51 0 80 -42q16 -23 19 -53v-18l50 18q0 71 -58 115q-41 31 -91 31v-51zM245 -1
q71 0 122 53q40 42 39 94l-49 19q0 -2 -0.5 -8.5t-0.5 -8.5q-7 -57 -59 -86q-25 -13 -52 -13v-50z" />
    <glyph glyph-name="caron" unicode="&#x2c7;" horiz-adv-x="270" 
d="M41 666h42l52 -106l51 106h42l-75 -152h-36z" />
    <glyph glyph-name="ccaron" unicode="&#x10d;" horiz-adv-x="435" 
d="M129 736h42l52 -106l51 106h42l-75 -152h-36zM40 143q0 -54 41 -97q46 -46 120 -46v50q-59 0 -93 49q-16 23 -16 44v232q0 40 39 72q32 26 71 26v50q-92 0 -139 -72q-23 -37 -23 -73v-235zM246 472q51 0 80 -42q16 -23 19 -53v-18l50 18q0 71 -58 115q-41 31 -91 31v-51z
M245 -1q71 0 122 53q40 42 39 94l-49 19q0 -2 -0.5 -8.5t-0.5 -8.5q-7 -57 -59 -86q-25 -13 -52 -13v-50z" />
    <glyph glyph-name="ccedilla" unicode="&#xe7;" horiz-adv-x="435" 
d="M106 -176v45q61 0 87 46q11 21 11 45h47q0 -65 -49 -105q-39 -31 -96 -31zM40 143q0 -54 41 -97q46 -46 120 -46v50q-59 0 -93 49q-16 23 -16 44v232q0 40 39 72q32 26 71 26v50q-92 0 -139 -72q-23 -37 -23 -73v-235zM246 472q51 0 80 -42q16 -23 19 -53v-18l50 18
q0 71 -58 115q-41 31 -91 31v-51zM245 -1q71 0 122 53q40 42 39 94l-49 19q0 -2 -0.5 -8.5t-0.5 -8.5q-7 -57 -59 -86q-25 -13 -52 -13v-50z" />
    <glyph glyph-name="cedilla" unicode="&#xb8;" horiz-adv-x="403" 
d="M123 -13v45q61 0 87 46q11 21 11 45h47q0 -65 -49 -105q-39 -31 -96 -31z" />
    <glyph glyph-name="cent" unicode="&#xa2;" horiz-adv-x="425" 
d="M244 588v-116q51 0 80 -42q16 -25 19 -56q1 -5 1 -15l50 18q0 72 -59 116q-26 19 -55 26v69h-36zM165 588v-68q-77 -15 -112 -84q-15 -30 -15 -58v-235q0 -52 40 -95q35 -36 87 -45v-68h35v115q-58 0 -92 49q-17 24 -17 45v229q0 42 39 75q32 25 70 25v115h-35zM244 -65
h36v68q70 16 105 75q20 33 20 68l-50 19q0 -3 -0.5 -10.5t-0.5 -9.5q-8 -55 -59 -83q-25 -13 -51 -13v-114z" />
    <glyph glyph-name="circumflex" unicode="&#x2c6;" horiz-adv-x="270" 
d="M41 514l75 152h36l76 -152h-42l-52 106l-51 -106h-42z" />
    <glyph glyph-name="colon" unicode=":" horiz-adv-x="166" 
d="M50 36q0 23 22 31q5 2 10 2q23 0 31 -22q2 -6 2 -11q0 -22 -22 -30q-6 -2 -11 -2q-22 0 -30 21q-2 6 -2 11zM51 326q0 23 22 31q5 2 10 2q23 0 31 -22q2 -6 2 -11q0 -22 -22 -30q-6 -2 -11 -2q-22 0 -30 21q-2 6 -2 11z" />
    <glyph glyph-name="comma" unicode="," horiz-adv-x="170" 
d="M41 -23l37 152h51l-37 -152h-51z" />
    <glyph glyph-name="copyright" unicode="&#xa9;" horiz-adv-x="772" 
d="M35 339q0 -147 100 -253q93 -97 221 -105q9 -1 18 -1v41q-124 0 -214 96q-85 100 -88 222q0 147 108 242q92 76 194 79v38q-96 1 -189 -65q-125 -89 -146 -239q-4 -27 -4 -55zM245 245q0 -60 40 -99q35 -33 89 -33v37q-53 0 -78 49q-11 23 -11 46v184q0 48 34 78
q23 20 55 20v38q-78 0 -113 -70q-16 -32 -16 -64v-186zM409 -20q117 0 213 88q105 96 118 235q2 18 2 34q0 156 -110 263q-89 87 -200 97q-12 1 -23 1v-38q108 0 195 -84q95 -92 101 -224v-14q0 -119 -83 -214q-84 -96 -198 -103h-15v-41zM409 112q57 0 93 51q23 33 23 69
l-38 14v-11q-2 -48 -41 -73q-18 -12 -37 -12v-38zM409 526q35 0 60 -34q16 -24 16 -52v-8l38 14q0 59 -47 96q-31 23 -67 23v-39z" />
    <glyph glyph-name="currency" unicode="&#xa4;" horiz-adv-x="604" 
d="M40 167l81 74q-7 17 -7 35v178q0 17 8 36l-82 73l31 36l74 -66q49 62 133 63v-49q-67 0 -99 -56q-14 -25 -14 -48v-156q0 -39 37 -74q34 -32 76 -32v-49q-84 1 -133 66l-74 -66zM319 132v48q62 0 94 57q15 25 15 48v158q0 42 -36 76q-32 28 -73 28v49q83 -1 129 -64
l75 67l31 -36l-83 -74q7 -17 7 -35v-178q0 -19 -7 -35l83 -74l-32 -35l-74 65q-49 -64 -129 -65z" />
    <glyph glyph-name="d" unicode="d" horiz-adv-x="432" 
d="M30 143v239q0 57 53 102q46 39 102 39h108v-50h-107q-47 0 -82 -41q-22 -27 -22 -54v-233q0 -44 48 -76q29 -19 57 -19h106v-50h-105q-88 0 -135 74q-23 37 -23 69zM339 0v701h53v-701h-53z" />
    <glyph glyph-name="dagger" unicode="&#x2020;" horiz-adv-x="453" 
d="M26 487v50h174v227h53v-227h174v-50h-174v-543h-53v543h-174z" />
    <glyph glyph-name="daggerdbl" unicode="&#x2021;" horiz-adv-x="453" 
d="M26 168v50h174v272h-174v50h174v224h54v-224h173v-50h-173v-272h173v-50h-173v-224h-54v224h-174z" />
    <glyph glyph-name="dcaron" unicode="&#x10f;" horiz-adv-x="432" 
d="M468 555l37 152h51l-37 -152h-51zM30 143v239q0 57 53 102q46 39 102 39h108v-50h-107q-47 0 -82 -41q-22 -27 -22 -54v-233q0 -44 48 -76q29 -19 57 -19h106v-50h-105q-88 0 -135 74q-23 37 -23 69zM339 0v701h53v-701h-53z" />
    <glyph glyph-name="dcroat" unicode="&#x111;" horiz-adv-x="414" 
d="M27 141v236q0 56 52 101q46 38 101 38h107v-48h-106q-48 -1 -83 -43q-21 -26 -21 -52v-230q0 -44 47 -76q30 -19 57 -19h106v-48h-104q-87 0 -133 73q-23 36 -23 68zM266 585v45h67v71h51v-71h64v-45h-64v-585h-51v585h-67z" />
    <glyph glyph-name="degree" unicode="&#xb0;" horiz-adv-x="221" 
d="M35 583q0 44 39 65q17 10 36 10q43 0 66 -38q10 -18 10 -37q0 -43 -39 -65q-18 -10 -37 -10q-44 0 -65 39q-10 17 -10 36zM72 583q0 -27 25 -36q7 -2 13 -2q28 0 37 26q2 6 2 12q0 28 -26 37q-7 2 -13 2q-26 0 -35 -25q-3 -7 -3 -14z" />
    <glyph glyph-name="dieresis" unicode="&#xa8;" horiz-adv-x="287" 
d="M55 679q0 22 22 31q6 2 12 2q25 0 32 -24q1 -5 1 -9q0 -25 -23 -32q-5 -1 -10 -1q-24 0 -32 22q-2 6 -2 11zM165 679q0 22 22 31q6 2 12 2q25 0 32 -24q1 -5 1 -9q0 -25 -23 -32q-5 -1 -10 -1q-24 0 -32 22q-2 6 -2 11z" />
    <glyph glyph-name="divide" unicode="&#xf7;" horiz-adv-x="650" 
d="M96 267v50h450v-50h-450zM286 421q0 28 26 39q8 4 17 4q29 0 41 -27q3 -8 3 -16q0 -29 -27 -41q-8 -3 -17 -3q-28 0 -40 27q-3 9 -3 17zM286 169q0 28 26 39q9 4 17 4q29 0 41 -27q3 -8 3 -16q0 -29 -27 -41q-8 -3 -17 -3q-28 0 -40 27q-3 9 -3 17z" />
    <glyph glyph-name="dollar" unicode="$" horiz-adv-x="516" 
d="M37 158l49 17q18 -92 107 -121l32 -7v-94h-36v48q-78 15 -126 88q-25 38 -26 69zM45 513q0 105 94 160q24 14 50 21v56h36v-100q-36 -1 -76 -33q-50 -43 -51 -108q0 -77 112 -108q7 -2 15 -4v-55q-38 7 -57 13q-82 33 -107 80q-16 33 -16 78zM271 -47v94q43 0 92 40
q61 51 62 121q0 85 -118 116q-17 4 -36 8v54q56 -9 79 -17q92 -28 117 -95q11 -31 11 -70q0 -85 -66 -148q-47 -44 -106 -55v-48h-35zM271 650v100h35v-55q77 -17 124 -93q16 -28 20 -49l-50 -16q-22 85 -104 108z" />
    <glyph glyph-name="dotaccent" unicode="&#x2d9;" horiz-adv-x="202" 
d="M65 678q0 26 24 35q6 2 12 2q25 0 34 -25q2 -6 2 -12q0 -25 -23 -34q-7 -2 -13 -2q-25 0 -34 23q-2 7 -2 13z" />
    <glyph glyph-name="dotlessi" unicode="&#x131;" horiz-adv-x="174" 
d="M63 0v516h50v-516h-50z" />
    <glyph glyph-name="dottedcircle" unicode="&#x25cc;" horiz-adv-x="636" 
d="M165 484q0 25 25 34q6 2 12 2q26 0 35 -24q2 -6 2 -12q0 -26 -25 -35q-6 -2 -12 -2q-26 0 -35 24q-2 7 -2 13zM80 398q0 26 24 35q6 2 12 2q26 0 35 -25q2 -6 2 -12q0 -26 -24 -35q-7 -2 -13 -2q-25 0 -34 25q-2 6 -2 12zM165 72q0 26 25 35q6 2 12 2q26 0 35 -24
q2 -7 2 -13q0 -25 -25 -34q-6 -2 -12 -2q-26 0 -35 24q-2 6 -2 12zM80 158q0 26 24 35q6 2 12 2q26 0 35 -25q2 -6 2 -12q0 -26 -24 -35q-7 -2 -13 -2q-25 0 -34 25q-2 6 -2 12zM405 72q0 26 25 35q6 2 12 2q26 0 35 -24q2 -7 2 -13q0 -25 -25 -34q-6 -2 -12 -2
q-26 0 -35 24q-2 6 -2 12zM491 158q0 26 24 35q7 2 13 2q25 0 34 -25q2 -6 2 -12q0 -26 -24 -35q-6 -2 -12 -2q-26 0 -35 25q-2 6 -2 12zM491 398q0 26 24 35q7 2 13 2q25 0 34 -25q2 -6 2 -12q0 -26 -24 -35q-6 -2 -12 -2q-26 0 -35 25q-2 6 -2 12zM405 484q0 25 25 34
q6 2 12 2q26 0 35 -24q2 -6 2 -12q0 -26 -25 -35q-6 -2 -12 -2q-26 0 -35 24q-2 7 -2 13zM523 278q0 24 23 34q7 3 14 3q24 0 34 -23q3 -7 3 -14q0 -24 -23 -34q-7 -3 -14 -3q-24 0 -34 23q-3 7 -3 14zM285 40q0 24 23 34q7 3 14 3q24 0 34 -23q3 -7 3 -14q0 -24 -23 -34
q-7 -3 -14 -3q-24 0 -34 23q-3 7 -3 14zM47 278q0 24 23 34q7 3 14 3q24 0 34 -23q3 -7 3 -14q0 -24 -23 -34q-7 -3 -14 -3q-24 0 -34 23q-3 7 -3 14zM285 516q0 24 23 34q7 3 14 3q24 0 34 -23q3 -7 3 -14q0 -24 -23 -34q-7 -3 -14 -3q-24 0 -34 23q-3 7 -3 14z" />
    <glyph glyph-name="e" unicode="e" horiz-adv-x="456" 
d="M40 143v239q1 47 44 90q49 51 121 51v-49q-57 0 -94 -51q-19 -26 -19 -49v-79h272v79q0 50 -49 81q-31 20 -64 20v48q67 0 120 -49q44 -42 45 -91v-138h-324v-102q0 -31 38 -64q36 -30 76 -30v-49q-88 0 -139 72q-27 38 -27 71zM251 0v52q65 0 102 55q11 17 15 32l49 -17
q-22 -73 -89 -105q-36 -17 -77 -17z" />
    <glyph glyph-name="eacute" unicode="&#xe9;" horiz-adv-x="456" 
d="M208 584l37 152h51l-52 -152h-36zM40 143v239q1 47 44 90q49 51 121 51v-49q-57 0 -94 -51q-19 -26 -19 -49v-79h272v79q0 50 -49 81q-31 20 -64 20v48q67 0 120 -49q44 -42 45 -91v-138h-324v-102q0 -31 38 -64q36 -30 76 -30v-49q-88 0 -139 72q-27 38 -27 71zM251 0
v52q65 0 102 55q11 17 15 32l49 -17q-22 -73 -89 -105q-36 -17 -77 -17z" />
    <glyph glyph-name="ecaron" unicode="&#x11b;" horiz-adv-x="456" 
d="M132 736h42l52 -106l51 106h42l-75 -152h-36zM40 143v239q1 47 44 90q49 51 121 51v-49q-57 0 -94 -51q-19 -26 -19 -49v-79h272v79q0 50 -49 81q-31 20 -64 20v48q67 0 120 -49q44 -42 45 -91v-138h-324v-102q0 -31 38 -64q36 -30 76 -30v-49q-88 0 -139 72
q-27 38 -27 71zM251 0v52q65 0 102 55q11 17 15 32l49 -17q-22 -73 -89 -105q-36 -17 -77 -17z" />
    <glyph glyph-name="ecircumflex" unicode="&#xea;" horiz-adv-x="456" 
d="M132 584l75 152h36l76 -152h-42l-52 106l-51 -106h-42zM40 143v239q1 47 44 90q49 51 121 51v-49q-57 0 -94 -51q-19 -26 -19 -49v-79h272v79q0 50 -49 81q-31 20 -64 20v48q67 0 120 -49q44 -42 45 -91v-138h-324v-102q0 -31 38 -64q36 -30 76 -30v-49q-88 0 -139 72
q-27 38 -27 71zM251 0v52q65 0 102 55q11 17 15 32l49 -17q-22 -73 -89 -105q-36 -17 -77 -17z" />
    <glyph glyph-name="edieresis" unicode="&#xeb;" horiz-adv-x="456" 
d="M137 617q0 22 22 31q6 2 12 2q25 0 32 -24q1 -4 1 -9q0 -25 -23 -32q-5 -1 -10 -1q-24 0 -32 22q-2 6 -2 11zM247 617q0 22 22 31q6 2 12 2q25 0 32 -24q1 -4 1 -9q0 -25 -23 -32q-5 -1 -10 -1q-24 0 -32 22q-2 6 -2 11zM40 143v239q1 47 44 90q49 51 121 51v-49
q-57 0 -94 -51q-19 -26 -19 -49v-79h272v79q0 50 -49 81q-31 20 -64 20v48q67 0 120 -49q44 -42 45 -91v-138h-324v-102q0 -31 38 -64q36 -30 76 -30v-49q-88 0 -139 72q-27 38 -27 71zM251 0v52q65 0 102 55q11 17 15 32l49 -17q-22 -73 -89 -105q-36 -17 -77 -17z" />
    <glyph glyph-name="edotaccent" unicode="&#x117;" horiz-adv-x="456" 
d="M190 620q0 26 24 35q6 2 12 2q25 0 34 -25q2 -6 2 -12q0 -25 -23 -34q-7 -2 -13 -2q-25 0 -34 23q-2 7 -2 13zM40 143v239q1 47 44 90q49 51 121 51v-49q-57 0 -94 -51q-19 -26 -19 -49v-79h272v79q0 50 -49 81q-31 20 -64 20v48q67 0 120 -49q44 -42 45 -91v-138h-324
v-102q0 -31 38 -64q36 -30 76 -30v-49q-88 0 -139 72q-27 38 -27 71zM251 0v52q65 0 102 55q11 17 15 32l49 -17q-22 -73 -89 -105q-36 -17 -77 -17z" />
    <glyph glyph-name="egrave" unicode="&#xe8;" horiz-adv-x="456" 
d="M154 736h52l37 -152h-37zM40 143v239q1 47 44 90q49 51 121 51v-49q-57 0 -94 -51q-19 -26 -19 -49v-79h272v79q0 50 -49 81q-31 20 -64 20v48q67 0 120 -49q44 -42 45 -91v-138h-324v-102q0 -31 38 -64q36 -30 76 -30v-49q-88 0 -139 72q-27 38 -27 71zM251 0v52
q65 0 102 55q11 17 15 32l49 -17q-22 -73 -89 -105q-36 -17 -77 -17z" />
    <glyph glyph-name="eight" unicode="8" horiz-adv-x="515" 
d="M230 0q-98 0 -154 78q-37 53 -37 117q1 108 81 154q-77 52 -78 150q0 86 62 147q55 52 129 52v-50q-88 -4 -123 -80q-15 -32 -15 -68q0 -76 62 -109q32 -16 75 -17v-50q-105 -2 -134 -73q-9 -23 -9 -51q0 -101 82 -136q27 -12 59 -14v-50zM285 0v50q87 5 123 72
q18 34 18 78q0 99 -100 120q-21 4 -42 4v50q97 1 127 75q10 24 10 51q0 71 -50 114q-36 31 -88 34v50q92 0 149 -76q41 -56 41 -123q-1 -99 -78 -150q82 -48 82 -154q0 -89 -64 -147q-54 -48 -128 -48z" />
    <glyph glyph-name="ellipsis" unicode="&#x2026;" horiz-adv-x="650" 
d="M47 11q0 22 22 30q6 2 11 2q22 0 30 -21q2 -6 2 -11q0 -23 -22 -31q-5 -2 -10 -2q-23 0 -31 22q-2 6 -2 11zM293 11q0 22 21 30q6 2 11 2q23 0 31 -22q2 -5 2 -10q0 -23 -22 -31q-6 -2 -11 -2q-22 0 -30 22q-2 6 -2 11zM538 11q0 22 21 30q6 2 11 2q23 0 31 -22
q2 -5 2 -10q0 -23 -22 -31q-6 -2 -11 -2q-22 0 -30 22q-2 6 -2 11z" />
    <glyph glyph-name="emacron" unicode="&#x113;" horiz-adv-x="456" 
d="M68 584v36h316v-36h-316zM40 143v239q1 47 44 90q49 51 121 51v-49q-57 0 -94 -51q-19 -26 -19 -49v-79h272v79q0 50 -49 81q-31 20 -64 20v48q67 0 120 -49q44 -42 45 -91v-138h-324v-102q0 -31 38 -64q36 -30 76 -30v-49q-88 0 -139 72q-27 38 -27 71zM251 0v52
q65 0 102 55q11 17 15 32l49 -17q-22 -73 -89 -105q-36 -17 -77 -17z" />
    <glyph glyph-name="emdash" unicode="&#x2014;" horiz-adv-x="906" 
d="M26 268v50h854v-50h-854z" />
    <glyph glyph-name="endash" unicode="&#x2013;" horiz-adv-x="532" 
d="M26 269v50h480v-50h-480z" />
    <glyph glyph-name="eogonek" unicode="&#x119;" horiz-adv-x="456" 
d="M351 -176v45q-61 0 -87 46q-11 21 -11 45h-47q0 -65 49 -105q39 -31 96 -31zM40 143v239q1 47 44 90q49 51 121 51v-49q-57 0 -94 -51q-19 -26 -19 -49v-79h272v79q0 50 -49 81q-31 20 -64 20v48q67 0 120 -49q44 -42 45 -91v-138h-324v-102q0 -31 38 -64q36 -30 76 -30
v-49q-88 0 -139 72q-27 38 -27 71zM251 0v52q65 0 102 55q11 17 15 32l49 -17q-22 -73 -89 -105q-36 -17 -77 -17z" />
    <glyph glyph-name="equal" unicode="=" horiz-adv-x="418" 
d="M50 207v51h318v-51h-318zM50 325v51h318v-51h-318z" />
    <glyph glyph-name="estimated" unicode="&#x212e;" horiz-adv-x="531" 
d="M217 0q-101 0 -153 85q-34 55 -34 124v288q0 91 59 153q53 55 128 55v-51q-72 -1 -110 -67q-24 -43 -24 -101v-142h322v142q0 102 -65 146q-31 21 -68 22v51q97 0 151 -84q35 -56 35 -123v-205h-375v-72q0 -115 74 -154q27 -15 60 -15v-52zM273 0v53q64 1 109 47
q20 22 25 44l52 -16q-17 -65 -87 -103q-47 -25 -99 -25z" />
    <glyph glyph-name="eth" unicode="&#xf0;" horiz-adv-x="420" 
d="M28 141v235q0 46 42 89q49 51 122 51v-48q-66 0 -99 -56q-15 -25 -15 -49v-209q0 -38 37 -74q35 -33 77 -33v-48q-92 0 -141 74q-23 36 -23 68zM192 681v33q94 -17 145 -81l58 17l12 -39l-47 -14q32 -65 32 -160v-296q0 -47 -41 -91q-47 -50 -118 -51v48q62 0 94 57
q15 25 15 48l-1 220q0 42 -40 73q-30 23 -68 23v48q62 -1 104 -40q0 61 -24 107l-64 -19l-12 39l54 16q-32 36 -99 62z" />
    <glyph glyph-name="exclam" unicode="!" horiz-adv-x="147" 
d="M41 27q0 22 21 30q6 2 11 2q23 0 31 -21q2 -6 2 -11q0 -23 -22 -30q-6 -2 -11 -2q-22 0 -30 21q-2 6 -2 11zM48 166v534h51v-534h-51z" />
    <glyph glyph-name="exclamdown" unicode="&#xa1;" horiz-adv-x="152" 
d="M20 490q0 25 24 32q6 2 11 2q24 0 32 -23q2 -6 2 -11q0 -24 -23 -32q-6 -2 -11 -2q-25 0 -33 23q-2 6 -2 11zM29 -108v523h52v-523h-52z" />
    <glyph glyph-name="f" unicode="f" horiz-adv-x="253" 
d="M28 432v50h64v71q0 77 45 118q32 28 80 28h19l-12 -50h-9q-71 -5 -71 -96v-71h64v-50h-64v-432h-52v432h-64z" />
    <glyph glyph-name="five" unicode="5" horiz-adv-x="520" 
d="M41 354l29 346h354v-50l-307 -1l-20 -245q60 43 126 43v-49q-80 -1 -133 -74zM269 0v49q60 2 109 49q53 50 53 126q0 112 -90 156q-36 17 -72 18v49q126 0 182 -102q30 -55 30 -122q0 -122 -91 -184q-55 -37 -121 -39zM40 116l45 22q36 -69 105 -84q15 -3 32 -4v-50
q-93 0 -153 69q-18 22 -29 47z" />
    <glyph glyph-name="florin" unicode="&#x192;" horiz-adv-x="382" 
d="M26 -168l12 47h33q69 1 70 79v475h-63v48h63v56q0 67 48 115q44 43 106 44h61l-11 -48h-28q-124 -2 -125 -118v-50l66 1v-48h-66v-463q0 -131 -114 -138h-14h-38z" />
    <glyph glyph-name="four" unicode="4" horiz-adv-x="500" 
d="M29 145v50l278 472v-93l-222 -379h222v-50h-278zM353 0v701h54v-506h54v-50h-54v-145h-54z" />
    <glyph glyph-name="fraction" unicode="&#x2044;" horiz-adv-x="480" 
d="M3 0l432 700h42l-432 -700h-42z" />
    <glyph glyph-name="g" unicode="g" horiz-adv-x="436" 
d="M29 -182l13 49h183q70 3 105 53q15 21 15 41v88q-27 -34 -76 -45q-15 -4 -30 -4v47q46 0 82 41q24 27 24 54v238q0 54 -57 82q-26 13 -49 13v49q53 0 95 -34q7 -6 11 -11v45h51v-563q0 -42 -38 -87q-47 -55 -117 -56h-212zM38 142v242q1 47 41 91q47 49 115 49v-49
q-53 0 -88 -49q-17 -24 -17 -45v-238q0 -34 35 -66q32 -28 70 -28v-49q-90 1 -135 77q-21 34 -21 65z" />
    <glyph glyph-name="gbreve" unicode="&#x11f;" horiz-adv-x="436" 
d="M143 651h36q0 -24 22 -31q6 -1 10 -1q24 0 31 22q1 6 1 10h36q0 -31 -27 -52q-19 -14 -41 -14q-43 0 -62 41q-6 14 -6 25zM29 -182l13 49h183q70 3 105 53q15 21 15 41v88q-27 -34 -76 -45q-15 -4 -30 -4v47q46 0 82 41q24 27 24 54v238q0 54 -57 82q-26 13 -49 13v49
q53 0 95 -34q7 -6 11 -11v45h51v-563q0 -42 -38 -87q-47 -55 -117 -56h-212zM38 142v242q1 47 41 91q47 49 115 49v-49q-53 0 -88 -49q-17 -24 -17 -45v-238q0 -34 35 -66q32 -28 70 -28v-49q-90 1 -135 77q-21 34 -21 65z" />
    <glyph glyph-name="germandbls" unicode="&#xdf;" horiz-adv-x="522" 
d="M26 0v457q1 88 12 126q37 121 188 122q165 0 179 -156q1 -15 1 -31v-112h-53q-35 0 -46 -26q-2 -6 -2 -10q0 -29 33 -48q21 -12 53 -23q104 -37 105 -145q0 -86 -73 -129q-43 -25 -96 -25h-128v47h104q108 0 137 63q8 20 8 43q0 54 -27 75q-13 11 -49 29q-8 4 -26 12
q-58 25 -76 50q-15 22 -15 52q0 66 74 79q14 2 28 2v12q0 89 -8 118q-24 73 -123 74q-148 -1 -148 -158v-498h-52z" />
    <glyph glyph-name="grave" unicode="`" horiz-adv-x="182" 
d="M40 757h52l37 -152h-37z" />
    <glyph glyph-name="greater" unicode="&#x3e;" horiz-adv-x="431" 
d="M39 79v51l291 162l-291 156v52l354 -190v-36z" />
    <glyph glyph-name="greaterequal" unicode="&#x2265;" horiz-adv-x="422" 
d="M30 146v51l296 161l-296 157v51l362 -190v-35zM27 46v47h365v-47h-365z" />
    <glyph glyph-name="guillemotleft" unicode="&#xab;" horiz-adv-x="473" 
d="M26 278v24l211 156v-60l-147 -106l147 -111v-60zM237 278v24l211 156v-60l-147 -106l147 -111v-60z" />
    <glyph glyph-name="guillemotright" unicode="&#xbb;" horiz-adv-x="457" 
d="M15 139v50l165 103l-165 97v51l211 -129v-42zM226 139v50l165 103l-165 97v51l211 -129v-42z" />
    <glyph glyph-name="guilsinglleft" unicode="&#x2039;" horiz-adv-x="338" 
d="M70 292l131 208h63l-131 -208l131 -213h-63z" />
    <glyph glyph-name="guilsinglright" unicode="&#x203a;" horiz-adv-x="338" 
d="M71 79l131 213l-131 208h64l131 -208l-131 -213h-64z" />
    <glyph glyph-name="h" unicode="h" horiz-adv-x="449" 
d="M40 0v700h50v-234q43 48 115 50v-49q-51 0 -89 -42q-25 -28 -25 -56v-369h-51zM251 467v49q92 0 136 -65q23 -34 23 -73v-378h-51v369q0 53 -44 81q-27 17 -64 17z" />
    <glyph glyph-name="hungarumlaut" unicode="&#x2dd;" horiz-adv-x="275" 
d="M196 605l37 152h51l-52 -152h-36zM99 605l37 152h51l-52 -152h-36z" />
    <glyph glyph-name="hyphen" unicode="-" horiz-adv-x="399" 
d="M41 269v50h316v-50h-316z" />
    <glyph glyph-name="i" unicode="i" horiz-adv-x="153" 
d="M43 592q0 22 22 31q6 2 12 2q23 0 31 -22q2 -6 2 -11q0 -23 -22 -31q-6 -2 -11 -2q-23 0 -32 21q-2 6 -2 12zM51 0v519h52v-519h-52z" />
    <glyph glyph-name="iacute" unicode="&#xed;" horiz-adv-x="174" 
d="M70 584l37 152h51l-52 -152h-36zM63 0v516h50v-516h-50z" />
    <glyph glyph-name="icircumflex" unicode="&#xee;" horiz-adv-x="174" 
d="M-6 584l75 152h36l76 -152h-42l-52 106l-51 -106h-42zM63 0v516h50v-516h-50z" />
    <glyph glyph-name="idieresis" unicode="&#xef;" horiz-adv-x="174" 
d="M-1 617q0 22 22 31q6 2 12 2q25 0 32 -24q1 -5 1 -9q0 -25 -23 -32q-5 -1 -10 -1q-24 0 -32 22q-2 6 -2 11zM109 617q0 22 22 31q6 2 12 2q25 0 32 -24q1 -4 1 -9q0 -25 -23 -32q-5 -1 -10 -1q-24 0 -32 22q-2 6 -2 11zM63 0v516h50v-516h-50z" />
    <glyph glyph-name="igrave" unicode="&#xec;" horiz-adv-x="174" 
d="M16 736h52l37 -152h-37zM63 0v516h50v-516h-50z" />
    <glyph glyph-name="imacron" unicode="&#x12b;" horiz-adv-x="174" 
d="M-70 584v36h316v-36h-316zM63 0v516h50v-516h-50z" />
    <glyph glyph-name="infinity" unicode="&#x221e;" horiz-adv-x="798" 
d="M235 -1v49q46 0 69 36q5 8 8 15l63 159l-63 159q-16 42 -63 50q-7 1 -14 1v48q62 0 102 -47q13 -15 20 -32l45 -115l44 114q20 50 76 71q23 8 46 8v-48q-46 0 -69 -36q-5 -8 -8 -15l-63 -158l63 -158q16 -43 63 -51q7 -1 14 -1v-48q-62 0 -102 47q-12 16 -19 32l-45 115
l-46 -116q-20 -51 -76 -71q-23 -8 -45 -8zM194 -1q-92 0 -141 74q-23 36 -23 68v235q0 46 42 89q49 51 122 51v-48q-66 0 -99 -56q-15 -25 -15 -49v-209q0 -38 37 -74q35 -32 77 -32v-49zM609 -2v49q58 0 95 55q18 27 18 51v209q0 46 -39 79q-32 26 -74 26v48q90 0 139 -72
q24 -36 24 -68v-235q0 -46 -40 -90q-49 -51 -123 -52z" />
    <glyph glyph-name="integral" unicode="&#x222b;" horiz-adv-x="292" 
d="M5 -143q51 -15 86 21q36 38 36 119v628q0 113 73 159q44 26 86 14v-32q-42 15 -78 -17q-42 -39 -42 -124v-628q0 -116 -73 -159q-43 -25 -88 -13v32z" />
    <glyph glyph-name="iogonek" unicode="&#x12f;" horiz-adv-x="153" 
d="M198 -174q-94 0 -131 75q-14 30 -14 61h47q0 -58 51 -81q22 -10 47 -10v-45zM43 592q0 22 22 31q6 2 12 2q23 0 31 -22q2 -6 2 -11q0 -23 -22 -31q-6 -2 -11 -2q-23 0 -32 21q-2 6 -2 12zM51 0v519h52v-519h-52z" />
    <glyph glyph-name="j" unicode="j" horiz-adv-x="183" 
d="M81 519h52v-555q0 -47 -38 -93q-46 -53 -114 -54h-23l12 49h13q49 3 80 48q18 25 18 50v555zM75 592q0 24 23 31q6 2 11 2q23 0 31 -22q2 -6 2 -11q0 -23 -22 -31q-6 -2 -11 -2q-24 0 -32 22q-2 6 -2 11z" />
    <glyph glyph-name="k" unicode="k" horiz-adv-x="463" 
d="M40 0v700h53v-700h-53zM116 261l256 260h71l-256 -260l256 -261h-71z" />
    <glyph glyph-name="l" unicode="l" horiz-adv-x="138" 
d="M42 0v700h54v-700h-54z" />
    <glyph glyph-name="lacute" unicode="&#x13a;" horiz-adv-x="138" 
d="M51 767l37 152h51l-52 -152h-36zM42 0v700h54v-700h-54z" />
    <glyph glyph-name="lcaron" unicode="&#x13e;" horiz-adv-x="161" 
d="M151 554l37 152h51l-37 -152h-51zM41 0v700h54v-700h-54z" />
    <glyph glyph-name="less" unicode="&#x3c;" horiz-adv-x="431" 
d="M39 274v36l354 190v-52l-291 -156l291 -162v-51z" />
    <glyph glyph-name="lessequal" unicode="&#x2264;" horiz-adv-x="422" 
d="M380 146l-362 195v35l362 190v-51l-297 -157l297 -161v-51zM27 46v47h365v-47h-365z" />
    <glyph glyph-name="logicalnot" unicode="&#xac;" horiz-adv-x="506" 
d="M40 363v48h416v-203h-50v155h-366z" />
    <glyph glyph-name="lozenge" unicode="&#x25ca;" horiz-adv-x="425" 
d="M-3 352l195 354h36l190 -354l-195 -354h-36zM49 352l156 -291l162 291l-158 291z" />
    <glyph glyph-name="lslash" unicode="&#x142;" horiz-adv-x="424" 
d="M187 -1h53v362l90 69l-31 40l-59 -45v274h-53v-315l-89 -69l31 -40l58 45v-321z" />
    <glyph glyph-name="m" unicode="m" horiz-adv-x="708" 
d="M38 0v382q0 63 43 106q41 38 105 38v-51q-61 0 -86 -53q-10 -22 -10 -47v-375h-52zM230 475v51q75 0 114 -51l10 -14q33 50 82 61q19 4 41 4v-51q-60 0 -86 -52q-11 -23 -11 -48v-375h-52v375q0 60 -47 87q-23 13 -51 13zM521 475v51q93 0 133 -81q16 -32 16 -63v-382
h-52v375q0 62 -49 88q-22 12 -48 12z" />
    <glyph glyph-name="macron" unicode="&#xaf;" horiz-adv-x="510" 
d="M39 759h450v-47h-450v47z" />
    <glyph glyph-name="minus" unicode="&#x2212;" horiz-adv-x="416" 
d="M41 269v50h316v-50h-316z" />
    <glyph glyph-name="mooniak" horiz-adv-x="952" 
d="M675 693q0 61 51 95q29 19 64 19q60 0 94 -50q20 -29 20 -64q0 -60 -50 -94q-29 -20 -64 -20q-62 0 -96 50q-19 30 -19 64zM22 375q0 131 93 223q92 92 221 92q131 0 223 -93t92 -222q0 -131 -93 -223t-222 -92t-221 92q-93 93 -93 223z" />
    <glyph glyph-name="multiply" unicode="&#xd7;" horiz-adv-x="520" 
d="M147 195l-36 38l184 184l-184 184l37 38l184 -184l186 185l37 -38l-185 -185l185 -186l-37 -38l-186 187z" />
    <glyph glyph-name="n" unicode="n" 
d="M38 0v382q0 48 43 93q51 51 125 51v-52q-55 0 -93 -43q-23 -27 -23 -55v-376h-52zM249 474v52q90 0 142 -74q26 -37 26 -70v-382h-53v376q0 32 -33 64q-35 34 -82 34z" />
    <glyph glyph-name="nacute" unicode="&#x144;" 
d="M209 587l37 152h51l-52 -152h-36zM38 0v382q0 48 43 93q51 51 125 51v-52q-55 0 -93 -43q-23 -27 -23 -55v-376h-52zM249 474v52q90 0 142 -74q26 -37 26 -70v-382h-53v376q0 32 -33 64q-35 34 -82 34z" />
    <glyph glyph-name="ncaron" unicode="&#x148;" 
d="M133 739h42l52 -106l51 106h42l-75 -152h-36zM38 0v382q0 48 43 93q51 51 125 51v-52q-55 0 -93 -43q-23 -27 -23 -55v-376h-52zM249 474v52q90 0 142 -74q26 -37 26 -70v-382h-53v376q0 32 -33 64q-35 34 -82 34z" />
    <glyph glyph-name="nine" unicode="9" horiz-adv-x="528" 
d="M280 2q138 -2 188 174q21 77 21 165q0 257 -101 328q-45 31 -108 31v-52q82 -2 122 -83q19 -38 19 -75q0 -126 -90 -156q-24 -8 -51 -8v-52q99 0 147 68q9 13 10 14q0 -215 -94 -282q-31 -21 -63 -22v-50zM235 274v52q-95 1 -130 79q-16 36 -16 80q0 65 43 115
q41 46 103 48v52q-84 -1 -143 -69q-53 -62 -53 -146q0 -134 91 -186q45 -25 105 -25zM57 114q37 -74 114 -102q31 -11 64 -11v51q-68 1 -115 57q-13 16 -21 32z" />
    <glyph glyph-name="notequal" unicode="&#x2260;" horiz-adv-x="418" 
d="M80 -69h52l65 276h171v51h-159l16 67h143v51h-131l69 294h-51l-70 -294h-135v-51h123l-16 -67h-107v-51h95z" />
    <glyph glyph-name="ntilde" unicode="&#xf1;" 
d="M87 605v47q39 22 70 22q25 0 71 -23q35 -18 60 -18q35 1 80 28v-46q-46 -28 -84 -28q-27 0 -74 23q-34 17 -57 17q-31 -1 -66 -22zM38 0v382q0 48 43 93q51 51 125 51v-52q-55 0 -93 -43q-23 -27 -23 -55v-376h-52zM249 474v52q90 0 142 -74q26 -37 26 -70v-382h-53v376
q0 32 -33 64q-35 34 -82 34z" />
    <glyph glyph-name="numbersign" unicode="#" horiz-adv-x="750" 
d="M38 213l10 48h173l31 180h-180l8 48h180l34 193h51l-34 -193h176l33 193h51l-33 -193h172l-7 -49l-174 1l-31 -181h177l-6 -48l-180 1l-33 -191h-51l33 191h-175l-34 -191h-51l34 191h-174zM272 261l175 -1l31 181h-175z" />
    <glyph glyph-name="o" unicode="o" horiz-adv-x="445" 
d="M38 143v238q0 47 42 91q50 51 124 51v-50q-67 0 -100 -56q-14 -25 -14 -49v-212q0 -40 38 -76q34 -31 76 -31v-50q-93 0 -142 75q-24 36 -24 69zM246 -1v50q62 0 94 57q15 25 15 48v214q0 44 -38 78q-31 27 -71 27v50q90 0 138 -73q23 -36 23 -69v-238q0 -48 -41 -92
q-48 -51 -120 -52z" />
    <glyph glyph-name="oacute" unicode="&#xf3;" horiz-adv-x="445" 
d="M207 584l37 152h51l-52 -152h-36zM38 143v238q0 47 42 91q50 51 124 51v-50q-67 0 -100 -56q-14 -25 -14 -49v-212q0 -40 38 -76q34 -31 76 -31v-50q-93 0 -142 75q-24 36 -24 69zM246 -1v50q62 0 94 57q15 25 15 48v214q0 44 -38 78q-31 27 -71 27v50q90 0 138 -73
q23 -36 23 -69v-238q0 -48 -41 -92q-48 -51 -120 -52z" />
    <glyph glyph-name="ocircumflex" unicode="&#xf4;" horiz-adv-x="445" 
d="M131 584l75 152h36l76 -152h-42l-52 106l-51 -106h-42zM38 143v238q0 47 42 91q50 51 124 51v-50q-67 0 -100 -56q-14 -25 -14 -49v-212q0 -40 38 -76q34 -31 76 -31v-50q-93 0 -142 75q-24 36 -24 69zM246 -1v50q62 0 94 57q15 25 15 48v214q0 44 -38 78q-31 27 -71 27
v50q90 0 138 -73q23 -36 23 -69v-238q0 -48 -41 -92q-48 -51 -120 -52z" />
    <glyph glyph-name="odieresis" unicode="&#xf6;" horiz-adv-x="445" 
d="M136 617q0 22 22 31q6 2 12 2q25 0 32 -24q1 -4 1 -9q0 -25 -23 -32q-5 -1 -10 -1q-24 0 -32 22q-2 6 -2 11zM246 617q0 22 22 31q6 2 12 2q25 0 32 -24q1 -4 1 -9q0 -25 -23 -32q-5 -1 -10 -1q-24 0 -32 22q-2 6 -2 11zM38 143v238q0 47 42 91q50 51 124 51v-50
q-67 0 -100 -56q-14 -25 -14 -49v-212q0 -40 38 -76q34 -31 76 -31v-50q-93 0 -142 75q-24 36 -24 69zM246 -1v50q62 0 94 57q15 25 15 48v214q0 44 -38 78q-31 27 -71 27v50q90 0 138 -73q23 -36 23 -69v-238q0 -48 -41 -92q-48 -51 -120 -52z" />
    <glyph glyph-name="oe" unicode="&#x153;" horiz-adv-x="746" 
d="M370 73q33 -52 112 -68q24 -5 48 -5q151 1 186 120l-45 16q-18 -62 -86 -83q-26 -8 -54 -8q-66 0 -110 41q-26 27 -27 57v99h321v136q0 61 -63 105q-48 33 -100 33v-46q53 0 90 -43q23 -28 23 -59v-78h-271v70q0 48 43 83q31 25 70 25v48q-86 0 -135 -70q-2 -1 -2 -2
q-51 71 -136 72v-48q62 0 95 -55q15 -26 15 -50v-211q0 -42 -36 -76q-32 -29 -74 -29v-48q87 1 136 74zM29 141q0 -45 40 -89q50 -52 124 -53v48q-58 0 -94 54q-19 28 -19 53v209q0 46 39 79q32 26 74 26v48q-90 0 -139 -72q-25 -36 -25 -68v-235z" />
    <glyph glyph-name="ogonek" unicode="&#x2db;" horiz-adv-x="219" 
d="M106 -176q-94 0 -131 75q-14 30 -14 61h47q0 -58 51 -81q22 -10 47 -10v-45z" />
    <glyph glyph-name="ograve" unicode="&#xf2;" horiz-adv-x="445" 
d="M153 736h52l37 -152h-37zM38 143v238q0 47 42 91q50 51 124 51v-50q-67 0 -100 -56q-14 -25 -14 -49v-212q0 -40 38 -76q34 -31 76 -31v-50q-93 0 -142 75q-24 36 -24 69zM246 -1v50q62 0 94 57q15 25 15 48v214q0 44 -38 78q-31 27 -71 27v50q90 0 138 -73
q23 -36 23 -69v-238q0 -48 -41 -92q-48 -51 -120 -52z" />
    <glyph glyph-name="ohungarumlaut" unicode="&#x151;" horiz-adv-x="445" 
d="M257 584l37 152h51l-52 -152h-36zM160 584l37 152h51l-52 -152h-36zM38 143v238q0 47 42 91q50 51 124 51v-50q-67 0 -100 -56q-14 -25 -14 -49v-212q0 -40 38 -76q34 -31 76 -31v-50q-93 0 -142 75q-24 36 -24 69zM246 -1v50q62 0 94 57q15 25 15 48v214q0 44 -38 78
q-31 27 -71 27v50q90 0 138 -73q23 -36 23 -69v-238q0 -48 -41 -92q-48 -51 -120 -52z" />
    <glyph glyph-name="omacron" unicode="&#x14d;" horiz-adv-x="445" 
d="M67 584v36h316v-36h-316zM38 143v238q0 47 42 91q50 51 124 51v-50q-67 0 -100 -56q-14 -25 -14 -49v-212q0 -40 38 -76q34 -31 76 -31v-50q-93 0 -142 75q-24 36 -24 69zM246 -1v50q62 0 94 57q15 25 15 48v214q0 44 -38 78q-31 27 -71 27v50q90 0 138 -73
q23 -36 23 -69v-238q0 -48 -41 -92q-48 -51 -120 -52z" />
    <glyph glyph-name="one" unicode="1" horiz-adv-x="175" 
d="M39 610v53l44 37h54v-700h-54v610h-44z" />
    <glyph glyph-name="onehalf" unicode="&#xbd;" horiz-adv-x="558" 
d="M308 0v36h207v-36h-207zM0 0l432 700h41l-431 -700h-42zM61 655v27l23 18h36v-350h-36v305h-23zM300 259q5 52 48 79q20 11 42 13v-36q-27 0 -44 -27q-9 -15 -12 -36zM308 58q0 71 100 110q17 7 18 7q46 22 54 53q2 10 2 19q-2 67 -69 68v36q86 0 103 -74q3 -15 3 -30
q-1 -61 -60 -93q-7 -4 -26 -11q-61 -25 -77 -51q-9 -16 -9 -34h-39z" />
    <glyph glyph-name="onequarter" unicode="&#xbc;" horiz-adv-x="499" 
d="M396 0v350h37v-254h27v-35h-27v-61h-37zM61 655v27l23 18h36v-350h-36v305h-23zM232 61v35l140 240v-70l-98 -170h98v-35h-140zM0 0l432 700h41l-431 -700h-42z" />
    <glyph glyph-name="onesuperior" unicode="&#xb9;" horiz-adv-x="109" 
d="M9 659v24l20 16h31v-313h-31v273h-20z" />
    <glyph glyph-name="ordfeminine" unicode="&#xaa;" horiz-adv-x="232" 
d="M20 384v24h190v-24h-190zM22 503q0 -33 36 -51q20 -9 43 -10v25q-47 0 -53 34q-1 5 -1 9v18q0 12 5 18q8 8 77 24q35 8 49 15v-67q-2 -50 -54 -51v-25q38 1 58 19q14 -18 34 -19v26q-12 0 -12 16v142q0 43 -35 66q-20 13 -45 13v-24q31 0 46 -28q7 -13 7 -27v-8
q0 -12 -79 -31q-41 -10 -51 -15q-25 -14 -25 -46v-23zM26 639l23 -9q0 33 32 46q9 4 20 4v25q-41 0 -65 -32q-10 -17 -10 -34z" />
    <glyph glyph-name="ordmasculine" unicode="&#xba;" horiz-adv-x="230" 
d="M26 406v26h178v-26h-178zM36 532v105q0 28 28 49q21 14 46 14v-22q-36 0 -48 -32q-3 -8 -3 -14v-95q0 -23 24 -39q13 -8 27 -8v-22q-48 0 -68 41q-6 13 -6 23zM128 468v22q32 0 45 31q4 8 4 15v96q0 25 -24 39q-12 7 -25 7v22q46 0 66 -40q6 -12 6 -23v-105
q0 -29 -28 -50q-19 -14 -44 -14z" />
    <glyph glyph-name="oslash" unicode="&#xf8;" horiz-adv-x="430" 
d="M12 70l57 51q-3 11 -3 22v233q0 46 42 89q49 51 122 51v-48q-67 0 -99 -57q-14 -25 -14 -48v-198l254 235q-24 54 -77 66q-12 2 -23 2v48q93 0 139 -76q1 -3 2 -4l45 41l31 -33l-60 -54q2 -10 2 -16v-233q0 -47 -41 -91q-47 -50 -118 -51v48q62 0 94 57q15 25 15 48v193
l-252 -230q29 -56 83 -66q10 -2 19 -2v-48q-90 0 -138 71q-2 4 -4 7l-45 -41z" />
    <glyph glyph-name="otilde" unicode="&#xf5;" horiz-adv-x="445" 
d="M84 602v47q39 22 70 22q25 0 71 -23q35 -18 60 -18q35 1 80 28v-46q-46 -28 -84 -28q-27 0 -74 23q-34 17 -57 17q-31 -1 -66 -22zM38 143v238q0 47 42 91q50 51 124 51v-50q-67 0 -100 -56q-14 -25 -14 -49v-212q0 -40 38 -76q34 -31 76 -31v-50q-93 0 -142 75
q-24 36 -24 69zM246 -1v50q62 0 94 57q15 25 15 48v214q0 44 -38 78q-31 27 -71 27v50q90 0 138 -73q23 -36 23 -69v-238q0 -48 -41 -92q-48 -51 -120 -52z" />
    <glyph glyph-name="p" unicode="p" horiz-adv-x="449" 
d="M146 0v50h101q71 0 101 52q12 21 12 43v232q0 37 -38 68q-35 28 -83 28h-99v50h99q98 0 149 -74q24 -36 24 -69v-239q0 -50 -44 -93q-49 -48 -122 -48h-100zM42 -184v707h53v-707h-53z" />
    <glyph glyph-name="paragraph" unicode="&#xb6;" horiz-adv-x="378" 
d="M35 517q0 -115 77 -164q40 -24 92 -24v-334h37v710h-37q-88 0 -137 -75q-32 -50 -32 -113zM287 -5h37v710h-37v-710z" />
    <glyph glyph-name="parenleft" unicode="(" horiz-adv-x="213" 
d="M40 189q0 -84 39 -129q31 -35 97 -69v31q-56 35 -75 87q-12 35 -12 81v47l-1 285q0 97 53 135q7 5 34 21v31q-64 -30 -87 -52q-48 -49 -48 -147v-321z" />
    <glyph glyph-name="parenright" unicode=")" horiz-adv-x="220" 
d="M37 -13v32q44 28 61 52q34 49 34 136v314q0 97 -69 144q-9 6 -26 16l1 31q112 -41 135 -135q7 -30 7 -67v-315q0 -146 -137 -205q-3 -2 -6 -3z" />
    <glyph glyph-name="partialdiff" unicode="&#x2202;" horiz-adv-x="420" 
d="M28 141v235q0 46 42 89q49 51 122 51v-48q-66 0 -99 -57q-15 -25 -15 -49v-208q0 -38 37 -74q35 -33 77 -33v-48q-92 0 -141 74q-23 36 -23 68zM70 681v33q202 0 273 -87q49 -63 49 -178v-308q0 -47 -41 -91q-47 -50 -118 -51v48q62 0 94 57q15 26 15 49l-1 217
q0 43 -40 74q-30 24 -68 24v48q62 -1 104 -40q-3 204 -267 205z" />
    <glyph glyph-name="percent" unicode="%" horiz-adv-x="338" 
d="M51 585q0 25 25 34q6 2 12 2q26 0 35 -24q2 -6 2 -12q0 -24 -23 -34q-7 -3 -14 -3q-24 0 -34 23q-3 7 -3 14zM56 -14l175 739h51l-174 -739h-52zM212 124q0 24 23 34q7 3 14 3q25 0 34 -25q2 -6 2 -12q0 -26 -24 -35q-6 -2 -12 -2q-24 0 -34 23q-3 7 -3 14z" />
    <glyph glyph-name="period" unicode="." horiz-adv-x="165" 
d="M39 40q0 28 26 39q9 4 17 4q29 0 40 -27q4 -8 4 -16q0 -29 -27 -41q-9 -3 -17 -3q-28 0 -40 27q-3 9 -3 17z" />
    <glyph glyph-name="periodcentered" unicode="&#xb7;" horiz-adv-x="165" 
d="M64 332q0 28 26 39q8 4 17 4q29 0 41 -27q3 -8 3 -16q0 -29 -27 -40q-8 -4 -17 -4q-28 0 -40 27q-3 9 -3 17z" />
    <glyph glyph-name="perthousand" unicode="&#x2030;" horiz-adv-x="897" 
d="M120 352v35q-37 3 -54 53q-11 33 -11 82v27q1 84 46 111q10 5 20 6v35q-63 -3 -88 -77q-14 -40 -14 -96q0 -145 77 -172q12 -4 24 -4zM151 352q57 2 84 68q17 43 17 108q0 140 -76 168q-13 4 -26 5v-35q31 -1 51 -42q14 -32 15 -75v-27q0 -114 -54 -133q-6 -1 -11 -2v-35
zM487 0v35q-37 3 -54 53q-11 34 -11 82v27q1 84 46 111q10 5 20 6v35q-63 -3 -88 -77q-14 -40 -14 -96q0 -145 77 -172q12 -4 24 -4zM518 0q57 2 84 68q17 43 17 108q0 140 -76 168q-13 4 -26 5v-35q31 -1 51 -42q14 -32 15 -75v-27q0 -114 -54 -133q-6 -1 -11 -2v-35z
M746 0v35q-37 3 -54 53q-11 34 -11 82v27q1 84 46 111q10 5 20 6v35q-62 -3 -88 -74q-15 -41 -15 -99q0 -145 78 -172q12 -4 24 -4zM777 0q57 2 84 68q17 43 17 108q0 140 -76 168q-13 4 -26 5v-35q31 -1 51 -42q14 -32 15 -75v-27q0 -114 -54 -133q-6 -1 -11 -2v-35zM86 0
h42l431 700h-41z" />
    <glyph glyph-name="pi" unicode="&#x3c0;" horiz-adv-x="436" 
d="M-20 466v50h479v-50h-90v-324q0 -86 49 -96q11 -2 27 -2v-48q-121 9 -126 137v333h-198v-469h-51v469h-90z" />
    <glyph glyph-name="plus" unicode="+" horiz-adv-x="449" 
d="M37 269v50h160v179h51v-179h164v-50h-164v-182h-51v182h-160z" />
    <glyph glyph-name="plusminus" unicode="&#xb1;" horiz-adv-x="434" 
d="M29 117v50h376v-50h-376zM51 430v50h160v179h51v-179h164v-50h-164v-182h-51v182h-160z" />
    <glyph glyph-name="product" unicode="&#x220f;" horiz-adv-x="468" 
d="M6 647v48h456v-48h-59v-787h-49v787h-241v-787h-49v787h-58z" />
    <glyph glyph-name="q" unicode="q" horiz-adv-x="443" 
d="M204 0q-94 0 -143 73q-23 35 -23 68v239q0 52 43 95q48 48 123 48h99v-50h-99q-71 0 -103 -56q-11 -21 -11 -40v-232q0 -47 44 -76q29 -19 68 -19h94v-50h-92zM348 -184v707h53v-707h-53z" />
    <glyph glyph-name="question" unicode="?" horiz-adv-x="477" 
d="M39 611q58 73 138 88q24 4 50 4q125 0 180 -94q30 -51 32 -118q0 -40 -11.5 -74t-30 -55.5t-41 -38t-44.5 -25t-40.5 -14t-29.5 -6.5l-12 -2v-193h-50v242q157 3 197 100q12 30 12 66q0 89 -66 133q-41 28 -97 28q-96 -1 -153 -76zM173 10q0 23 22 31q6 2 11 2
q22 0 30 -22q2 -6 2 -11q0 -22 -21 -30q-6 -2 -11 -2q-23 0 -31 22q-2 5 -2 10z" />
    <glyph glyph-name="questiondown" unicode="&#xbf;" horiz-adv-x="445" 
d="M412 78q-58 -73 -138 -88q-24 -4 -50 -4q-125 0 -180 94q-30 51 -32 118q0 40 11.5 74t30 55.5t40.5 38t44.5 25t41 14t30.5 7.5l11 1v193h50v-242q-157 -3 -197 -100q-12 -30 -12 -66q0 -89 66 -133q41 -28 97 -28q96 1 153 76zM278 679q0 -23 -22 -31q-6 -2 -11 -2
q-22 0 -30 22q-2 6 -2 11q0 22 21 30q6 2 11 2q23 0 31 -22q2 -5 2 -10z" />
    <glyph glyph-name="quotedbl" unicode="&#x22;" horiz-adv-x="236" 
d="M40 465v271h52v-271h-52zM145 465v271h51v-271h-51z" />
    <glyph glyph-name="quotedbl.alt" horiz-adv-x="233" 
d="M39 476v224h51v-224h-51zM143 476v224h51v-224h-51z" />
    <glyph glyph-name="quotedblbase" unicode="&#x201e;" horiz-adv-x="245" 
d="M116 -23l37 152h51l-37 -152h-51zM23 -23l37 152h51l-37 -152h-51z" />
    <glyph glyph-name="quotedblleft" unicode="&#x201c;" horiz-adv-x="233" 
d="M38 465v271h52v-271h-52zM143 465v271h51v-271h-51z" />
    <glyph glyph-name="quotedblright" unicode="&#x201d;" horiz-adv-x="233" 
d="M38 465v271h52v-271h-52zM143 465v271h51v-271h-51z" />
    <glyph glyph-name="quoteleft" unicode="&#x2018;" horiz-adv-x="129" 
d="M38 465v271h52v-271h-52z" />
    <glyph glyph-name="quoteright" unicode="&#x2019;" horiz-adv-x="129" 
d="M38 465v271h52v-271h-52z" />
    <glyph glyph-name="quotesinglbase" unicode="&#x201a;" horiz-adv-x="129" 
d="M38 465v271h52v-271h-52z" />
    <glyph glyph-name="quotesingle" unicode="'" horiz-adv-x="132" 
d="M40 465v271h52v-271h-52z" />
    <glyph glyph-name="r" unicode="r" horiz-adv-x="250" 
d="M42 0v523h52v-82q20 42 67 66q31 16 64 16h6l-13 -50q-50 0 -90 -60q-33 -50 -33 -105v-308h-53z" />
    <glyph glyph-name="racute" unicode="&#x155;" horiz-adv-x="250" 
d="M116 584l37 152h51l-52 -152h-36zM42 0v523h52v-82q20 42 67 66q31 16 64 16h6l-13 -50q-50 0 -90 -60q-33 -50 -33 -105v-308h-53z" />
    <glyph glyph-name="radical" unicode="&#x221a;" horiz-adv-x="569" 
d="M6 513l168 59l193 -479l139 726h53l-153 -821h-59l-208 512l-119 -42z" />
    <glyph glyph-name="rcaron" unicode="&#x159;" horiz-adv-x="250" 
d="M43 736h42l52 -106l51 106h42l-75 -152h-36zM42 0v523h52v-82q20 42 67 66q31 16 64 16h6l-13 -50q-50 0 -90 -60q-33 -50 -33 -105v-308h-53z" />
    <glyph glyph-name="registered" unicode="&#xae;" horiz-adv-x="387" 
d="M170 517v21h17q42 1 43 32q-6 34 -52 36h-8v21q69 0 80 -38q2 -9 2 -19q-1 -31 -20 -42q17 -9 20 -36l5 -60h-22l-4 49q-2 30 -31 34q-11 2 -30 2zM185 367q-76 4 -121 66q-31 43 -31 95q0 81 64 129q40 29 88 32v-26q-66 -4 -103 -60q-23 -34 -23 -75q0 -69 55 -109
q32 -23 71 -26v-26zM201 367v26q67 4 104 60q23 35 23 75q0 70 -57 110q-32 23 -70 25v26q75 -4 120 -64q33 -43 33 -97q0 -80 -63 -128q-41 -30 -90 -33zM134 432v195h24v-195h-24z" />
    <glyph glyph-name="ring" unicode="&#x2da;" horiz-adv-x="244" 
d="M51 526q0 42 38 63q16 8 33 8q42 0 63 -38q8 -16 8 -33q0 -42 -38 -63q-16 -8 -33 -8q-42 0 -63 38q-8 16 -8 33zM90 526q0 -24 22 -31q6 -1 10 -1q24 0 31 22q1 6 1 10q0 24 -22 31q-6 1 -10 1q-24 0 -31 -22q-1 -6 -1 -10z" />
    <glyph glyph-name="s" unicode="s" horiz-adv-x="420" 
d="M20 138l50 9q0 -52 55 -85q30 -17 59 -18v-49q-87 0 -136 65q-28 38 -28 78zM24 371q0 91 81 134q38 20 77 20v-50q-47 0 -81 -39q-26 -29 -26 -65q0 -35 49 -54q19 -8 151 -40q7 -2 13 -3q105 -27 112 -108v-10q0 -89 -73 -134q-45 -27 -101 -27v49q52 0 91 37
q32 31 32 74q0 45 -83 71q-5 2 -127 31q-9 2 -16 4q-88 26 -98 92q-1 9 -1 18zM225 474v51q84 0 134 -63q32 -39 32 -82l-50 -8q0 59 -65 89q-28 13 -51 13z" />
    <glyph glyph-name="sacute" unicode="&#x15b;" horiz-adv-x="420" 
d="M185 585l37 152h51l-52 -152h-36zM20 138l50 9q0 -52 55 -85q30 -17 59 -18v-49q-87 0 -136 65q-28 38 -28 78zM24 371q0 91 81 134q38 20 77 20v-50q-47 0 -81 -39q-26 -29 -26 -65q0 -35 49 -54q19 -8 151 -40q7 -2 13 -3q105 -27 112 -108v-10q0 -89 -73 -134
q-45 -27 -101 -27v49q52 0 91 37q32 31 32 74q0 45 -83 71q-5 2 -127 31q-9 2 -16 4q-88 26 -98 92q-1 9 -1 18zM225 474v51q84 0 134 -63q32 -39 32 -82l-50 -8q0 59 -65 89q-28 13 -51 13z" />
    <glyph glyph-name="scaron" unicode="&#x161;" horiz-adv-x="420" 
d="M112 737h42l52 -106l51 106h42l-75 -152h-36zM24 138l50 9q0 -52 55 -85q30 -17 59 -18v-49q-87 0 -136 65q-28 38 -28 78zM28 371q0 91 81 134q38 20 77 20v-50q-47 0 -81 -39q-26 -29 -26 -65q0 -35 49 -54q19 -8 151 -40q7 -2 13 -3q105 -27 112 -108v-10
q0 -89 -73 -134q-45 -27 -101 -27v49q52 0 91 37q32 31 32 74q0 45 -83 71q-5 2 -127 31q-9 2 -16 4q-88 26 -98 92q-1 9 -1 18zM229 474v51q84 0 134 -63q32 -39 32 -82l-50 -8q0 59 -65 89q-28 13 -51 13z" />
    <glyph glyph-name="section" unicode="&#xa7;" horiz-adv-x="602" 
d="M54 355q1 96 75 148q-14 30 -14 72q0 121 104 167q41 18 85 18h100v-50h-73q-136 -1 -160 -96q-4 -17 -4 -36q2 -76 110 -110v-61q-28 6 -39 10q-54 21 -77 44q-53 -42 -54 -110q0 -74 105 -106q25 -8 65 -16v-54q-88 18 -93 20l-6 2q-82 33 -107 80q-17 33 -17 78z
M197 -86h70q116 -1 154 72q14 29 14 64q-2 82 -111 113v57q26 -6 36 -9q59 -17 87 -49q47 47 48 108q0 84 -113 115q-24 7 -58 13v56q14 -4 42 -10q39 -8 54 -13q92 -28 117 -95q11 -31 11 -70q-1 -89 -71 -152q10 -28 10 -68q0 -88 -66 -141q-53 -42 -127 -42h-97v51z" />
    <glyph glyph-name="semicolon" unicode=";" horiz-adv-x="211" 
d="M50 -23l37 152h50l-37 -152h-50zM96 317q0 23 22 31q6 2 11 2q22 0 30 -22q2 -6 2 -11q0 -22 -21 -30q-6 -2 -11 -2q-23 0 -31 22q-2 5 -2 10z" />
    <glyph glyph-name="seven" unicode="7" horiz-adv-x="440" 
d="M438 649l-399 -1v52h399v-51zM210 0q26 287 128 522q18 43 38 81h56q-128 -239 -164 -577q-1 -14 -2 -26h-56z" />
    <glyph glyph-name="six" unicode="6" horiz-adv-x="530" 
d="M245 -1v50q-89 1 -126 93q-14 37 -14 69q0 91 58 137q35 26 82 27v50q-96 0 -144 -73q-6 -9 -10 -17q0 267 132 307q11 3 22 5v50q-149 -13 -192 -207q-14 -65 -14 -140q0 -247 100 -318q44 -31 106 -33zM300 -1q86 1 143 70q49 61 49 143q0 115 -73 174q-50 39 -119 39
v-48q71 -2 111 -61q29 -43 29 -105q0 -68 -46 -118q-39 -43 -94 -44v-50zM422 565l43 29q-32 67 -102 93q-32 11 -64 11v-50q79 0 118 -72q3 -6 5 -11z" />
    <glyph glyph-name="slash" unicode="/" horiz-adv-x="309" 
d="M41 -14l175 739h51l-174 -739h-52z" />
    <glyph glyph-name="space" unicode=" " horiz-adv-x="240" 
 />
    <glyph glyph-name="sterling" unicode="&#xa3;" horiz-adv-x="383" 
d="M20 318v47h61v183q0 84 57 128q37 28 88 28h2q34 0 60 -11q51 -22 74 -72l-44 -21q-34 53 -86 54q-60 0 -87 -50q-12 -24 -12 -53v-185h145v-47h-145v-272h229v-47h-281v318h-61z" />
    <glyph glyph-name="summation" unicode="&#x2211;" horiz-adv-x="573" 
d="M161 650l-36 44v9h403v-53h-367zM30 -140v54l281 377l-281 365v47h32l317 -413l-282 -377l431 1v-54h-498z" />
    <glyph glyph-name="t" unicode="t" horiz-adv-x="261" 
d="M19 462v51h64v189h52v-189h64v-51h-64v-301q0 -83 56 -103q23 -7 53 -7h4l12 -51h-21q-121 1 -147 94q-9 32 -9 76v292h-64z" />
    <glyph glyph-name="tcaron" unicode="&#x165;" horiz-adv-x="290" 
d="M189 556l37 152h51l-37 -152h-51zM19 462v51h64v189h52v-189h64v-51h-64v-301q0 -83 56 -103q23 -7 53 -7h4l12 -51h-21q-121 1 -147 94q-9 32 -9 76v292h-64z" />
    <glyph glyph-name="thorn" unicode="&#xfe;" horiz-adv-x="422" 
d="M30 -182v882h51v-882h-51zM126 468v48h102q90 0 141 -68q27 -38 27 -73v-236q0 -52 -45 -94q-47 -45 -119 -45h-99v48h101q67 1 97 50q15 26 15 58v209q0 63 -58 91q-27 12 -60 12h-102z" />
    <glyph glyph-name="three" unicode="3" horiz-adv-x="508" 
d="M271 -3v49q100 1 134 75q13 30 13 68q-3 134 -158 135v48q157 1 158 135q0 99 -80 131q-30 12 -67 12v50q116 0 169 -84q29 -47 29 -107q-1 -109 -78 -161q76 -58 78 -161q0 -106 -79 -157q-50 -33 -119 -33zM40 176l47 10q16 -106 100 -134q17 -6 29 -6v-49
q-93 6 -145 87q-27 43 -31 92zM40 520q7 84 71 138q45 37 105 42v-50q-32 0 -66 -25q-51 -39 -63 -115z" />
    <glyph glyph-name="threequarters" unicode="&#xbe;" horiz-adv-x="618" 
d="M156 346v36q53 0 62 47q2 8 2 16q0 43 -36 57q-14 5 -31 5h-11v32h11q58 0 66 51q1 6 1 11q0 51 -45 61q-10 2 -19 2v36q65 0 90 -53q9 -21 9 -44q-1 -54 -39 -80q39 -27 39 -80q0 -60 -48 -85q-23 -12 -51 -12zM514 0v350h37v-254h27v-35h-27v-61h-37zM350 61v35
l141 240v-70l-99 -170h99v-35h-141zM39 437l34 8q6 -54 49 -62q4 -1 7 -1v-36q-56 4 -80 56q-8 17 -10 35zM39 608q5 54 49 79q19 11 41 13v-36q-29 0 -45 -28q-9 -15 -11 -35zM118 0l432 700h42l-432 -700h-42z" />
    <glyph glyph-name="threesuperior" unicode="&#xb3;" horiz-adv-x="226" 
d="M118 387v30q37 2 52 32q5 12 5 25q0 36 -33 50q-13 5 -29 5v29q47 0 60 40q2 8 2 16q0 42 -40 53q-8 3 -17 3v30q55 0 78 -45q10 -19 10 -40q-1 -49 -33 -72q33 -23 33 -70q0 -49 -41 -73q-22 -13 -47 -13zM19 463l29 7q1 -8 3.5 -15t5 -12t6 -9t7 -6.5t7 -4.5t6.5 -3
t5.5 -2t3.5 -1h2v-30q-49 4 -68 51q-5 13 -7 25zM19 624q5 47 44 67q15 8 31 9v-30q-19 0 -34 -20q-9 -14 -12 -32z" />
    <glyph glyph-name="tilde" unicode="&#x2dc;" horiz-adv-x="333" 
d="M26 132v47q39 22 70 22q25 0 71 -23q35 -18 60 -18q35 1 80 28v-46q-46 -28 -84 -28q-27 0 -74 23q-34 17 -57 17q-31 -1 -66 -22z" />
    <glyph glyph-name="tml_A" unicode="&#xb85;" horiz-adv-x="983" 
d="M333 460h-51l8 -38q30 -102 125 -126q27 -7 57 -7q83 0 135 53q31 31 34 67l-39 41q0 -62 -60 -93q-33 -17 -70 -17q-84 0 -121 62q-15 26 -18 58zM284 516h51q0 54 63 93q58 35 140 35q139 0 182 -129q17 -51 17 -119v-159h-274v-50h274v-118q0 -96 -60 -131
q-24 -13 -51 -14h-161v-51h162q90 0 135 82q27 50 27 112l-1 120h86v-294h50v685h-50v-341h-86v156q0 197 -119 269q-56 33 -131 33q-176 0 -234 -109q-20 -36 -20 -70zM59 72q0 -103 78 -160q55 -39 125 -39h148v51h-149q-67 0 -112 44q-40 41 -40 104q0 32 13.5 55.5
t30 34t40.5 17t35.5 7t25.5 0.5h1h154v52h-136q-189 0 -211 -131q-3 -16 -3 -35z" />
    <glyph glyph-name="tml_Aa" unicode="&#xb86;" horiz-adv-x="1225" 
d="M333 460h-51l8 -38q30 -102 125 -126q27 -7 57 -7q83 0 135 53q31 31 34 67l-39 41q0 -62 -60 -93q-33 -17 -70 -17q-84 0 -121 62q-15 26 -18 58zM284 516h51q0 54 63 93q58 35 140 35q139 0 182 -129q17 -51 17 -119v-159h-274v-50h274v-118q0 -96 -60 -131
q-24 -13 -51 -14h-161v-51h162q90 0 135 82q27 50 27 112l-1 120h86v-294h50v685h-50v-341h-86v156q0 197 -119 269q-56 33 -131 33q-176 0 -234 -109q-20 -36 -20 -70zM59 72q0 -103 78 -160q55 -39 125 -39h148v51h-149q-67 0 -112 44q-40 41 -40 104q0 32 13.5 55.5
t30 34t40.5 17t35.5 7t25.5 0.5h1h154v52h-136q-189 0 -211 -131q-3 -16 -3 -35zM683 -173v-50h267q188 0 209 147q3 21 3 45v52q0 132 -89 160q-31 9 -78 9v-50q76 0 99 -37q17 -28 17 -82v-56q0 -117 -103 -134q-22 -3 -48 -3z" />
    <glyph glyph-name="tml_Above" unicode="&#xbf8;" horiz-adv-x="1451" 
d="M517 0q66 0 109 63q31 48 31 107v30q0 82 -59 129q-37 30 -81 30v-51q50 0 74 -52q14 -31 14 -73q0 -87 -51 -120q-18 -12 -37 -12v-51zM307 169q0 -71 52 -124q45 -45 103 -45v51q-48 0 -80 46q-24 35 -24 84q0 97 71 121q17 6 33 6v51h-98q16 117 87 168q38 27 84 27
v51q-118 0 -182 -111q-33 -59 -43 -135h-7q-156 0 -223 -86q-40 -53 -40 -131v-155q0 -66 51 -108q32 -27 68 -27v47q-24 0 -47 24q-25 28 -25 71q0 68 54 89q11 4 18 4v47q-39 -1 -72 -30v37q0 127 125 160q40 11 91 11h4v-10v-95v-8v-30zM586 554q107 0 150 -95
q20 -46 21 -105v-269q0 -26 -15 -31q-11 -3 -53 -3v-51h387v51h-268v304q-1 116 -67 187q-59 63 -155 63v-51zM929 334q0 -145 93 -170q24 -6 54 -6v50q-61 0 -82 40q-14 27 -14 72v114q0 114 75 121q9 1 21 1v51q-119 0 -141 -110q-6 -29 -6 -64v-99zM1363 0h48v209h-136
v204q-1 193 -146 194v-51q57 0 78 -43q17 -36 17 -100v-204h-95v-51h95v-30h51v30h88v-106h-88v36h-51v-36h-95v-51h95v-179h51v178h88zM191 87q28 0 51 -27q21 -27 21 -66q0 -77 -56 -93q-9 -2 -16 -2v-47q65 0 100 61q18 33 18 72v21q0 52 -42 94q-34 34 -76 34v-47z" />
    <glyph glyph-name="tml_Ai" unicode="&#xb90;" horiz-adv-x="902" 
d="M262 -180v51q-71 0 -114 60q-34 47 -34 115q0 111 78 138q19 7 39 7h45v51h-38q-113 0 -156 -94q-18 -39 -18 -82v-44q0 -74 54 -135q59 -66 144 -67zM316 -180q138 1 180 72q33 -72 126 -72v51q-83 0 -97 96q-3 19 -3 40v111l-50 -1v-111q0 -113 -98 -131q-24 -4 -58 -4
v-51zM19 517h52q0 73 82 109q51 21 120 21q148 0 186 -150q10 -44 13 -101l1 -31h50v99q0 148 98 170q3 1 5 1v51q-99 -11 -136 -107q-2 -4 -3 -7q-63 123 -213 124q-176 0 -236 -113q-19 -36 -19 -66zM692 192q82 0 124 67q32 51 32 128v110q0 114 -86 164q-37 21 -82 25
v-51q85 -11 109 -83q8 -25 8 -55v-82q-2 -171 -105 -172v-51zM208 290q83 0 135 53q31 31 34 67l-39 41q0 -62 -60 -93q-33 -17 -70 -17q-88 0 -125 68q-14 27 -14 52h-51q0 -37 24 -82q50 -88 166 -89zM676 -180q87 0 133 78q26 46 26 99v121h-51v-121q0 -76 -54 -110
q-25 -16 -54 -16v-51zM345 191h282v51h-282v-51z" />
    <glyph glyph-name="tml_Anusvara" unicode="&#xb82;" horiz-adv-x="228" 
d="M67 851q0 -28 26 -39q8 -3 16 -3q28 0 39 26q3 8 3 16q0 28 -26 39q-8 3 -16 3q-28 0 -39 -26q-3 -8 -3 -16zM37 851q0 41 36 63q18 10 36 10q41 0 63 -37q10 -18 10 -36q0 -41 -37 -63q-18 -10 -36 -10q-41 0 -62 37q-10 18 -10 36z" />
    <glyph glyph-name="tml_Au" unicode="&#xb94;" horiz-adv-x="1737" 
d="M869 169q0 -71 52 -124q45 -45 102 -45v51q-46 0 -78 45q-26 36 -26 85q0 94 69 120q18 7 35 7v51q-57 -1 -102 -39q6 127 74 193q43 41 100 41v50q-113 0 -177 -107q-49 -82 -49 -192v-98v1v-9v-30zM1078 0q66 0 109 63q32 48 32 107v29q0 82 -59 130q-37 30 -82 30v-51
q50 0 74 -51q14 -31 14 -74q0 -88 -51 -121q-18 -11 -37 -11v-51zM1149 554q102 0 140 -99q17 -45 17 -101v-354h52l-1 337q1 179 64 210q16 7 35 7v50q-97 -1 -131 -107q-56 106 -176 107v-50zM1573 0h51v554h74v50h-188v-50h63v-554zM447 644q145 0 233 -106
q57 -72 58 -140v-230q-1 -35 -26 -58t-59.5 -27t-68.5 2t-58 28t-24 53v184h-51v-325q0 -78 92 -122q72 -35 177 -35v51q-110 -2 -174 39q-44 29 -45 72v36q60 -46 147 -35q88 10 124 70q17 29 17 64v233q0 73 -55 152q-87 125 -242 143q-22 2 -45 2v-51zM40 199
q0 -71 52 -124q45 -44 102 -45v51q-46 0 -78 45q-26 36 -26 85q0 97 71 121q17 6 33 6v51q-55 -1 -98 -36q14 171 128 245q70 46 170 46v51q-212 0 -303 -171q-51 -96 -51 -214v-78v-3v-30zM249 30q65 0 108 61q33 48 33 109v29q0 83 -59 131q-37 29 -82 29v-51q50 0 74 -51
q15 -31 15 -74q0 -87 -51 -120q-19 -12 -38 -12v-51zM186 -124q37 -96 124 -125q83 -27 158 21q42 27 67 73l-46 26q-38 -71 -109 -77q-70 -7 -118 52q-15 20 -25 43z" />
    <glyph glyph-name="tml_AuLengthmark" unicode="&#xbd7;" horiz-adv-x="908" 
d="M40 169q0 -71 52 -124q45 -45 103 -45v51q-47 0 -79 45q-26 37 -26 85q0 95 71 121q17 6 34 6v51q-58 -1 -103 -39q6 126 73 191q44 43 101 43v51q-114 0 -178 -107q-48 -82 -48 -193v-98v1v-9v-30zM250 0q65 0 108 61q32 49 32 109v30q0 82 -59 129q-37 30 -81 30v-51
q50 0 74 -53q13 -30 13 -72q0 -88 -51 -121q-17 -11 -36 -11v-51zM320 554q103 0 140 -100q17 -44 17 -100v-17v-12l1 -325h51l-1 337q1 179 64 210q16 7 35 7v51q-97 -1 -131 -108q-55 107 -176 108v-51zM745 0h50v554h74v51h-188v-51h64v-554z" />
    <glyph glyph-name="tml_CI" horiz-adv-x="797" 
d="M239 -1v51q-80 0 -121 48q-24 27 -24 61h-51q0 -72 54 -117q52 -42 142 -43zM292 -1q141 0 174 123q9 32 9 69v129h102v51h-102v173h147v50h-147q2 120 89 121v50q-137 -2 -139 -171h-76v-50h76v-173h-178q-20 0 -29 -1l1 174h76v50h-128v-233q-99 -26 -120 -113
q-5 -21 -5 -43h52q0 99 111 113q18 2 36 2h184v-133q0 -112 -93 -133q-19 -4 -40 -4v-51zM618 715q73 0 85 -74q3 -20 3 -51v-589h51v592q-2 171 -139 172v-50z" />
    <glyph glyph-name="tml_CI.alt" horiz-adv-x="882" 
d="M239 -1v51q-80 0 -121 48q-23 28 -23 61h-51q0 -72 55 -117q52 -42 140 -43zM292 -1q143 0 176 124q8 32 8 68v129h102v51h-102v173h147v50h-273v-50h76v-173h-178q-20 0 -29 -1l1 174h76v50h-128v-233q-30 -8 -53 -22q-21 93 -9 168h-58l-3 -67q2 -84 24 -144
q-26 -39 -26 -91h52q0 104 123 114q11 1 24 1h184v-133q0 -115 -97 -134q-17 -3 -37 -3v-51zM63 573l61 -3q42 117 165 168q64 26 134 27v50q-196 0 -306 -138q-45 -57 -53 -100q-1 -3 -1 -4zM477 765q151 0 235 -89q78 -84 78 -233v-384h52v387q-1 243 -175 329
q-82 40 -190 40v-50z" />
    <glyph glyph-name="tml_CIi" horiz-adv-x="767" 
d="M236 -1v50q-79 0 -120 48q-24 27 -24 61h-51q0 -72 55 -117q52 -41 140 -42zM289 -1q143 0 176 124q8 32 8 68v129h102v51h-102v100h1v73h146v50h-146q-55 115 -3 198q35 54 91 62q7 1 13 1q83 0 99 -61q2 -9 2 -17q0 -52 -47 -67q-11 -3 -20 -3q-28 0 -48 23q-7 8 -8 15
l-31 -38q13 -28 51 -42q17 -7 33 -7q78 0 109 62q27 56 -3 113q-33 67 -117 72h-10q-95 0 -150 -75q-58 -80 -30 -186q7 -26 18 -50h-76v-50h76v-173h-178q-20 0 -29 -1l1 174h76v50h-128v-233q-99 -26 -120 -113q-5 -21 -5 -43h52q0 104 123 114q11 1 24 1h184v-133
q0 -117 -99 -135q-17 -3 -35 -3v-50z" />
    <glyph glyph-name="tml_CIi.alt" horiz-adv-x="743" 
d="M240 -1v51q-80 0 -121 48q-23 28 -23 61h-51q0 -72 55 -117q52 -42 140 -43zM293 -1q143 0 176 124q8 32 8 68v129h102v51h-102v173h147v50h-273v-50h76v-173h-178q-20 0 -29 -1l1 174h76v50h-128v-233q-22 -6 -40 -15q-50 203 17 340q39 80 110 115q86 42 198 44
q64 1 117 -15q54 -15 76 -59q11 -25 6 -48q-13 -52 -59 -57q-11 -1 -20 1q-24 6 -41 33q-8 13 -6 21l-38 -33q14 -43 60 -64q10 -4 20 -7q68 -16 111 38q28 37 28 84q-3 79 -79 122q-23 12 -51 20q-164 41 -311 -19q-21 -9 -39 -19q-120 -63 -157 -218q-34 -144 15 -310
q-42 -44 -42 -110h51q0 100 116 113q15 2 32 2h184v-133q0 -115 -97 -134q-17 -3 -37 -3v-51z" />
    <glyph glyph-name="tml_CU" horiz-adv-x="719" 
d="M40 206h52q0 104 125 113q11 1 22 1h169v-133q0 -109 -79 -132q-19 -5 -40 -5v-51q133 0 162 126q7 31 7 66v129h16v51h-16v173h148v51h-258v-51h60v-173h-163q-20 0 -29 -1l1 174h77v51h-129v-234q-98 -26 -120 -113q-5 -21 -5 -42zM236 -1v51q-67 0 -111 42
q-33 32 -33 76h-52q0 -91 68 -136q50 -32 128 -33zM597 0h51v320h46v51h-179v-51h82v-320z" />
    <glyph glyph-name="tml_CUu" horiz-adv-x="1120" 
d="M551 -208v51h-317q-71 0 -96 95q-10 40 -10 91v239q0 99 73 124q19 6 39 6v51q-80 0 -126 -57q-37 -47 -37 -119v-243q0 -227 144 -237q7 -1 14 -1h316zM606 -208h313q88 0 129 65q19 31 19 64v143q0 126 -137 148q-13 2 -26 3v-51q63 0 93 -42q19 -26 19 -64v-130
q0 -45 -46 -71q-25 -14 -52 -14h-312v-51zM465 -1q142 0 176 121q9 33 9 71v129h168v-320h50v320h60v50h-278v174h186v51h-312v-51h75v-174h-175q-22 0 -32 -1l1 175h77v51h-128v-235q-107 -28 -123 -132q-2 -15 -2 -29h50q0 80 81 110q32 11 68 11h183v-133
q0 -110 -91 -132q-20 -5 -43 -5v-51zM412 -1v51q-134 0 -144 114v2h-51q0 -100 81 -143q47 -23 114 -24z" />
    <glyph glyph-name="tml_Ca" unicode="&#xb9a;" horiz-adv-x="678" 
d="M236 -1v51q-80 0 -121 48q-23 28 -23 61h-51q0 -72 55 -117q52 -42 140 -43zM289 -1q143 0 176 124q8 32 8 68v129h102v51h-102v173h147v50h-273v-50h75v-173h-177q-20 0 -29 -1l1 174h76v50h-128v-233q-99 -26 -120 -113q-5 -21 -5 -43h51q0 100 116 113q15 2 32 2h183
v-133q0 -112 -93 -133q-19 -4 -40 -4v-51z" />
    <glyph glyph-name="tml_Credit" unicode="&#xbf7;" horiz-adv-x="1041" 
d="M761 301q64 0 77 -78q3 -13 3 -26v-149q-2 -8 -33 -12v-35h129v35h-61v161q-1 86 -53 121q-27 18 -62 18v-35zM40 169q0 -71 52 -124q45 -44 102 -45v51q-46 0 -78 45q-26 36 -26 85q0 97 71 121q17 6 33 6v51q-57 -1 -102 -39q6 123 75 186q45 40 105 40v51
q-117 0 -183 -108q-49 -81 -49 -190v-92v1v-9v-30zM249 0q65 0 108 61q33 48 33 109v29q0 84 -59 131q-37 29 -82 29v-51q50 0 74 -51q15 -31 15 -74q0 -87 -51 -120q-19 -12 -38 -12v-51zM714 0q50 0 73 50q10 21 10 41v21q0 42 -36 71q-22 17 -47 17v-35q24 0 38 -25
q10 -17 10 -40q0 -55 -39 -64q-5 -1 -9 -1v-35zM601 125v-3v-38q0 -35 32 -64q23 -20 50 -20v35q-25 0 -39 27q-8 17 -8 38q0 51 38 63q5 2 9 2v35q-23 -1 -45 -14q1 89 66 111q15 4 28 4v35q-102 0 -125 -110q-5 -21 -6 -44h-65v362h101v51h-310v-51h159v-544h50v148h65
v-23zM967 1h34v329h-34v-329z" />
    <glyph glyph-name="tml_Day" unicode="&#xbf3;" horiz-adv-x="932" 
d="M249 0q66 0 109 63q32 48 32 107v30q0 85 -60 131q-37 28 -81 28v-51q50 0 74 -52q14 -31 14 -73q0 -89 -51 -121q-18 -11 -37 -11v-51zM40 169q0 -75 54 -127q43 -42 100 -42v51q-46 0 -78 45q-26 36 -26 85q0 96 71 121q16 6 33 6v51q-59 -1 -102 -39q5 125 72 191
q45 43 104 43v51q-120 0 -183 -113q-45 -81 -45 -190v-95v-8v-30zM319 554q107 0 150 -95q20 -46 21 -105v-269q0 -26 -15 -31q-11 -3 -53 -3v-51h470v51h-351v304q-1 116 -67 187q-59 63 -155 63v-51z" />
    <glyph glyph-name="tml_Debit" unicode="&#xbf6;" horiz-adv-x="604" 
d="M221 -211v-47q109 0 128 105q4 23 5 55h210v479h-50v-433h-160v539h-50v-327q0 -96 -53 -108q-12 -2 -29 -2v-50q52 0 72 9q6 2 10 5v-66h-148q-81 0 -107 -55q-9 -19 -9 -40v-9q1 -75 76 -96q20 -6 39 -6h13v47h-13q-48 0 -62 38q-12 35 15 59q19 16 48 16h148v-2
q0 -97 -60 -109q-11 -2 -23 -2zM49 146q0 -84 52 -124q30 -22 67 -22v50q-44 0 -61 48q-7 21 -7 48v449h-51v-449z" />
    <glyph glyph-name="tml_E" unicode="&#xb8e;" horiz-adv-x="670" 
d="M42 173q0 -78 55 -131q44 -42 100 -42v51q-48 0 -80 46q-25 35 -25 84q0 97 72 121q17 6 33 6v51q-58 -1 -103 -39q7 124 76 186q45 40 104 40v51q-117 0 -183 -108q-49 -81 -49 -190v-92v1v-9v-26zM252 0q65 0 108 61q33 49 33 109v29q0 89 -62 134q-36 26 -79 26v-51
q50 0 74 -52q14 -31 14 -73q0 -87 -51 -120q-18 -12 -37 -12v-51zM488 0h51v544h102v51h-312v-51h159v-544z" />
    <glyph glyph-name="tml_Ee" unicode="&#xb8f;" horiz-adv-x="670" 
d="M42 173q0 -78 55 -131q44 -42 100 -42v51q-48 0 -80 46q-25 35 -25 84q0 97 72 121q17 6 33 6v51q-58 -1 -103 -39q7 124 76 186q45 40 104 40v51q-117 0 -183 -108q-49 -81 -49 -190v-92v1v-9v-26zM252 0q65 0 108 61q33 49 33 109v29q0 89 -62 134q-36 26 -79 26v-51
q50 0 74 -52q14 -31 14 -73q0 -87 -51 -120q-18 -12 -37 -12v-51zM329 544h159v-527l-160 -193h63l148 176v544h102v51h-312v-51z" />
    <glyph glyph-name="tml_Eight" unicode="&#xbee;" horiz-adv-x="983" 
d="M334 460h-51l8 -38q30 -102 125 -126q27 -7 57 -7q83 0 135 53q31 31 34 67l-39 41q0 -62 -60 -93q-32 -17 -70 -17q-84 0 -121 62q-15 26 -18 58zM285 516h51q0 54 63 93q58 35 140 35q138 0 182 -126q18 -52 18 -122v-159h-275v-50h275v-118q0 -96 -61 -131
q-23 -13 -51 -14h-161v-51h162q90 0 135 82q27 50 27 112l-1 120h86v-294h51v685h-51v-341h-86v156q0 197 -119 269q-56 33 -131 33q-176 0 -234 -109q-20 -36 -20 -70zM60 72q0 -103 78 -160q55 -39 125 -39h148v51h-148q-67 0 -112 44q-40 41 -40 104q0 32 13.5 55.5
t29.5 34t40 17t35.5 7t25.5 0.5h1h154v52h-136q-189 0 -211 -131q-3 -16 -3 -35z" />
    <glyph glyph-name="tml_Five" unicode="&#xbeb;" horiz-adv-x="918" 
d="M49 64q0 -132 92 -185q45 -26 102 -26h211v50h-211q-88 0 -124 71q-19 38 -19 89v224q0 120 90 153q27 10 58 10v51q-100 0 -155 -67q-44 -54 -44 -142v-228zM509 -97v-50h166q105 0 159 78q28 41 28 84v174q0 122 -129 147q-17 3 -34 4v-51q59 0 90 -39q22 -28 22 -69
v-155q0 -57 -55 -96q-38 -27 -82 -27h-165zM308 1h51v543h96v51h-147v-594zM592 1h51l2 543h112v51h-248v-51h83v-543z" />
    <glyph glyph-name="tml_Four" unicode="&#xbea;" horiz-adv-x="837" 
d="M288 -1q142 0 176 121q9 33 9 71v129h319l1 167h-52v-116h-268v173h147v51h-273v-51h75v-173h-177q-20 0 -29 -1l1 174h76v51h-128v-234q-95 -27 -119 -116q-6 -23 -6 -46v-29q0 -81 57 -129q51 -41 138 -42v51q-131 0 -144 112q-1 13 -1 26q0 113 114 130q17 2 35 2h183
v-133q0 -110 -91 -132q-20 -5 -43 -5v-51z" />
    <glyph glyph-name="tml_HI" horiz-adv-x="1464" 
d="M1214 307h51v166q0 72 -50 108q-13 10 -28 15q0 94 45 115q18 8 40 8v51q-120 0 -134 -133q-2 -16 -2 -33v-51q53 0 71 -51q6 -19 6 -44zM322 553q107 0 150 -95q20 -46 21 -104v-269q0 -26 -13 -30q-12 -4 -55 -4v-51h234v51h-114v304q-1 117 -68 187q-59 62 -155 62
v-51zM885 553q73 -2 74 -97l1 -456h51l-2 457q0 85 63 95q7 1 13 1v51q-65 -1 -100 -42q-35 42 -100 42v-51zM43 169q0 -71 52 -124q45 -45 103 -45v51q-48 0 -80 46q-24 36 -24 84q0 95 70 121q18 6 34 6v51q-58 -1 -102 -38q6 126 74 191q44 41 101 41v51
q-120 0 -183 -115q-45 -81 -45 -190v-92v1v-9v-30zM253 0q66 0 109 63q31 48 31 107v30q0 82 -59 129q-37 30 -81 30v-51q50 0 74 -51q14 -31 14 -74q0 -88 -51 -121q-18 -11 -37 -11v-51zM712 0h51l-1 470q0 51 33 73q16 10 36 10v51q-77 0 -108 -72q-11 -28 -11 -55v-477z
M1266 260h-52l2 -191q1 -94 -53 -136q-27 -20 -60 -20h-871q-93 0 -117 -83q-11 -37 -11 -93h51q0 109 46 124q10 3 22 3h885q102 2 140 99q18 45 18 101v196zM1326 770v-51q69 0 81 -66q4 -21 4 -59v-592h50v595q0 151 -100 170q-17 3 -35 3z" />
    <glyph glyph-name="tml_HIi" horiz-adv-x="1417" 
d="M1212 307h52v166q0 71 -48 107q-15 10 -31 16q-54 118 -1 201q35 55 92 61q6 1 11 1q84 0 99 -61q2 -9 2 -16q0 -53 -48 -68q-10 -3 -19 -3q-29 0 -48 23q-7 9 -7 15l-32 -37q13 -28 50 -43q17 -7 34 -7q78 0 109 62q27 56 -3 113q-33 67 -117 72h-10q-95 0 -150 -75
q-59 -81 -30 -192q7 -25 18 -49v-40q53 0 71 -51q6 -19 6 -44v-151zM321 553q107 0 150 -95q20 -46 21 -104v-269q0 -26 -15 -31q-11 -3 -53 -3v-51h234v51h-115v304q-1 119 -69 189q-59 60 -153 60v-51zM884 553q72 -2 73 -97l2 -456h51l-2 457q0 85 63 95q7 1 13 1v51
q-65 -1 -100 -42q-35 42 -100 42v-51zM42 169q0 -71 52 -124q45 -45 103 -45v51q-48 0 -80 46q-24 36 -24 84q0 95 70 121q18 6 34 6v51q-58 -1 -102 -38q5 125 73 190q44 42 102 42v51q-120 0 -183 -115q-45 -81 -45 -190v-92v1v-9v-30zM252 0q66 0 109 63q31 48 31 107v30
q0 82 -59 129q-37 30 -81 30v-51q50 0 74 -51q14 -31 14 -74q0 -88 -51 -121q-18 -11 -37 -11v-51zM711 0h51l-1 470q0 55 36 75q15 8 33 8v51q-77 0 -108 -72q-11 -28 -11 -55v-477zM1265 260h-52l2 -191q1 -94 -53 -136q-27 -20 -60 -20h-871q-93 0 -117 -83
q-11 -37 -11 -93h51q0 109 46 124q10 3 22 3h885q102 2 140 99q18 45 18 101v196z" />
    <glyph glyph-name="tml_HU" horiz-adv-x="1668" 
d="M1211 307h52v166q-1 46 -23 80h214q108 0 122 -58q2 -11 2 -23q0 -27 -23 -49q-20 -18 -46 -18q-50 0 -67 47q-4 12 -4 21h-50q0 -53 43 -90q32 -28 72 -28h14q51 0 86 46q25 33 25 72v8q0 94 -105 117q-30 6 -65 6h-324v-51q50 0 68 -47q8 -21 8 -48zM320 553
q107 0 150 -95q20 -46 21 -104v-269q0 -26 -15 -31q-11 -3 -53 -3v-51h234v51h-115v304q-1 119 -69 189q-59 60 -153 60v-51zM883 553q72 -2 73 -97l2 -456h51l-2 457q0 84 61 95q7 1 14 1v51q-64 -1 -99 -42q-35 42 -100 42v-51zM41 169q0 -71 52 -124q45 -45 103 -45v51
q-47 0 -79 45q-26 37 -26 85q0 95 71 121q17 6 34 6v51q-58 -1 -102 -38q5 125 73 190q44 42 102 42v51q-120 0 -183 -115q-45 -81 -45 -190v-92v1v-9v-30zM251 0q66 0 109 63q31 48 31 107v30q0 82 -59 129q-37 30 -81 30v-51q50 0 74 -53q13 -30 14 -72q0 -87 -51 -120
q-18 -12 -37 -12v-51zM709 0h52l-2 470q0 52 34 74q16 9 36 9v51q-77 0 -108 -71q-12 -28 -12 -56v-477zM1264 260h-52l2 -191q1 -94 -53 -136q-27 -20 -60 -20h-871q-93 0 -117 -83q-11 -37 -11 -93h51q0 107 43 123q11 4 25 4h885q102 2 140 99q18 45 18 101v196z" />
    <glyph glyph-name="tml_HUu" horiz-adv-x="1814" 
d="M320 553q107 0 150 -95q20 -46 21 -104v-269q0 -26 -15 -31q-11 -3 -53 -3v-51h234v51h-115v304q-1 119 -69 189q-59 60 -153 60v-51zM883 553q72 -2 73 -97l2 -456h51l-2 457q0 84 61 95q7 1 14 1v51q-64 -1 -99 -42q-35 42 -100 42v-51zM41 169q0 -71 52 -124
q45 -45 103 -45v51q-47 0 -79 45q-26 37 -26 85q0 95 71 121q17 6 34 6v51q-58 -1 -102 -38q5 125 73 190q44 42 102 42v51q-120 0 -183 -115q-45 -81 -45 -190v-92v1v-9v-30zM251 0q66 0 109 63q31 48 31 107v30q0 82 -59 129q-37 30 -81 30v-51q50 0 74 -53q13 -30 14 -72
q0 -87 -51 -120q-18 -12 -37 -12v-51zM709 0h52l-2 470q0 52 34 74q16 9 36 9v51q-77 0 -108 -71q-12 -28 -12 -56v-477zM1264 260h-52l2 -191q1 -94 -53 -136q-27 -20 -60 -20h-871q-93 0 -117 -83q-11 -37 -11 -93h51q0 107 43 123q11 4 25 4h885q102 2 140 99
q18 45 18 101v196zM1380 604h-246v-51q50 0 68 -47q8 -21 8 -48l1 -151h52v166q-1 46 -23 80h208q110 0 122 -60q2 -9 2 -20q0 -27 -23 -49q-20 -18 -46 -18q-51 0 -66 48q-4 11 -4 20h-51q0 -54 43 -92q32 -27 72 -27h14q50 0 86 46q26 34 26 73v7q0 96 -109 118
q-29 5 -62 5h-22q2 148 146 149q103 0 136 -64q11 -22 11 -46v-324q0 -71 -61 -80q-14 -2 -32 -2h-59v-46h59q143 2 144 128v324q0 96 -89 139q-48 22 -109 22q-144 0 -183 -115q-13 -38 -13 -85z" />
    <glyph glyph-name="tml_Ha" unicode="&#xbb9;" horiz-adv-x="1324" 
d="M1211 307h52v166q0 72 -50 108q-32 23 -79 23v-51q50 0 68 -47q8 -21 8 -48zM320 553q107 0 150 -95q20 -46 21 -104v-269q0 -26 -15 -31q-11 -3 -53 -3v-51h234v51h-115v304q-1 119 -69 189q-59 60 -153 60v-51zM883 553q72 -2 73 -97l2 -456h51l-2 457q0 84 61 95
q7 1 14 1v51q-64 -1 -99 -42q-35 42 -100 42v-51zM41 169q0 -71 52 -124q45 -45 103 -45v51q-47 0 -79 45q-26 37 -26 85q0 95 71 121q17 6 34 6v51q-58 -1 -102 -38q5 125 73 190q44 42 102 42v51q-120 0 -183 -115q-45 -81 -45 -190v-92v1v-9v-30zM251 0q66 0 109 63
q31 48 31 107v30q0 82 -59 129q-37 30 -81 30v-51q50 0 74 -53q13 -30 14 -72q0 -87 -51 -120q-18 -12 -37 -12v-51zM709 0h52l-2 470q0 52 34 74q16 9 36 9v51q-77 0 -108 -71q-12 -28 -12 -56v-477zM1264 260h-52l2 -191q1 -94 -53 -136q-27 -20 -60 -20h-871
q-93 0 -117 -83q-11 -37 -11 -93h51q0 107 43 123q11 4 25 4h885q102 2 140 99q18 45 18 101v196z" />
    <glyph glyph-name="tml_Hundred" unicode="&#xbf1;" horiz-adv-x="775" 
d="M582 0h51v555h103v51h-272v-51h118v-555zM40 0h53l-3 475q5 76 66 80v51q-81 0 -107 -72q-9 -26 -9 -55v-479zM211 555q72 -2 73 -76l3 -479h50l-2 480q0 63 46 73q13 2 29 2v51q-54 0 -76 -16q-13 -9 -23 -23q-34 36 -86 39h-14v-51z" />
    <glyph glyph-name="tml_I" unicode="&#xb87;" horiz-adv-x="1096" 
d="M504 -178v51h-28q-141 68 -183 212q-3 12 -5 22h-58q41 -149 154 -234h-134q-67 0 -112 44q-40 41 -40 104q0 32 13.5 55.5t29.5 34t40 17t35.5 7t25.5 0.5h1h260v52h-234q-27 108 -27 182q0 183 101 292q92 98 242 104v51q-211 -5 -318 -156q-80 -115 -81 -290
q0 -61 24 -186q-154 -19 -163 -149v-14q0 -103 78 -160q55 -39 125 -39h254zM560 -178h125q90 0 135 82q27 50 27 112l-1 120q147 -2 148 -108q0 -97 -81 -134q-38 -17 -77 -13l-24 -50q120 -15 190 69q42 50 42 102v34q0 112 -115 141q-37 9 -83 9h-288v-50h237v-118
q0 -96 -60 -131q-24 -13 -51 -14h-124v-51zM342 466h51q0 94 112 122q41 10 91 10q130 0 177 -118q22 -56 22 -134v-126h51v123q0 193 -113 268q-58 38 -137 38q-180 0 -235 -102q-19 -37 -19 -81zM340 413l8 -39q30 -105 127 -129q26 -6 55 -6q83 0 135 53q31 31 34 67
l-39 41q0 -58 -63 -92q-34 -18 -67 -18q-79 0 -119 55q-22 31 -22 68h-49zM630 763q260 0 318 -295q19 -94 19 -219h52q0 382 -167 502q-87 63 -222 63v-51z" />
    <glyph glyph-name="tml_Ii" unicode="&#xb88;" horiz-adv-x="591" 
d="M428 252q0 -30 28 -44q10 -4 20 -4q31 0 45 28q4 10 4 20q0 31 -29 45q-10 4 -20 4q-31 0 -44 -29q-4 -10 -4 -20zM177 253q0 -32 29 -45q10 -4 20 -4q31 0 44 29q4 10 4 20q0 31 -28 45q-10 4 -20 4q-32 0 -45 -29q-4 -10 -4 -20zM340 0h51v544h142v52h-282v-52h89v-544
zM57 1h51v543h89v52h-140v-595z" />
    <glyph glyph-name="tml_JI" horiz-adv-x="1012" 
d="M262 -180v51q-71 0 -114 60q-34 47 -34 115q0 111 78 138q19 7 39 7h443q142 0 168 132q6 29 6 64v108q-2 168 -160 186q2 118 90 119v51q-137 -2 -141 -168q-106 -7 -145 -97q-61 109 -215 110q-165 0 -218 -126q-10 -25 -15 -51q-1 -5 -3 -14q-1 -10 -1 -23v-10v-1
q0 -64 47 -117q42 -47 95 -47v47q-26 1 -55 32q-35 39 -35 97q0 91 64 136q28 20 54 20q59 0 94 -47q27 -38 27 -93q0 -82 -60 -128q-21 -15 -35 -16v-48q58 0 107 68q36 51 36 96v28q-1 95 -59 148q99 -17 138 -106q15 -35 15 -69v-152h50v142q0 152 100 168q15 2 31 2
q142 -2 143 -137v-77q-3 -100 -22 -132q-28 -44 -115 -44h-422q-108 0 -154 -90q-20 -41 -20 -86v-43q0 -73 53 -135q59 -67 145 -68zM323 -129v-51q119 0 164 68q15 25 18 53q8 105 11 117q8 28 37 31h10h39v51h-39q-70 0 -92 -57q-12 -33 -16 -103q-5 -88 -76 -104
q-23 -5 -56 -5zM557 -126v-51q197 0 255 70q30 36 30 91q0 101 -96 140q-42 16 -90 16v-51q104 -3 129 -67q6 -17 7 -36q1 -110 -212 -112h-23zM832 800q76 0 87 -80q3 -19 3 -45v-616h50v619q-2 172 -140 173v-51z" />
    <glyph glyph-name="tml_JIi" horiz-adv-x="981" 
d="M262 -180v51q-71 0 -114 60q-34 47 -34 115q0 111 78 138q19 7 39 7h443q142 0 168 132q6 29 6 64v108q-2 169 -161 186q-54 114 -1 197q34 54 92 61q6 1 12 1q82 0 98 -60q3 -9 3 -17q0 -52 -47 -67q-11 -4 -20 -4q-28 0 -48 23q-7 8 -8 15l-32 -37q13 -27 49 -42
q19 -8 36 -8q78 0 108 62q27 56 -2 113q-33 67 -117 72h-10q-95 0 -150 -75q-59 -79 -31 -186q7 -23 17 -46q-105 -9 -144 -97q-61 109 -215 110q-165 0 -218 -126q-10 -25 -15 -51q-1 -5 -3 -14q-1 -10 -1 -23v-10v-1q0 -64 47 -117q42 -47 95 -47v47q-26 1 -55 32
q-35 39 -35 97q0 91 64 136q28 20 54 20q59 0 94 -47q27 -38 27 -93q0 -82 -60 -128q-21 -15 -35 -16v-48q58 0 107 68q36 51 36 96v28q-1 95 -59 148q99 -17 138 -106q15 -35 15 -69v-152h50v142q0 152 100 168q15 2 31 2q142 -2 143 -137v-77q-3 -100 -22 -132
q-28 -44 -115 -44h-422q-108 0 -154 -90q-20 -41 -20 -86v-43q0 -73 53 -135q59 -67 145 -68zM323 -129v-51q119 0 164 68q15 25 18 53q8 105 11 117q8 28 37 31h10h39v51h-39q-70 0 -92 -57q-12 -33 -16 -103q-5 -88 -76 -104q-23 -5 -56 -5zM557 -126v-51q197 0 255 70
q30 36 30 91q0 101 -96 140q-42 16 -90 16v-51q104 -3 129 -67q6 -17 7 -36q1 -110 -212 -112h-23z" />
    <glyph glyph-name="tml_JU" horiz-adv-x="1216" 
d="M244 -180v51q-70 0 -113 59q-34 47 -34 116q0 112 78 139q19 6 38 6h444q142 0 168 132q6 29 6 64v108q-1 86 -52 138h222q108 0 122 -58q2 -11 2 -23q0 -27 -23 -49q-20 -18 -46 -18q-51 0 -66 48q-4 11 -4 20h-51q0 -54 43 -92q32 -27 72 -27h14q50 0 86 46
q26 34 26 73v7q0 94 -105 117q-30 7 -66 7h-324v-2q-12 2 -18 2v-51q83 -11 108 -82q9 -25 9 -56v-77q-3 -99 -22 -131q-28 -45 -116 -45h-422q-107 0 -153 -89q-21 -41 -21 -87v-43q0 -73 54 -135q59 -67 144 -68zM23 471q0 -66 48 -118q42 -45 93 -46v47q-26 1 -55 32
q-35 39 -35 97q0 90 64 135q29 21 55 21q57 0 92 -46q28 -38 28 -94q0 -82 -60 -128q-21 -15 -35 -16v-48q58 0 107 68q36 51 36 96v28q-1 95 -59 148q98 -16 138 -104q16 -36 16 -71v-152h50v142q0 147 96 169q4 1 7 2v51q-93 -9 -133 -99q-61 110 -217 111
q-169 0 -220 -133q-9 -21 -13 -44q0 -5 -2 -14q-1 -10 -1 -23v-10v-1zM305 -129v-51q117 0 163 66q16 25 19 55q9 105 12 116q8 28 34 31q6 1 12 1h40v51h-39q-72 0 -93 -59q-12 -33 -15 -101q-6 -87 -75 -104q-24 -5 -58 -5zM540 -126v-51q197 0 255 70q30 36 30 91
q0 101 -96 140q-42 16 -90 16v-51q105 -3 129 -69q5 -16 6 -34q2 -110 -211 -112h-23z" />
    <glyph glyph-name="tml_JUu" horiz-adv-x="1351" 
d="M244 -180v51q-70 0 -113 59q-34 47 -34 116q0 112 78 139q19 6 38 6h444q142 0 168 132q6 29 6 64v108q-1 86 -52 138h207q110 0 122 -60q2 -10 2 -20q0 -27 -23 -49q-20 -18 -46 -18q-50 0 -67 47q-4 12 -4 21h-50q0 -54 43 -92q32 -27 72 -27h14q51 0 86 47
q25 34 25 72v7q0 95 -107 117q-29 6 -63 6h-22q8 142 146 146q103 0 136 -64q11 -22 11 -46v-324q0 -71 -61 -80q-14 -2 -32 -2h-59v-47h59q142 2 143 129v324q0 97 -89 139q-48 22 -108 22q-142 0 -183 -111q-13 -38 -14 -86h-236v-2q-12 2 -18 2v-51q83 -11 108 -82
q9 -25 9 -56v-77q-3 -99 -22 -131q-28 -45 -116 -45h-422q-107 0 -153 -89q-21 -41 -21 -87v-43q0 -73 54 -135q59 -67 144 -68zM23 471q0 -66 48 -118q42 -45 93 -46v47q-26 1 -55 32q-35 39 -35 97q0 90 64 135q29 21 55 21q57 0 92 -46q28 -38 28 -94q0 -82 -60 -128
q-21 -15 -35 -16v-48q58 0 107 68q36 51 36 96v28q-1 95 -59 148q98 -16 138 -104q16 -36 16 -71v-152h50v142q0 147 96 169q4 1 7 2v51q-93 -9 -133 -99q-61 110 -217 111q-169 0 -220 -133q-9 -21 -13 -44q0 -5 -2 -14q-1 -10 -1 -23v-10v-1zM305 -129v-51q117 0 163 66
q16 25 19 55q9 105 12 116q8 28 34 31q6 1 12 1h40v51h-39q-72 0 -93 -59q-12 -33 -15 -101q-6 -87 -75 -104q-24 -5 -58 -5zM540 -126v-51q197 0 255 70q30 36 30 91q0 101 -96 140q-42 16 -90 16v-51q105 -3 129 -69q5 -16 6 -34q2 -110 -211 -112h-23z" />
    <glyph glyph-name="tml_Ja" unicode="&#xb9c;" horiz-adv-x="894" 
d="M268 -180v51q-71 0 -114 60q-34 47 -34 115q0 111 78 138q19 7 39 7h443q142 0 168 132q6 29 6 64v108q0 112 -83 163q-38 23 -84 26v-51q84 -11 108 -83q8 -25 8 -55v-77q-3 -100 -22 -132q-28 -44 -115 -44h-422q-108 0 -154 -90q-20 -41 -20 -86v-43q0 -73 53 -135
q59 -67 145 -68zM46 471q0 -64 47 -117q42 -47 95 -47v47q-26 1 -55 32q-35 39 -35 97q0 91 64 136q28 20 54 20q59 0 94 -47q27 -38 27 -93q0 -82 -60 -128q-21 -15 -35 -16v-48q58 0 107 68q36 51 36 96v28q-1 95 -59 148q99 -17 138 -106q15 -35 15 -69v-152h50v142
q0 147 95 169q5 1 9 2v51q-94 -9 -134 -99q-61 110 -216 111q-165 0 -218 -126q-10 -25 -15 -51q-1 -5 -3 -14q-1 -10 -1 -23v-10v-1zM329 -129v-51q117 0 163 66q16 25 19 55q9 105 11 114q7 29 32 33q7 1 15 1h39v51h-39q-70 0 -92 -57q-12 -33 -16 -103q-5 -88 -76 -104
q-23 -5 -56 -5zM563 -126v-51q197 0 255 70q30 36 30 91q0 101 -96 140q-42 16 -90 16v-51q104 -3 129 -67q6 -17 7 -36q1 -110 -212 -112h-23z" />
    <glyph glyph-name="tml_KI" horiz-adv-x="889" 
d="M16 208h51q0 103 93 110h14h223v-130q0 -118 -87 -144q-22 -7 -46 -7v-51q131 0 171 115q13 40 13 87v130h59q89 0 113 -49q13 -28 13 -74h51q0 124 -73 157q-36 16 -94 16h-69v173h132v51h-132q0 86 50 114q32 16 80 16v50q-178 -2 -181 -180h-75v-51h75v-173h-206
l1 173h76v51h-127v-226q-113 -13 -124 -134q-1 -12 -1 -24zM210 -14v51q-103 0 -133 85q-8 22 -10 48h-51q2 -99 74 -149q49 -35 120 -35zM468 -14q117 0 178 74q34 43 37 97l-53 1q-5 -67 -72 -101q-41 -21 -90 -21v-50zM632 722q120 0 138 -86q4 -20 4 -49v-589h51v592
q0 177 -181 182h-12v-50z" />
    <glyph glyph-name="tml_KI.alt" horiz-adv-x="929" 
d="M22 210h51q7 108 108 111h223v-131q0 -114 -85 -143q-22 -7 -48 -7v-51q131 0 171 115q13 40 13 87v130h59q91 0 114 -53q12 -27 12 -71h51q0 126 -76 159q-36 15 -92 15h-68v173h132v51h-258v-51h75v-173h-206l1 173h76v51h-128v-226q-21 -2 -40 -10q-52 204 72 319
q85 78 213 86q13 1 24 1v50q-165 0 -271 -99q-115 -107 -104 -278q4 -54 20 -109q-39 -42 -39 -119zM217 -11v51q-108 0 -135 89q-7 21 -8 44h-52q3 -103 78 -153q49 -31 117 -31zM475 -11q117 0 178 73q34 43 37 97l-54 1q-4 -65 -70 -99q-41 -22 -91 -22v-50zM470 765
q153 0 252 -75q115 -89 116 -264v-367h52v370q-1 226 -175 326q-105 60 -245 60v-50z" />
    <glyph glyph-name="tml_KIi" horiz-adv-x="771" 
d="M44 210h51q7 108 108 111h223v-131q0 -114 -85 -143q-22 -7 -48 -7v-51q131 0 171 115q13 40 13 87v130h59q91 0 114 -53q12 -27 12 -71h51q0 126 -76 159q-36 15 -92 15h-68v173h132v51h-133q-55 115 -2 198q35 54 92 61q7 1 12 1q82 0 98 -60q3 -9 3 -17q0 -53 -48 -68
q-10 -3 -19 -3q-28 0 -48 23q-7 8 -8 15l-32 -37q13 -27 49 -42q19 -8 36 -8q78 0 108 62q27 56 -2 113q-33 67 -117 72h-10q-95 0 -150 -74q-58 -79 -31 -185q7 -26 18 -51h-74v-51h74v-72h1v-101h-206l1 173h76v51h-128v-226q-124 -19 -125 -159zM239 -11v51
q-108 0 -135 89q-7 21 -8 44h-52q3 -103 78 -153q49 -31 117 -31zM497 -11q117 0 178 73q34 43 37 97l-54 1q-4 -65 -70 -99q-41 -22 -91 -22v-50z" />
    <glyph glyph-name="tml_KIi.alt" horiz-adv-x="759" 
d="M21 210h51q0 101 87 110q10 1 20 1h224v-131q0 -115 -86 -143q-23 -7 -48 -7v-51q131 0 171 115q13 40 13 87v130h60q91 0 114 -53q12 -27 12 -71h50q0 125 -74 158q-36 16 -93 16h-69v173h132v51h-258v-51h76v-173h-206l1 173h75v51h-127v-226q-20 -2 -34 -7
q-51 205 16 343q39 78 109 114q85 42 196 44q66 1 120 -15q54 -15 76 -59q11 -25 6 -48q-13 -53 -60 -57q-11 -1 -20 1q-25 6 -41 35q-7 12 -6 19l-37 -33q14 -43 59 -63q11 -4 21 -7q68 -17 110 37q29 37 28 84q-1 76 -74 119q-25 15 -55 23q-160 40 -305 -17
q-24 -9 -45 -20q-120 -64 -158 -221q-33 -142 14 -306q-45 -41 -45 -125zM215 -11v51q-107 0 -135 89q-6 21 -8 44h-51q3 -103 78 -152q48 -32 116 -32zM473 -11q117 0 178 73q34 43 37 97l-53 1q-4 -65 -70 -100q-42 -21 -92 -21v-50z" />
    <glyph glyph-name="tml_KSsI" horiz-adv-x="1863" 
d="M859 478q148 0 168 -142q3 -23 3 -49v-202q0 -26 -13 -30q-12 -4 -55 -4v-51h387v51h-267v237q-1 203 -162 235q-29 6 -61 6v-51zM790 0q66 0 109 63q31 48 31 107v30q0 82 -59 129q-37 30 -81 30v-51q50 0 74 -52q14 -31 14 -73q0 -89 -51 -121q-18 -11 -37 -11v-51z
M288 -6q142 0 176 121q9 33 9 71v106h108v-85v-8v-30q0 -72 53 -125q44 -44 101 -44v51q-48 0 -80 46q-24 35 -24 84q0 97 71 121q17 6 33 6v51q-55 -1 -97 -35q6 83 72 126q42 28 99 28v51q-124 0 -188 -95q-27 -41 -36 -91h-112v276h147v51h-273v-51h76v-276h-178
q-20 0 -29 -1l1 277h76v51h-128v-336q-98 -24 -120 -107q-5 -19 -5 -38v-29q0 -82 60 -127q50 -38 135 -39v51q-98 0 -128 55q-16 31 -16 78q3 113 148 114h184v-110q0 -107 -87 -131q-22 -6 -48 -6v-51zM1609 736q155 0 163 -125v-12v-599h51v601q0 118 -96 163
q-49 23 -118 23v-51zM1636 0h48v209h-136v204q0 135 -67 173q-30 17 -75 20q7 129 149 130v51q-167 0 -195 -137q-4 -21 -5 -43q-103 -5 -134 -73q-18 -39 -18 -101v-99q0 -144 91 -169q24 -7 56 -7v50q-63 0 -83 41q-14 28 -14 71v114q0 112 88 121q11 1 24 1h15
q65 0 89 -30q28 -35 28 -113v-204h-94v-51h94v-30h51v30h88v-106h-88v36h-51v-36h-94v-51h94v-179h51v178h88z" />
    <glyph glyph-name="tml_KSsIi" horiz-adv-x="1724" 
d="M859 478q148 0 168 -142q3 -23 3 -49v-202q0 -26 -13 -30q-12 -4 -55 -4v-51h387v51h-267v237q-1 203 -162 235q-29 6 -61 6v-51zM790 0q66 0 109 63q31 48 31 107v30q0 82 -59 129q-37 30 -81 30v-51q50 0 74 -52q14 -31 14 -73q0 -89 -51 -121q-18 -11 -37 -11v-51z
M288 -6q142 0 176 121q9 33 9 71v106h108v-85v-8v-30q0 -72 53 -125q44 -44 101 -44v51q-48 0 -80 46q-24 35 -24 84q0 97 71 121q17 6 33 6v51q-55 -1 -97 -35q6 83 72 126q42 28 99 28v51q-124 0 -188 -95q-27 -41 -36 -91h-112v276h147v51h-273v-51h76v-276h-178
q-20 0 -29 -1l1 277h76v51h-128v-336q-98 -24 -120 -107q-5 -19 -5 -38v-29q0 -82 60 -127q50 -38 135 -39v51q-98 0 -128 55q-16 31 -16 78q3 113 148 114h184v-110q0 -107 -87 -131q-22 -6 -48 -6v-51zM1636 0h48v209h-136v204q0 135 -67 173q-30 17 -75 20
q-53 113 -2 195q35 55 92 62q6 1 12 1q82 0 98 -61q3 -9 3 -17q0 -52 -47 -67q-11 -3 -20 -3q-28 0 -48 23q-7 8 -8 15l-32 -38q13 -27 51 -42q18 -7 34 -7q78 0 108 62q27 56 -2 113q-33 67 -117 72h-10q-95 0 -150 -75q-59 -79 -32 -185q7 -24 17 -47q-101 -5 -132 -70
q-18 -40 -18 -104v-99q0 -144 91 -169q24 -7 56 -7v50q-63 0 -83 41q-14 28 -14 71v114q0 110 84 120q13 2 36 2h13q63 -1 86 -32q25 -34 25 -111v-204h-94v-51h94v-30h51v30h88v-106h-88v36h-51v-36h-94v-51h94v-179h51v178h88z" />
    <glyph glyph-name="tml_KSsU" horiz-adv-x="1935" 
d="M859 478q148 0 168 -142q3 -23 3 -49v-202q0 -26 -13 -30q-12 -4 -55 -4v-51h387v51h-267v237q-1 203 -162 235q-29 6 -61 6v-51zM1203 334q0 -144 91 -169q24 -7 56 -7v50q-63 0 -83 41q-14 28 -14 71v114q0 113 75 121q9 1 22 1v51q-115 0 -139 -101q-8 -32 -8 -73v-99
zM790 0q66 0 109 63q31 48 31 107v30q0 82 -59 129q-37 30 -81 30v-51q50 0 74 -52q14 -31 14 -73q0 -89 -51 -121q-18 -11 -37 -11v-51zM288 -6q142 0 176 121q9 33 9 71v106h108v-85v-8v-30q0 -72 53 -125q44 -44 101 -44v51q-48 0 -80 46q-24 35 -24 84q0 97 71 121
q17 6 33 6v51q-55 -1 -97 -35q6 83 72 126q42 28 99 28v51q-124 0 -188 -95q-27 -41 -36 -91h-112v276h147v51h-273v-51h76v-276h-178q-20 0 -29 -1l1 277h76v51h-128v-336q-98 -24 -120 -107q-5 -19 -5 -38v-29q0 -82 60 -127q50 -38 135 -39v51q-98 0 -128 55
q-16 31 -16 78q3 113 148 114h184v-110q0 -107 -87 -131q-22 -6 -48 -6v-51zM1636 0h48v209h-136v204q0 94 -34 143h206q107 0 121 -55q3 -12 3 -25q0 -27 -23 -49q-20 -18 -46 -18q-51 0 -66 48q-4 11 -4 20h-51q0 -54 43 -92q32 -27 72 -27h14q50 0 86 46q26 34 26 73v7
q0 96 -109 118q-29 5 -62 5h-321v-51q56 0 76 -42q18 -36 18 -101v-204h-94v-51h94v-30h51v30h88v-106h-88v36h-51v-36h-94v-51h94v-179h51v178h88z" />
    <glyph glyph-name="tml_KSsUu" horiz-adv-x="2094" 
d="M863 479q148 0 168 -142q3 -23 3 -49v-202q0 -26 -13 -30q-12 -4 -55 -4v-51h387v51h-267v237q-1 203 -162 235q-29 6 -61 6v-51zM1207 335q0 -144 91 -169q24 -7 56 -7v50q-63 0 -83 41q-14 28 -14 71v113q0 115 75 122q9 1 22 1v51q-115 0 -139 -101q-8 -32 -8 -73v-99
zM794 1q66 0 109 63q31 48 31 107v30q0 82 -59 129q-37 30 -81 30v-51q50 0 74 -52q14 -31 14 -74q0 -88 -51 -120q-18 -11 -37 -11v-51zM292 -5q142 0 176 121q9 33 9 71v106h108v-85v-8v-30q0 -72 53 -125q44 -44 101 -44v51q-48 0 -80 46q-24 35 -24 84q0 97 71 121
q17 6 33 6v51q-55 -1 -97 -35q7 85 74 128q42 26 96 26v51q-122 0 -186 -94q-28 -42 -37 -93h-112v277h147v51h-273v-51h76v-277h-178q-20 0 -29 -1l1 278h76v51h-128v-337q-100 -24 -121 -108q-4 -18 -4 -36v-29q0 -82 60 -127q50 -38 135 -39v51q-99 0 -129 56
q-16 31 -16 77q9 110 149 114h184v-110q0 -110 -91 -132q-21 -5 -44 -5v-51zM1640 1h48v209h-136v204q0 94 -34 143h205q110 0 121 -61q2 -9 2 -19q0 -28 -24 -50q-19 -17 -44 -17q-51 0 -67 47q-4 12 -4 21h-51q0 -54 43 -92q32 -27 72 -27h14q50 0 86 46q26 34 26 73v7
q0 95 -107 117q-29 6 -63 6h-23q0 135 128 145q10 1 19 1q102 0 135 -64q11 -22 11 -46v-324q0 -71 -60 -80q-13 -2 -32 -2h-59v-47h59q142 2 143 129v324q0 96 -88 138q-48 23 -109 23q-146 0 -185 -115q-12 -37 -12 -82h-247v-51q57 0 78 -45q16 -36 16 -98v-204h-94v-51
h94v-31h51v31h88v-106h-88v36h-51v-36h-94v-51h94v-179h51v178h88z" />
    <glyph glyph-name="tml_KSsa" horiz-adv-x="1724" 
d="M859 478q148 0 168 -142q3 -23 3 -49v-202q0 -26 -13 -30q-12 -4 -55 -4v-51h387v51h-267v237q-1 203 -162 235q-29 6 -61 6v-51zM1203 334q0 -144 91 -169q24 -7 56 -7v50q-63 0 -83 41q-14 28 -14 71v114q0 113 75 121q9 1 22 1v51q-115 0 -139 -101q-8 -32 -8 -73v-99
zM790 0q66 0 109 63q31 48 31 107v30q0 82 -59 129q-37 30 -81 30v-51q50 0 74 -52q14 -31 14 -73q0 -89 -51 -121q-18 -11 -37 -11v-51zM288 -6q142 0 176 121q9 33 9 71v106h108v-85v-8v-30q0 -72 53 -125q44 -44 101 -44v51q-48 0 -80 46q-24 35 -24 84q0 97 71 121
q17 6 33 6v51q-55 -1 -97 -35q6 83 72 126q42 28 99 28v51q-124 0 -188 -95q-27 -41 -36 -91h-112v276h147v51h-273v-51h76v-276h-178q-20 0 -29 -1l1 277h76v51h-128v-336q-98 -24 -120 -107q-5 -19 -5 -38v-29q0 -82 60 -127q50 -38 135 -39v51q-98 0 -128 55
q-16 31 -16 78q3 113 148 114h184v-110q0 -107 -87 -131q-22 -6 -48 -6v-51zM1636 0h48v209h-136v204q-1 193 -145 194v-51q56 0 76 -42q18 -36 18 -101v-204h-94v-51h94v-30h51v30h88v-106h-88v36h-51v-36h-94v-51h94v-179h51v178h88z" />
    <glyph glyph-name="tml_KU" horiz-adv-x="900" 
d="M258 159h-53q0 -68 50 -113q52 -46 146 -47v51q-71 0 -113 40q-30 29 -30 69zM256 194q2 110 118 123q15 2 30 2h184v-132q0 -110 -91 -132q-20 -5 -43 -5v-51q142 0 176 121q9 33 9 71v353h166v51h-292v-51h75v-174h-178q-20 0 -29 -1l1 175h76v51h-128v-235
q-96 -28 -119 -118q-6 -21 -6 -43v-5h51zM41 -63q0 -76 61 -117q32 -21 65 -21h227v50h-211q-84 0 -91 98v14v345q0 53 20 76q29 31 93 31v50q-163 -2 -164 -152v-374zM447 -151v-50h258q95 0 135 70q18 32 18 70v280q0 106 -111 140q-26 8 -53 11v-51q50 -2 85 -34
q30 -28 30 -72v-259q0 -72 -61 -97q-22 -8 -44 -8h-257z" />
    <glyph glyph-name="tml_KUu" horiz-adv-x="1464" 
d="M520 319h231q73 0 94 -29q20 -29 20 -116q0 -103 -68 -119q-10 -2 -21 -2q-85 1 -85 223h-45q1 -269 127 -270q87 0 122 75q18 40 18 94q0 117 -41 158q-38 36 -117 36h-235v-50zM1110 -1v49q-56 2 -68 16q-10 14 -10 49v285q0 160 -132 191q-30 7 -65 7
q-130 0 -172 -108q-16 -42 -16 -93h48q0 119 88 146q23 7 52 7q140 0 149 -134v-16v-294q0 -67 33 -88q30 -17 93 -17zM233 50q-123 0 -142 98q-3 19 -3 40q0 115 116 130q16 2 32 2h183v-133q0 -109 -88 -132q-21 -5 -45 -5v-51q140 0 175 120q9 34 9 72v129h12v51h-12v173
h147v51h-272v-51h74v-173h-177q-20 0 -29 -1l1 174h77v51h-129v-234q-95 -27 -119 -116q-6 -23 -6 -46v-29q0 -78 55 -126q52 -44 141 -45v51zM1147 1h291v47h-291v-47z" />
    <glyph glyph-name="tml_Ka" unicode="&#xb95;" horiz-adv-x="786" 
d="M58 210h51q7 108 108 111h223v-131q0 -114 -85 -143q-22 -7 -48 -7v-51q131 0 171 115q13 40 13 87v130h59q91 0 114 -53q12 -27 12 -71h51q0 127 -77 159q-36 15 -90 15h-69v173h132v51h-258v-51h75v-173h-206l1 173h76v51h-128v-226q-124 -19 -125 -159zM253 -11v51
q-108 0 -135 89q-7 21 -8 44h-52q3 -103 78 -153q49 -31 117 -31zM511 -11q117 0 178 73q34 43 37 97l-54 1q-4 -65 -69 -99q-41 -22 -92 -22v-50z" />
    <glyph glyph-name="tml_LAi" horiz-adv-x="1138" 
d="M598 546q126 0 149 -115q4 -23 4 -46v-251q0 -68 57 -113q41 -31 90 -31v52q-48 0 -78 41q-17 25 -17 52v243q0 119 -73 177q-51 41 -132 41v-50zM925 584v-50q101 0 118 -69q5 -21 5 -53v-273q0 -56 -41 -82q-24 -15 -56 -15v-52q91 0 130 74q18 34 18 75v275
q0 140 -111 164q-28 6 -63 6zM335 160q0 -44 22 -84q-66 -50 -145 -35q-67 13 -89 63q-19 49 18 107l217 340q57 94 29 182q-27 86 -123 113q-36 10 -78 10q-87 0 -126.5 -64t-9 -127.5t112.5 -63.5q66 1 92 50l-35 39q-8 -29 -40 -37q-9 -2 -18 -2q-49 0 -63 47
q-4 13 -4 27q0 32 28 57q28 23 73 23q86 0 127 -57q50 -70 -8 -174q-10 -16 -22 -33l-189 -285q-72 -109 -26 -192q37 -66 126 -78q95 -13 189 43q43 -39 96 -39v51q-46 0 -78 45q-26 36 -26 85q0 95 69 121q18 7 35 7v50q-59 -1 -102 -39q5 130 68 195q39 40 89 40v51
q-105 0 -164 -107q-45 -83 -45 -194v-98v-7v-30zM544 -10q66 0 109 63q32 48 32 108v29q0 81 -58 129q-37 30 -83 30v-50q50 0 74 -52q14 -31 14 -74q0 -88 -51 -121q-18 -11 -37 -11v-51z" />
    <glyph glyph-name="tml_LI" horiz-adv-x="979" 
d="M656 0q91 0 130 73q18 35 18 76v275q0 152 -130 167q-16 2 -35 2t-26 30q-11 44 23 77q32 29 91 29v51q-113 0 -152 -79q-27 -57 -3 -113q20 -45 58 -45q101 0 118 -69q5 -20 5 -52v-273q0 -57 -42 -83q-23 -14 -55 -14v-52zM303 555q125 0 148 -113q5 -23 5 -47v-252
q0 -67 57 -112q41 -31 90 -31v52q-49 0 -79 42q-16 24 -16 51v243q0 119 -73 177q-51 41 -132 41v-51zM194 0v51q-46 0 -78 45q-26 37 -26 85q0 95 70 121q18 6 34 6v51q-59 -1 -102 -39q4 124 65 192q40 42 92 43v50q-104 0 -164 -107q-45 -82 -45 -193v-98v1v-9v-30
q0 -71 52 -124q45 -45 102 -45zM249 0q66 0 109 63q32 48 32 107v30q0 81 -58 129q-37 30 -83 30v-51q50 0 74 -51q14 -31 14 -74q0 -88 -51 -121q-18 -11 -37 -11v-51zM781 728q91 0 104 -88q3 -21 3 -51v-590h52v593q0 154 -103 181q-26 7 -56 7v-52z" />
    <glyph glyph-name="tml_LIi" horiz-adv-x="969" 
d="M711 546q-70 27 -82 105q-11 72 32 128q45 56 116 51q60 0 89 -42q13 -20 13 -42q0 -51 -41 -68q-11 -4 -22 -4q-40 0 -55 26q-3 6 -3 11l-32 -40q18 -34 62 -44q13 -3 25 -3q70 -1 102 60q29 57 1 117q-34 72 -130 79h-16q-111 0 -164 -89q-46 -77 -24 -170
q18 -75 103 -120q3 -2 5 -3q43 -22 45 -63q1 -2 1 -12v-294q-1 -77 -80 -78v-51q99 0 124 84q6 21 6 45v295q0 56 -17 81q-20 27 -58 41zM249 0q66 0 109 63q32 48 32 107v30q0 81 -58 129q-37 30 -83 30v-51q50 0 74 -51q14 -31 14 -74q0 -88 -51 -121q-18 -11 -37 -11v-51
zM40 169q0 -71 52 -124q45 -45 102 -45v51q-46 0 -78 45q-26 37 -26 85q0 94 69 120q18 7 35 7v51q-59 -1 -102 -39q4 124 65 192q40 42 92 43v50q-104 0 -164 -107q-45 -82 -45 -193v-98v1v-9v-30zM303 555q125 0 148 -113q5 -23 5 -47v-252q0 -66 56 -111q41 -32 91 -32
v52q-48 0 -78 41q-17 25 -17 52v243q0 119 -73 177q-51 41 -132 41v-51z" />
    <glyph glyph-name="tml_LU" horiz-adv-x="987" 
d="M252 0q66 0 109 63q31 48 31 107v30q0 82 -59 129q-37 30 -81 30v-51q50 0 74 -51q14 -31 14 -74q0 -88 -51 -121q-18 -11 -37 -11v-51zM42 169q0 -71 52 -124q45 -45 103 -45v51q-48 0 -80 46q-24 36 -24 84q0 95 70 121q18 6 34 6v51q-58 -1 -103 -39q4 125 66 192
q40 43 92 43v50q-104 0 -164 -107q-46 -82 -46 -193v-98v1v-9v-30zM306 555q125 0 148 -113q5 -23 5 -47v-252q0 -67 56 -111q41 -32 90 -32v52q-48 0 -78 41q-17 25 -17 52v243q0 119 -72 177q-52 41 -132 41v-51zM632 594v-51q101 0 118 -67q5 -21 5 -54v-273
q0 -57 -42 -83q-23 -14 -55 -14v-52q59 1 98 33v-84h-579q-69 0 -99 -43q-12 -18 -12 -39v-20q1 -42 52 -67q30 -15 64 -15h218v47h-216q-44 0 -61 22.5t-1 45t55 22.5h575q-19 -89 -120 -90h-178v-47h179q144 0 168 127l2 10h143v681h-51v-634h-89v475q0 140 -111 164
q-28 6 -63 6z" />
    <glyph glyph-name="tml_LUu" horiz-adv-x="1354" 
d="M251 0q65 0 108 61q32 49 32 109v30q0 82 -59 129q-37 30 -81 30v-51q50 0 74 -53q13 -30 13 -72q1 -87 -50 -120q-18 -12 -37 -12v-51zM41 169q0 -71 52 -124q45 -45 103 -45v51q-47 0 -79 45q-26 37 -26 85q0 95 71 121q17 6 34 6v51q-58 -1 -103 -39q4 124 65 192
q40 42 92 43v50q-104 0 -164 -107q-45 -82 -45 -193v-98v1v-9v-30zM304 555q128 0 150 -120q4 -19 4 -40v-252q0 -67 56 -111q41 -32 90 -32v52q-48 0 -78 41q-17 25 -17 52v243q0 119 -73 177q-51 41 -132 41v-51zM631 594v-51q101 0 118 -67q5 -21 5 -54v-273
q0 -57 -42 -83q-23 -14 -55 -14v-52q59 1 97 32v-86h-579q-69 0 -98 -43q-12 -18 -12 -38v-20q0 -42 50 -68q31 -15 65 -15h218v47h-212q-54 0 -68 33q-12 27 14 45q16 12 43 12h575q-19 -89 -119 -90h-179v-47h180q144 0 168 127l2 10h144v645h95v52h-145v-650h-91v478
q0 140 -111 164q-28 6 -63 6zM1180 1h50v543h84v52h-220v-52h86v-543z" />
    <glyph glyph-name="tml_La" unicode="&#xbb2;" horiz-adv-x="842" 
d="M249 0q66 0 109 63q32 48 32 107v30q0 81 -58 129q-37 30 -83 30v-51q50 0 74 -51q14 -31 14 -74q0 -88 -51 -121q-18 -11 -37 -11v-51zM40 169q0 -71 52 -124q45 -45 102 -45v51q-46 0 -78 45q-26 37 -26 85q0 95 70 121q18 6 34 6v51q-59 -1 -102 -39q4 124 65 192
q40 42 92 43v50q-104 0 -164 -107q-45 -82 -45 -193v-98v1v-9v-30zM303 555q125 0 148 -113q5 -23 5 -47v-252q0 -67 57 -112q41 -31 90 -31v52q-49 0 -79 42q-16 24 -16 51v243q0 119 -73 177q-51 41 -132 41v-51zM630 594v-51q101 0 118 -69q5 -20 5 -52v-273
q0 -57 -42 -83q-23 -14 -55 -14v-52q91 0 130 73q18 35 18 76v275q0 140 -111 164q-28 6 -63 6z" />
    <glyph glyph-name="tml_LlAi" horiz-adv-x="1199" 
d="M330 161q1 -44 24 -88q-66 -49 -145 -32q-67 15 -86 65q-18 48 18 105l217 340q57 95 29 183q-27 87 -124 113q-35 10 -77 10q-87 0 -126.5 -64t-9 -128t112.5 -64q66 1 92 50l-35 39q-8 -29 -40 -37q-9 -2 -18 -2q-49 0 -63 47q-4 13 -4 27q0 33 28 57t73 24
q85 0 126 -57q51 -70 -6 -172q-10 -18 -23 -36l-189 -285q-72 -109 -26 -192q37 -66 126 -79q95 -12 188 43q42 -36 93 -36v51q-48 0 -80 46q-24 36 -24 84q0 96 70 122q17 6 34 6v50q-58 -1 -103 -39q5 124 71 191q45 44 103 44v50q-113 0 -177 -106q-49 -83 -49 -194v-98
v1v-9v-30zM540 -8q67 0 109 64q31 47 31 106v30q0 82 -59 129q-37 30 -81 30v-50q50 0 74 -52q14 -31 14 -74q0 -88 -51 -121q-18 -11 -37 -11v-51zM610 547q104 0 142 -101q16 -44 16 -100v-354h51v326q0 180 57 217q18 11 41 11v51q-96 -1 -130 -108q-57 107 -177 108v-50
zM1035 -8h51v554h74v51h-189v-51h64v-554z" />
    <glyph glyph-name="tml_LlI" horiz-adv-x="1107" 
d="M40 169q0 -71 52 -124q45 -45 102 -45v51q-46 0 -78 45q-26 37 -26 85q0 94 69 120q18 7 35 7v51q-57 -1 -102 -39q6 126 73 191q44 43 101 43v51q-114 0 -178 -107q-48 -82 -48 -193v-98v1v-9v-30zM249 0q66 0 109 63q32 48 32 107v30q0 81 -58 129q-37 30 -83 30v-51
q50 0 74 -51q14 -31 14 -74q0 -88 -51 -121q-18 -11 -37 -11v-51zM320 554q103 0 140 -100q17 -44 17 -100v-354h52l-1 337q1 179 64 210q16 7 35 7v51q-97 -1 -131 -108q-55 107 -176 108v-51zM934 717q68 0 79 -65q4 -20 4 -60v-591h51v594q0 146 -92 168q-20 5 -42 5v-51
zM744 0h51v554h74v51h-74q2 96 61 110q12 2 24 2v51q-130 -2 -136 -163h-64v-51h64v-554z" />
    <glyph glyph-name="tml_LlIi" horiz-adv-x="1089" 
d="M40 169q0 -71 52 -124q45 -45 102 -45v51q-46 0 -78 45q-26 37 -26 85q0 94 69 120q18 7 35 7v51q-57 -1 -102 -39q6 126 73 191q44 43 101 43v51q-114 0 -178 -107q-48 -82 -48 -193v-98v1v-9v-30zM249 0q66 0 109 63q32 48 32 107v30q0 81 -58 129q-37 30 -83 30v-51
q50 0 74 -51q14 -31 14 -74q0 -88 -51 -121q-18 -11 -37 -11v-51zM320 554q103 0 140 -100q17 -44 17 -100v-354h52l-1 337q1 179 64 210q16 7 35 7v51q-97 -1 -131 -108q-55 107 -176 108v-51zM744 0h51v554h74v51h-73q-55 115 -2 198q34 55 92 62q7 1 12 1q82 0 98 -61
q3 -9 3 -17q0 -52 -47 -67q-11 -3 -20 -3q-28 0 -48 23q-7 8 -8 15l-32 -38q13 -27 51 -42q18 -7 34 -7q78 0 108 62q27 56 -2 113q-33 67 -117 72h-10q-95 0 -150 -74q-58 -79 -32 -185q7 -27 19 -52h-64v-51h63v-554z" />
    <glyph glyph-name="tml_LlU" horiz-adv-x="1247" 
d="M240 169q0 -71 52 -124q45 -45 103 -45v50q-47 0 -80 46q-25 36 -25 85q0 95 71 121q17 6 34 6v51q-58 -1 -103 -39q6 127 74 193q43 41 100 41v51q-112 0 -176 -106q-50 -82 -50 -194v-99v-7v-30zM450 0q66 0 109 62q31 48 31 108v29q0 83 -59 131q-37 29 -81 29v-51
q50 0 74 -53q13 -31 14 -73q0 -85 -50 -119q-18 -13 -38 -13v-50zM520 554q101 0 140 -97q18 -46 18 -103v-354h51l-1 337q1 179 64 210q16 7 35 7v51q-97 -1 -131 -109q-56 108 -176 109v-51zM945 0h50v554h74v51h-188v-51h64v-554zM200 -147h420v51h-420q-75 0 -99 78
q-10 31 -10 70v235q0 99 75 123q18 6 39 6v50q-87 0 -132 -61q-33 -44 -33 -113v-239q0 -135 85 -182q34 -18 75 -18zM674 -147h376q89 0 134 78q23 42 23 84v176q0 111 -117 144q-23 7 -47 9v-51q53 0 87 -35q27 -29 27 -74v-162q0 -61 -48 -97q-29 -21 -60 -21h-375v-51z
" />
    <glyph glyph-name="tml_LlUu" horiz-adv-x="1357" 
d="M326 167q0 -72 53 -125q45 -45 102 -45v51q-47 0 -79 45q-26 37 -26 85q0 95 70 121q18 7 35 7v50q-58 -1 -103 -39q6 127 73 193q44 42 101 42v50q-113 0 -177 -107q-49 -82 -49 -192v-99v-7v-30zM536 -3q65 0 108 62q32 49 32 109v29q0 82 -59 129q-37 30 -81 30v-50
q50 0 74 -53q13 -31 13 -73q0 -88 -51 -121q-17 -11 -36 -11v-51zM606 552q102 0 140 -100q17 -45 17 -101v-17v-12l1 -325h51l-1 337q1 182 66 211q16 7 33 7v50q-97 -1 -131 -108q-55 107 -176 108v-50zM1031 -3h50v555h74v50h-188v-50h64v-555zM40 31q0 -135 97 -185
q43 -22 97 -22h475v51h-473q-102 0 -134 84q-11 31 -11 71v355q0 86 60 94q8 1 16 1q56 0 71 -50q4 -13 4 -25q0 -38 -34 -56q-16 -7 -36 -8v-51q61 0 99 47q21 27 21 55v29q0 44 -38 79q-35 31 -83 31h-10q-94 0 -115 -94q-6 -24 -6 -51v-355zM762 -125v-51h345
q105 0 159 77q29 42 29 85v235q0 114 -123 144q-20 5 -41 7v-51q58 0 90 -38q23 -28 23 -70v-220q0 -59 -58 -95q-37 -23 -80 -23h-344z" />
    <glyph glyph-name="tml_Lla" unicode="&#xbb3;" horiz-adv-x="908" 
d="M40 169q0 -71 52 -124q45 -45 103 -45v51q-47 0 -79 45q-26 37 -26 85q0 95 71 121q17 6 34 6v51q-58 -1 -103 -39q6 126 73 191q44 43 101 43v51q-114 0 -178 -107q-48 -82 -48 -193v-98v1v-9v-30zM250 0q65 0 108 61q32 49 32 109v30q0 82 -59 129q-37 30 -81 30v-51
q50 0 74 -53q13 -30 13 -72q0 -88 -51 -121q-17 -11 -36 -11v-51zM320 554q103 0 140 -100q17 -44 17 -100v-17v-12l1 -325h51l-1 337q1 179 64 210q16 7 35 7v51q-97 -1 -131 -108q-55 107 -176 108v-51zM745 0h50v554h74v51h-188v-51h64v-554z" />
    <glyph glyph-name="tml_LllI" horiz-adv-x="743" 
d="M369 554h54q28 0 46 -15t24 -39.5t7.5 -37t1.5 -26.5v-2v-240q0 -130 -67 -142q-6 -1 -12 -1v-51q90 0 118 101q12 41 12 96v237q0 142 -95 167q-17 4 -35 4h-1q3 96 62 111q13 3 27 3v51q-133 -2 -139 -165h-3q-84 0 -112 -86q-11 -36 -11 -85v-383h-155v544h-51v-595
h206q0 -145 183 -145h3l63 -1v51q-108 0 -138 9q-58 19 -60 86h72v51h-73v383q2 118 73 120zM652 594v-592h51v595q-2 172 -138 173v-51q72 0 84 -73q3 -20 3 -52zM330 -163q-33 4 -52 27q-25 -26 -70 -22q-56 6 -71 59q-4 15 -4 32h-50q0 -84 59 -122q66 -42 155 5
q17 9 33 21z" />
    <glyph glyph-name="tml_LllIi" horiz-adv-x="716" 
d="M369 554h54q28 0 46 -15t24 -39.5t7.5 -37t1.5 -26.5v-2v-240q0 -130 -67 -142q-6 -1 -12 -1v-51q90 0 118 101q12 41 12 96v237q0 142 -95 167q-17 4 -35 4h-1q-54 113 -1 196q35 55 92 62q7 1 12 1q83 0 99 -61q2 -9 2 -17q0 -52 -47 -67q-11 -3 -20 -3q-28 0 -48 23
q-7 8 -8 15l-32 -38q13 -27 51 -42q18 -7 34 -7q78 0 109 62q27 56 -3 113q-33 67 -117 72h-10q-95 0 -150 -74q-58 -80 -31 -186q6 -25 17 -49h-2q-84 0 -112 -86q-11 -36 -11 -85v-383h-155v544h-51v-595h206q0 -145 183 -145h3l63 -1v51q-108 0 -138 9q-58 19 -60 86h72
v51h-73v383q2 118 73 120zM330 -163q-33 4 -52 27q-25 -26 -70 -22q-56 6 -71 59q-4 15 -4 32h-50q0 -84 59 -122q66 -42 155 5q17 9 33 21z" />
    <glyph glyph-name="tml_LllU" horiz-adv-x="776" 
d="M607 0q86 0 116 96q13 43 13 101v237q0 143 -95 167q-17 4 -34 4v-51q28 0 46 -15t24 -39.5t7.5 -37t1.5 -26.5v-2v-240q0 -130 -67 -142q-6 -1 -12 -1v-51zM224 0h202v-146h50v50h154v-92h-243v-47h233q47 0 55 36q2 10 2 22v75q-2 52 -57 53h-144v49h77v51h-73v383
q2 118 73 120v51q-83 0 -112 -83q-12 -37 -12 -88v-383h-155v544h-50v-595zM41 542l3 -594q0 -123 84 -166q33 -17 74 -17h131v47h-133q-70 0 -96 70q-11 29 -11 62l1 603q1 108 66 109h82v50h-78q-94 0 -117 -103q-6 -29 -6 -61z" />
    <glyph glyph-name="tml_LllUu" horiz-adv-x="881" 
d="M712 2q86 0 116 96q13 43 13 101v237q0 143 -95 167q-17 4 -34 4v-51q28 0 46 -15t24 -39.5t7.5 -37t1.5 -26.5v-2v-240q0 -119 -57 -139q-11 -4 -22 -4v-51zM328 2h203v-148h50v49h156v-91h-245v-47h234q48 0 56 34q2 11 2 24v74q-2 52 -57 53h-146v52h77v51h-73v383
q2 118 73 120v51q-83 0 -112 -83q-12 -37 -12 -88v-383h-155v544h-51v-595zM40 -29q0 -141 85 -188q33 -18 73 -18h240v47h-238q-70 0 -97 75q-12 35 -12 83v400q0 96 57 106q9 2 18 2q55 0 70 -49q4 -12 4 -24q0 -41 -35 -60q-15 -8 -33 -9v-51q59 0 96 50q23 30 23 63v16
q0 52 -42 87q-33 27 -79 27h-10q-95 0 -115 -106q-5 -25 -5 -52v-399z" />
    <glyph glyph-name="tml_Llla" unicode="&#xbb4;" horiz-adv-x="609" 
d="M424 1q83 0 114 89q16 45 16 108v237q0 145 -98 168q-16 3 -32 3v-50q28 0 46 -15t24 -39.5t7.5 -37.5t1.5 -27v-2v-240q0 -130 -67 -142q-6 -1 -12 -1v-51zM41 1h205q0 -146 183 -146h3l63 -1v51q-108 0 -139 9q-58 20 -59 87h73v51h-73v383q2 119 73 121v50
q-84 0 -112 -86q-11 -36 -11 -85v-383h-156v544h-50v-595zM83 -67q0 -84 59 -122q66 -42 155 5q17 9 33 21q-33 4 -52 27q-25 -26 -70 -22q-56 6 -71 59q-4 15 -4 32h-50z" />
    <glyph glyph-name="tml_MI" horiz-adv-x="736" 
d="M558 720q72 0 84 -73q3 -20 3 -52v-594h51v597q-2 172 -138 173v-51zM369 554h54q28 0 46 -15t24 -39.5t7.5 -37t1.5 -26.5v-2v-240q0 -130 -67 -142q-6 -1 -12 -1v-51q90 0 118 101q12 41 12 96v237q0 142 -95 167q-17 4 -35 4h-7q2 105 72 114q8 1 16 1v51
q-135 -2 -139 -166q-74 0 -104 -74q-15 -40 -15 -97v-383h-155v544h-51v-595h329v51h-73v383q2 118 73 120z" />
    <glyph glyph-name="tml_MIi" horiz-adv-x="717" 
d="M369 554h54q28 0 46 -15t24 -39.5t7.5 -37t1.5 -26.5v-2v-240q0 -130 -67 -142q-6 -1 -12 -1v-51q90 0 118 101q12 41 12 96v237q0 142 -95 167q-17 4 -35 4h-3q-50 113 3 194q46 54 103 60q82 0 98 -61q3 -9 3 -17q0 -52 -47 -67q-11 -3 -20 -3q-28 0 -48 23q-7 8 -8 15
l-32 -38q13 -27 51 -42q18 -7 34 -7q78 0 108 62q27 56 -2 113q-33 67 -117 72h-10q-95 0 -150 -74q-58 -79 -31 -186q6 -23 15 -44h-1q-84 0 -112 -86q-11 -36 -11 -85v-383h-155v544h-51v-595h329v51h-73v383q2 118 73 120z" />
    <glyph glyph-name="tml_MU" horiz-adv-x="809" 
d="M639 0q90 0 118 101q12 41 12 96v237q0 142 -95 167q-17 4 -35 4v-51q28 0 46 -15t24 -39.5t7.5 -37t1.5 -26.5v-2v-240q0 -130 -67 -142q-6 -1 -12 -1v-51zM256 0h203v-92h-99v-50h98q44 0 52 41q1 7 1 14v87h74v51h-73v383q2 118 73 120v51q-84 0 -112 -86
q-11 -36 -11 -85v-383h-155v544h-51v-595zM234 -142h72v50h-74q-101 0 -131 69q-10 21 -10 47v529q0 70 56 106q37 24 92 24v50q-123 0 -174 -87q-25 -44 -25 -98v-520q0 -112 97 -152q43 -18 97 -18z" />
    <glyph glyph-name="tml_MUu" horiz-adv-x="910" 
d="M727 -2q90 0 118 101q12 41 12 96v237q0 142 -95 167q-17 4 -35 4v-51q28 0 46 -15t24 -39.5t7.5 -37t1.5 -26.5v-2v-240q0 -130 -67 -142q-6 -1 -12 -1v-51zM344 -2h203v-91h-100v-50h99q45 0 52 43q1 7 1 13v85h74v51h-73v383q2 118 73 120v51q-81 0 -110 -80
q-13 -39 -13 -91v-383h-155v544h-51v-595zM49 26q0 -118 86 -156q32 -13 69 -13h189v50h-187q-80 0 -100 72q-6 21 -6 46v358q0 73 53 91q14 4 28 4q62 0 73 -53q2 -10 2 -20q0 -44 -42 -61q-17 -7 -37 -7v-51q64 0 105 50q24 30 24 63v13q0 57 -46 91q-33 25 -78 25h-7
q-72 0 -107 -64q-20 -36 -19 -81v-357z" />
    <glyph glyph-name="tml_Ma" unicode="&#xbae;" horiz-adv-x="609" 
d="M423 0q90 0 118 101q12 41 12 96v237q0 142 -95 167q-17 4 -35 4v-51q28 0 46 -15t24 -39.5t7.5 -37t1.5 -26.5v-2v-240q0 -130 -67 -142q-6 -1 -12 -1v-51zM40 0h329v51h-73v383q2 118 73 120v51q-84 0 -112 -86q-11 -36 -11 -85v-383h-155v544h-51v-595z" />
    <glyph glyph-name="tml_MatraAa" unicode="&#xbbe;" horiz-adv-x="500" 
d="M341 0h51v544h84v51h-224v-51h89v-544zM58 0h51v544h90v51h-141v-595z" />
    <glyph glyph-name="tml_MatraAi" unicode="&#xbc8;" horiz-adv-x="1043" 
d="M423 158q0 -88 56 -136q37 -32 89 -32v51q-60 0 -84 60q-10 26 -10 58v131q1 166 113 228q129 -61 130 -214v-146q0 -103 -75 -115q-10 -2 -20 -2v-51q98 0 133 89q13 36 13 79v143q-1 164 -121 241q47 12 101 12v51q-88 -1 -160 -33q-86 33 -199 33v-51q78 0 142 -16
q-108 -84 -108 -250v-130zM40 157q0 -88 56 -136q38 -32 90 -32v51q-54 0 -80 49q-14 29 -14 69l-1 132q-1 169 109 232q55 31 135 32v51q-133 0 -212 -79q-83 -82 -83 -236v-133zM251 399q70 0 81 -70q2 -17 2 -44v-128q0 -93 -66 -113q-14 -4 -29 -4v-51q94 0 130 83
q16 38 16 85v128q0 142 -80 151q-5 1 -10 1q-27 -1 -40 -23q-5 -8 -4 -15zM802 545q51 -3 93 -63q49 -71 49 -179v-141q0 -84 -61 -109q-19 -7 -42 -7v-51q96 0 136 81q18 39 18 86v141q0 154 -83 238q-50 51 -110 55v-51z" />
    <glyph glyph-name="tml_MatraAu" unicode="&#xbcc;" horiz-adv-x="1514" 
d="M280 10q66 0 109 62q32 49 32 109v29q0 81 -58 129q-37 30 -83 30v-50q50 0 74 -52q14 -31 14 -74q0 -88 -51 -121q-18 -11 -37 -11v-51zM71 180q0 -72 53 -125q44 -45 101 -45v51q-46 0 -78 45q-26 36 -26 85q0 95 69 121q18 7 35 7v50q-60 -1 -103 -40v132
q0 108 71 154q42 27 103 27v51q-144 0 -199 -113q-26 -53 -26 -119v-281zM350 642q122 0 151 -118q8 -31 8 -63v-461h51v461q0 128 -79 191q-53 41 -131 41v-51zM652 171q0 -71 52 -124q45 -45 103 -45v51q-47 0 -79 45q-26 37 -26 85q0 95 71 121q17 6 34 6v51
q-58 -1 -103 -39q6 126 73 191q44 43 101 43v51q-114 0 -178 -107q-48 -82 -48 -193v-98v1v-9v-30zM862 2q65 0 108 61q32 49 32 109v30q0 82 -59 129q-37 30 -81 30v-51q50 0 74 -53q13 -30 13 -72q0 -88 -51 -121q-17 -11 -36 -11v-51zM932 556q103 0 140 -100
q17 -44 17 -100v-17v-12l1 -325h51l-1 337q1 179 64 210q16 7 35 7v51q-97 -1 -131 -108q-55 107 -176 108v-51zM1357 2h50v554h74v51h-188v-51h64v-554z" />
    <glyph glyph-name="tml_MatraE" unicode="&#xbc6;" horiz-adv-x="633" 
d="M281 0q65 0 108 61q32 49 32 109v30q0 82 -59 129q-37 30 -81 30v-51q50 0 74 -53q13 -30 13 -72q1 -87 -50 -120q-18 -12 -37 -12v-51zM71 169q0 -71 52 -124q45 -45 103 -45v51q-47 0 -79 45q-26 37 -26 85q0 95 71 121q17 6 34 6v51q-58 -1 -104 -40v132q0 102 66 150
q43 31 108 31v50q-143 0 -198 -110q-27 -54 -27 -121v-282zM350 632q122 0 152 -118q8 -31 8 -63v-461h50v461q0 131 -82 192q-52 39 -128 39v-50z" />
    <glyph glyph-name="tml_MatraEe" unicode="&#xbc7;" horiz-adv-x="621" 
d="M413 376q66 0 109 63q31 48 31 107v30q0 82 -59 129q-37 30 -81 30v-51q50 0 74 -51q14 -31 14 -74q0 -88 -51 -121q-18 -11 -37 -11v-51zM204 545q0 -72 53 -125q44 -44 101 -44v51q-48 0 -80 46q-24 35 -24 84q0 95 70 121q18 6 34 6v51h-4q-92 0 -168 -44
q-109 -64 -110 -195v-271q0 -156 147 -213q61 -24 128 -24h5h2v51q-48 0 -80 46q-24 35 -24 84q0 95 70 121q18 6 34 6v51q-70 0 -116 -53q-38 -44 -38 -107v-30q1 -48 27 -92q-107 50 -108 173v254q1 112 99 162q-18 -37 -18 -79v-30zM413 -12q66 0 109 63q31 48 31 107v30
q0 82 -59 129q-37 30 -81 30v-51q50 0 74 -51q14 -31 14 -74q0 -88 -51 -121q-18 -11 -37 -11v-51z" />
    <glyph glyph-name="tml_MatraI" unicode="&#xbbf;" horiz-adv-x="282" 
d="M48 712q127 -5 129 -133v-510h51v513q0 128 -96 166q-37 15 -84 15v-51zM-176 580h51q1 132 119 133v50q-145 0 -167 -137q-3 -22 -3 -46z" />
    <glyph glyph-name="tml_MatraIi" unicode="&#xbc0;" horiz-adv-x="155" 
d="M49 413l66 7q-92 69 -122 185q-28 106 15 174q32 49 91 54q79 0 90 -61q2 -8 2 -17q0 -42 -33 -63q-14 -8 -30 -8q-45 0 -60 34q-3 7 -3 13l-32 -38q4 -22 39 -44q28 -16 56 -16q59 0 94 55q20 32 20 68q0 85 -76 117q-31 12 -67 12q-97 0 -142 -93q-44 -90 -14 -207
q28 -107 106 -172z" />
    <glyph glyph-name="tml_MatraO" unicode="&#xbca;" horiz-adv-x="1065" 
d="M271 6q66 0 109 63q31 48 31 107v30q0 82 -59 129q-37 30 -81 30v-51q50 0 74 -53q13 -30 14 -72q0 -87 -51 -120q-18 -12 -37 -12v-51zM61 175q0 -71 52 -124q45 -45 103 -45v51q-48 0 -80 46q-25 35 -25 84q0 95 71 121q17 6 34 6v51q-58 -1 -104 -40v132q0 102 66 150
q43 31 108 31v50q-143 0 -198 -110q-27 -54 -27 -121v-282zM340 638q122 0 152 -118q8 -31 8 -63v-461h50v461q0 131 -82 192q-52 39 -128 39v-50zM905 0h51v544h84v51h-224v-51h89v-544zM622 0h51v544h90v51h-141v-595z" />
    <glyph glyph-name="tml_MatraOo" unicode="&#xbcb;" horiz-adv-x="1121" 
d="M962 0h51v544h84v51h-224v-51h89v-544zM679 0h51v544h90v51h-141v-595zM413 376q66 0 109 63q31 48 31 107v30q0 82 -59 129q-37 30 -81 30v-51q50 0 74 -51q14 -31 14 -74q0 -88 -51 -121q-18 -11 -37 -11v-51zM204 545q0 -72 53 -125q44 -44 101 -44v51q-48 0 -80 46
q-24 35 -24 84q0 95 70 121q18 6 34 6v51h-4q-92 0 -168 -44q-109 -64 -110 -195v-271q0 -156 147 -213q61 -24 128 -24h5h2v51q-48 0 -80 46q-24 35 -24 84q0 95 70 121q18 6 34 6v51q-70 0 -116 -53q-38 -44 -38 -107v-30q1 -48 27 -92q-107 50 -108 173v254q1 112 99 162
q-18 -37 -18 -79v-30zM413 -12q66 0 109 63q31 48 31 107v30q0 82 -59 129q-37 30 -81 30v-51q50 0 74 -51q14 -31 14 -74q0 -88 -51 -121q-18 -11 -37 -11v-51z" />
    <glyph glyph-name="tml_MatraU" unicode="&#xbc1;" horiz-adv-x="534" 
d="M39 610h280q108 0 122 -58q2 -11 2 -23q0 -27 -23 -49q-20 -18 -46 -18q-50 0 -67 47q-4 12 -4 21h-50q0 -54 44 -92q32 -26 71 -26h14q51 0 86 46q25 33 25 72v7q0 95 -107 117q-29 6 -63 6h-284v-50z" />
    <glyph glyph-name="tml_MatraUu" unicode="&#xbc2;" horiz-adv-x="709" 
d="M47 610h280q108 0 121 -59q2 -10 2 -22q0 -28 -24 -50q-19 -17 -44 -17q-51 0 -67 47q-4 12 -4 21h-51q0 -54 44 -92q32 -26 71 -26h14q51 0 87 46q25 33 25 72v7q0 95 -107 117q-29 6 -63 6h-23q0 140 133 147h14q101 0 134 -64q12 -22 12 -47v-324q0 -69 -57 -79
q-14 -2 -35 -2h-59v-47h59q142 2 143 128v324q0 96 -88 138q-48 23 -109 23q-146 0 -185 -115q-12 -37 -12 -82h-211v-50z" />
    <glyph glyph-name="tml_Month" unicode="&#xbf4;" horiz-adv-x="1012" 
d="M990 642v48q-57 2 -69 17q-10 14 -10 49v116q0 165 -140 193q-26 5 -56 5q-129 0 -172 -108q-16 -42 -16 -94h48q0 117 85 146q25 8 55 8q147 -1 148 -150v-114q0 -84 57 -106q28 -10 70 -10zM793 705q0 103 -96 130q-29 8 -62 8h-250v-50h246q113 -1 114 -89
q0 -35 -26 -59q-21 -19 -53 -19q-63 0 -78 58q-3 11 -3 21h-48q0 -80 66 -112q28 -14 59 -14q74 0 110 54q21 32 21 72zM334 601q-59 69 -50 126q10 48 73 66v50q-106 -12 -125 -96q-16 -65 24 -129q16 -26 36 -40q-48 -44 -47 -144v-383h-155v544h-51v-595h329v51h-73v383
q2 118 73 120v51q-21 0 -34 -5v1zM422 0q90 0 118 101q12 41 12 96v237q0 142 -95 167q-17 4 -35 4v-51q28 0 46 -15t24 -39.5t7.5 -37t1.5 -26.5v-2v-240q0 -130 -67 -142q-6 -1 -12 -1v-51z" />
    <glyph glyph-name="tml_NI" horiz-adv-x="791" 
d="M390 324q60 0 81 -26q22 -29 22 -92l-1 -181q-5 -135 -123 -138h-250q-63 0 -87 -34q-25 -37 -25 -117h51q0 91 34 99q5 1 10 1h268q140 0 168 131q6 28 6 58v181q0 145 -107 165q-21 4 -47 4v-51zM42 0h50v544h80v51h-130v-595zM284 0h52l-1 544h144v51h-111
q0 73 36 101q34 26 100 26v51q-156 0 -181 -123q-5 -25 -5 -55h-83v-51h50zM558 722q122 0 139 -88q3 -18 3 -43v-590h51v593q-2 178 -193 179v-51z" />
    <glyph glyph-name="tml_NIi" horiz-adv-x="623" 
d="M390 324q60 0 81 -26q22 -29 22 -92l-1 -181q-5 -135 -123 -138h-250q-63 0 -87 -34q-25 -37 -25 -117h51q0 91 34 99q5 1 10 1h268q140 0 168 131q6 28 6 58v181q0 145 -107 165q-21 4 -47 4v-51zM42 0h50v544h80v51h-130v-595zM284 0h52l-1 472h1v72h143v51h-144
q-54 114 -1 197q35 54 92 62q7 1 13 1q82 0 98 -61q3 -9 3 -17q0 -52 -47 -67q-11 -3 -20 -3q-28 0 -48 23q-7 8 -8 15l-32 -38q13 -27 51 -42q18 -7 34 -7q78 0 108 62q27 56 -2 113q-33 67 -117 72h-10q-95 0 -150 -74q-58 -79 -31 -185q7 -26 18 -51h-51v-51h50z" />
    <glyph glyph-name="tml_NU" horiz-adv-x="786" 
d="M75 -135v-20q0 -41 50 -67q31 -15 65 -15h114v47h-107q-54 0 -68 33q-12 28 15 46q16 11 41 11h361q-18 -89 -119 -90h-70v-47h71q144 0 168 127l2 10h142v682h-51v-635h-88v204h-51v-204h-365q-68 0 -97 -43q-13 -18 -13 -39zM341 1h52l-1 543h144v51h-440v-5v-589h51
v543h195zM446 323q85 0 100 -70q4 -20 4 -48h51q0 159 -135 168q-10 1 -20 1v-51z" />
    <glyph glyph-name="tml_NUu" horiz-adv-x="1160" 
d="M39 -135v-20q0 -41 50 -67q31 -15 65 -15h113v47h-107q-54 0 -68 33q-12 27 14 45q17 12 43 12h361q-19 -89 -120 -90h-70v-47h71q144 0 168 127l2 10h143v644h58v51h-106v-13h-3v-635h-89v204h-51v-204h-364q-69 0 -98 -44q-12 -18 -12 -38zM304 1h52l-1 543h144v51
h-439v-5v-589h50v543h195zM409 323q85 0 100 -70q4 -20 4 -48h51q0 159 -135 168q-10 1 -20 1v-51zM940 -93h50v637h84v51h-258v-51h124v-637z" />
    <glyph glyph-name="tml_Na" unicode="&#xba8;" horiz-adv-x="629" 
d="M422 324q60 0 81 -26q22 -29 22 -92l-1 -181q-5 -135 -123 -138h-250q-63 0 -87 -34q-25 -37 -25 -117h51q0 91 34 99q5 1 10 1h268q140 0 168 131q6 28 6 58v181q0 145 -107 165q-21 4 -47 4v-51zM74 0h50v544h80v51h-130v-595zM316 0h52l-1 544h144v51h-244v-51h50z
" />
    <glyph glyph-name="tml_NgI" horiz-adv-x="1026" 
d="M713 0h51v595h-50q-34 0 -44 37q-12 42 17 74q24 27 65 27v50q-86 0 -121 -68q-28 -56 -4 -111q26 -55 86 -56v-548zM219 0h441v51h-147q21 28 21 66v112q0 93 -104 118q-30 7 -65 7v-51q117 -2 118 -81v-96q-2 -74 -96 -75h-168v-51zM260 91h51v453h109v51h-401v-4v-591
h51v544h190v-453zM803 732q91 0 104 -88q3 -21 3 -51v-581h51v584q0 152 -101 180q-26 7 -57 7v-51z" />
    <glyph glyph-name="tml_NgIi" horiz-adv-x="1028" 
d="M713 0h51v579l19 16q-75 28 -96 104q-20 72 21 130q43 57 124 58q58 0 90 -40q16 -20 16 -43q0 -58 -45 -71q-9 -3 -18 -3q-37 0 -54 28q-4 8 -4 14l-35 -41q17 -33 60 -46q17 -5 33 -5q71 0 101 62q29 57 0 117q-36 72 -131 79h-15q-104 0 -163 -81q-53 -73 -34 -161
q16 -74 80 -121v-575zM219 0h441v51h-147q21 28 21 66v112q0 93 -104 118q-30 7 -65 7v-51q117 -2 118 -81v-96q-2 -74 -96 -75h-168v-51zM260 91h51v453h109v51h-401v-4v-591h51v544h190v-453z" />
    <glyph glyph-name="tml_NgU" horiz-adv-x="788" 
d="M681 -257h50v852h-50v-544h-146q21 26 21 61v118q0 83 -85 113q-33 11 -69 11v-51q103 -5 104 -75v-100q0 -65 -67 -75q-17 -2 -40 -2h-179v-51h461v-257zM298 176h50v368h109v51h-403v-4v-591h51v544h193v-368z" />
    <glyph glyph-name="tml_NgUu" horiz-adv-x="952" 
d="M134 -246h274v51h-257q-34 0 -53 22q-12 14 -12 32q0 49 43 57q7 1 12 1q56 -7 59 -60h47v8q0 56 -49 84q-26 14 -57 14q-61 0 -90 -48q-14 -24 -14 -51v-20q0 -53 55 -80q23 -10 42 -10zM462 -195v-51h389q61 2 62 62v109q0 46 -49 51q-6 1 -12 1h-88v618h-50v-544h-146
q21 26 21 61v118q0 83 -85 113q-33 11 -69 11v-51q103 -5 104 -75v-100q0 -65 -67 -75q-17 -2 -40 -2h-179v-51h461v-153h50v80h98v-122h-400zM331 176h50v368h109v51h-403v-4v-591h52v544h192v-368z" />
    <glyph glyph-name="tml_Nga" unicode="&#xb99;" horiz-adv-x="848" 
d="M749 0h50v595h-50v-595zM254 0h442v51h-148q21 28 21 66v112q0 93 -104 118q-30 7 -65 7v-51q118 -2 119 -81v-96q-2 -74 -96 -75h-169v-51zM296 91h50v453h109v51h-400v-4v-591h50v544h191v-453z" />
    <glyph glyph-name="tml_Nine" unicode="&#xbef;" horiz-adv-x="949" 
d="M288 -1q142 0 176 121q9 33 9 71v129h218q76 0 106 -15q52 -27 53 -101q0 -74 -70 -97q-18 -6 -32 -6q-53 0 -85 35q-24 27 -24 69h-50q0 -78 60 -124q41 -31 92 -31h16q53 0 98 42q46 45 46 109v14q-2 155 -207 156h-221v173h147v51h-273v-51h75v-173h-177q-20 0 -29 -1
l1 174h76v51h-128v-234q-95 -27 -119 -116q-6 -23 -6 -46v-29q0 -81 57 -129q51 -41 138 -42v51q-131 0 -144 112q-1 13 -1 26q0 113 114 130q17 2 35 2h183v-133q0 -110 -91 -132q-20 -5 -43 -5v-51z" />
    <glyph glyph-name="tml_NnAa.alt" horiz-adv-x="1434" 
d="M40 36q0 -118 85 -174q49 -32 109 -32h494v51h-478q-115 0 -148 86q-11 31 -11 69v482q0 83 50 128q38 34 99 34h52l34 51h-87q-94 0 -150 -63q-49 -57 -49 -150v-482zM783 -119v-51h459q97 0 134 73q15 30 15 66v156q-1 63 -47 89q45 33 45 111v131q0 105 -86 129
q-29 8 -67 8v-51q84 -1 98 -51q4 -16 4 -42v-142q0 -62 -87 -67h-12v-56q58 0 79 -17q21 -18 21 -50v-141q0 -74 -64 -91q-16 -4 -34 -4h-458zM186 167q0 -97 48 -143q26 -25 60 -25v51q-33 0 -48 48q-9 29 -9 70l-1 114q0 180 104 239q45 24 104 25v51q-115 0 -185 -77
q-73 -83 -73 -238v-115zM324 385q69 0 80 -54q4 -18 4 -47v-117q0 -101 -46 -115q-7 -2 -12 -2v-51q70 0 97 83q12 38 12 85v117q-1 137 -90 138q-26 -1 -41 -22q-5 -9 -4 -15zM535 168q0 -96 48 -143q27 -25 62 -25v51q-40 0 -54 64q-5 25 -5 54v113q1 150 86 217
q86 -64 86 -203v-128q0 -107 -51 -116q-5 -1 -9 -1v-51q71 0 99 84q12 38 12 84v125q-1 154 -89 233q49 19 111 19v51q-86 -1 -156 -38q-74 39 -177 39v-51q74 0 129 -22q-92 -82 -92 -244v-112zM884 168q0 -94 47 -141q28 -26 63 -26v51q-34 0 -50 50q-9 29 -9 67v112
q1 155 94 222q78 -62 78 -208v-127q0 -87 -39 -110q-10 -6 -20 -6v-51q66 0 95 77q15 40 15 90v124q-1 159 -80 237q45 17 103 17v51q-82 -1 -149 -34q-62 33 -147 33v-51q55 0 96 -16q-97 -84 -97 -250v-111z" />
    <glyph glyph-name="tml_NnAi" horiz-adv-x="1595" 
d="M349 159q0 -44 12 -81q-65 -52 -146 -38q-67 11 -90 61q-22 49 16 110l217 340q57 95 29 183q-27 87 -124 113q-35 10 -77 10q-87 0 -126.5 -64t-9 -128t112.5 -64q66 1 92 50l-35 39q-8 -29 -40 -37q-9 -2 -18 -2q-49 0 -63 47q-4 13 -4 27q0 33 28 57t73 24
q85 0 126 -57q51 -70 -6 -172q-10 -18 -23 -36l-189 -285q-72 -109 -26 -192q37 -66 127 -79q91 -12 183 41q29 -34 70 -35v51q-33 0 -48 48q-9 29 -9 70l-1 132q-1 165 90 230q48 33 118 34v50q-118 0 -188 -80q-71 -82 -71 -234v-133zM487 394q69 0 81 -52q4 -18 4 -49
v-134q0 -101 -46 -115q-7 -2 -12 -2v-51q68 0 95 81q13 39 13 87v134q-1 138 -90 139q-27 -1 -41 -22q-5 -9 -4 -16zM662 556q75 0 128 -23q-92 -83 -92 -243v-130q0 -96 48 -143q28 -25 63 -25v51q-41 0 -55 66q-5 24 -5 52v131q1 151 86 216q86 -64 86 -202v-146
q-5 -112 -59 -117v-51q71 0 98 85q12 37 12 83v143q-1 155 -88 232q48 20 111 20v50q-89 -1 -157 -38q-73 39 -176 39v-50zM1048 160q0 -94 47 -141q27 -26 62 -26v51q-34 0 -50 50q-9 29 -9 67v130q1 154 94 222q79 -62 79 -208v-145q0 -84 -38 -109q-11 -7 -22 -7v-51
q66 0 95 77q15 40 15 90v142q-1 159 -80 237q48 17 103 17v50q-82 -1 -148 -34q-60 33 -147 33v-50q54 0 97 -16q-98 -85 -98 -250v-129zM1408 3h51v553h97v50h-157v-50h9v-553z" />
    <glyph glyph-name="tml_NnI" horiz-adv-x="1467" 
d="M1043 554h56v-553h50v553h97v51h-96q2 94 53 111q15 5 32 5v51q-132 -2 -136 -167h-56q-84 -1 -154 -36q-63 35 -149 35v-51q57 0 98 -17q-100 -83 -100 -249v-129q0 -94 47 -141q28 -26 63 -26v51q-34 0 -50 50q-9 29 -9 67v130q1 152 96 220q76 -62 76 -206v-145
q0 -89 -40 -111q-9 -5 -19 -5v-51q66 0 95 77q15 40 15 90v142q-1 157 -78 235q49 19 109 19zM40 157q0 -97 48 -143q26 -25 60 -25v51q-32 0 -47 47q-9 29 -9 71l-1 132q-1 170 94 233q47 30 113 31v51q-115 0 -185 -77q-73 -83 -73 -238v-133zM178 392q69 0 80 -53
q4 -17 4 -47v-135q0 -106 -49 -116q-5 -1 -9 -1v-51q69 0 97 82q12 38 12 86v135q-1 137 -90 138q-27 -1 -41 -22q-5 -9 -4 -16zM389 158q0 -96 48 -143q27 -25 62 -25v51q-40 0 -54 64q-5 25 -5 54v131q1 149 86 216q86 -64 86 -202v-146q-6 -110 -60 -117v-51q73 0 100 86
q11 36 11 82v143q-1 154 -88 233q49 19 111 19v51q-87 -1 -157 -38q-74 39 -177 39v-51q74 0 129 -22q-92 -82 -92 -244v-130zM1289 721q69 0 81 -66q4 -21 4 -59v-594h50v597q0 151 -100 170q-17 3 -35 3v-51z" />
    <glyph glyph-name="tml_NnIi" horiz-adv-x="1436" 
d="M1050 554h55v-553h51v553h97v51h-99q-53 111 -1 194q34 54 91 62q7 1 13 1q83 0 99 -61q2 -9 2 -17q0 -52 -47 -67q-11 -3 -20 -3q-29 0 -48 23q-7 9 -7 15l-32 -38q13 -27 50 -42q18 -7 34 -7q78 0 109 62q27 56 -3 113q-33 67 -117 72h-10q-95 0 -149 -75
q-59 -79 -31 -187q6 -23 16 -45h-53q-83 -1 -155 -36q-63 35 -149 35v-51q58 0 99 -17q-100 -83 -100 -249v-129q0 -95 48 -141q26 -26 61 -26v51q-34 0 -50 50q-9 29 -9 67v130q1 152 96 220q77 -61 77 -206v-145q0 -87 -39 -110q-11 -6 -21 -6v-51q66 0 95 77q15 40 15 90
v142q-1 157 -78 235q49 19 110 19zM46 157q0 -97 48 -143q27 -25 61 -25v51q-33 0 -48 48q-9 29 -9 70l-1 132q-1 165 90 230q48 33 118 34v51q-118 0 -188 -80q-71 -82 -71 -235v-133zM184 392q69 0 80 -53q4 -17 4 -47v-135q0 -106 -49 -116q-5 -1 -9 -1v-51q69 0 97 82
q12 38 12 86v135q-1 137 -90 138q-27 -1 -41 -22q-5 -9 -4 -16zM395 158q0 -96 48 -143q28 -25 63 -25v51q-41 0 -55 66q-5 24 -5 52v131q1 150 87 216q85 -65 85 -202v-146q0 -108 -51 -116q-5 -1 -8 -1v-51q71 0 98 85q12 37 12 83v143q-1 154 -88 233q49 19 111 19v51
q-87 -1 -157 -39q-73 40 -176 40v-51q75 0 128 -22q-92 -82 -92 -244v-130z" />
    <glyph glyph-name="tml_NnU" horiz-adv-x="1278" 
d="M76 -133v-20q0 -41 50 -67q31 -15 65 -15h345v47h-342q-44 0 -61 22.5t-1 45t54 22.5h863q-18 -89 -119 -90h-340v-47h341q147 0 170 129q0 5 1 8h118v682h-50v-635h-65v443q0 148 -121 190q-2 1 -3 1v-51q72 -36 72 -141v-442h-867q-69 0 -98 -44q-12 -18 -12 -38z
M61 167q0 -97 48 -143q27 -25 61 -25v51q-33 0 -48 48q-10 29 -10 70v122q-2 185 116 236q41 18 92 18v51q-160 0 -223 -126q-36 -72 -36 -179v-123zM201 400q69 0 80 -58q3 -18 3 -50v-125q0 -105 -50 -116q-5 -1 -10 -1v-51q70 0 98 82q13 38 13 86v125q-7 137 -89 143
q-18 0 -38 -21q-8 -9 -7 -14zM374 168q0 -96 48 -143q27 -25 62 -25v51q-40 0 -54 64q-5 25 -5 54v121q1 158 85 219q87 -57 87 -205v-136q-2 -115 -60 -117v-51q73 0 100 86q11 36 11 82v133q-1 160 -83 234q34 9 71 9v51q-70 -1 -123 -26q-55 26 -139 26v-51q47 0 86 -11
q-86 -80 -86 -245v-120zM803 0v51q-40 0 -54 54q-6 22 -6 47v159q1 134 82 199q86 -58 86 -207v-135q0 -86 -39 -110q-11 -6 -22 -6v-51q66 0 96 76q16 41 16 91v132q-1 163 -84 238q29 8 50 5v50q-43 2 -98 -24q-57 26 -140 26v-51q49 0 86 -12q-84 -76 -84 -223v-158
q0 -85 48 -128q28 -23 63 -23z" />
    <glyph glyph-name="tml_NnUu" horiz-adv-x="1608" 
d="M64 -133v-20q0 -41 50 -67q31 -15 65 -15h345v47h-343q-43 0 -60.5 22.5t-1 45t54.5 22.5h863q-19 -89 -119 -90h-340v-47h341q144 0 168 127l2 10h119v642h56v51h-107v-646h-65v443q-1 150 -123 191v-51q72 -36 72 -141v-442h-867q-69 0 -98 -44q-12 -18 -12 -38z
M49 167q0 -97 48 -143q27 -25 61 -25v51q-33 0 -49 48q-9 29 -9 70l-1 122q-1 179 110 233q43 20 99 21v51q-160 0 -223 -126q-36 -72 -36 -179v-123zM189 400q69 0 80 -60q3 -17 3 -48v-125q0 -100 -47 -115q-7 -2 -13 -2v-51q72 0 98 84q12 38 12 84v125q-1 142 -88 143
q-18 0 -38 -21q-8 -9 -7 -14zM362 168q0 -96 48 -143q27 -25 61 -25v51q-39 0 -53 63q-5 25 -5 55v121q1 158 85 219q87 -57 87 -205v-136q-1 -116 -61 -117v-51q74 0 101 88q11 36 11 80v133q-1 160 -83 234q34 9 71 9v51q-70 -1 -123 -26q-55 26 -139 26v-51q47 0 86 -11
q-86 -80 -86 -245v-120zM791 0v51q-40 0 -54 54q-6 22 -6 47v159q1 134 82 199q86 -58 86 -207v-135q0 -86 -39 -110q-11 -6 -22 -6v-51q67 0 96 77q15 40 15 90v132q-1 164 -84 237q29 9 51 6v50q-44 2 -99 -24q-56 26 -139 26v-51q49 0 86 -12q-84 -76 -84 -223v-158
q0 -85 48 -128q28 -23 63 -23zM1440 -93h50l2 637h84v51h-258v-51h123z" />
    <glyph glyph-name="tml_Nna" unicode="&#xba3;" horiz-adv-x="1286" 
d="M40 157q0 -97 48 -143q26 -25 60 -25v51q-32 0 -48 48q-9 29 -9 70v132q-1 170 94 233q47 30 113 31v51q-115 0 -185 -77q-73 -83 -73 -238v-133zM178 392q69 0 80 -53q4 -17 4 -47v-135q0 -106 -49 -116q-5 -1 -9 -1v-51q69 0 97 82q12 38 12 86v135q-1 137 -90 138
q-27 -1 -41 -22q-5 -9 -4 -16zM389 158q0 -96 48 -143q27 -25 62 -25v51q-40 0 -54 64q-5 25 -5 54v131q1 150 86 217q86 -64 86 -203v-146q0 -103 -49 -116q-6 -1 -11 -1v-51q73 0 100 86q11 36 11 82v143q-1 154 -89 233q49 19 111 19v51q-86 -1 -156 -38q-74 39 -177 39
v-51q74 0 129 -22q-92 -82 -92 -244v-130zM739 553q54 0 97 -16q-98 -83 -98 -250v-129q0 -94 47 -141q28 -26 63 -26v51q-34 0 -50 50q-9 29 -9 67v130q1 155 94 222q78 -62 78 -208v-145q0 -87 -39 -110q-10 -6 -20 -6v-51q66 0 95 77q15 40 15 90v142q-1 159 -80 237
q45 17 103 17v51q-82 -1 -149 -35q-62 34 -147 34v-51zM1099 1h50v553h97v51h-156v-51h9v-553z" />
    <glyph glyph-name="tml_NnnAa.alt" horiz-adv-x="1152" 
d="M40 36q0 -119 86 -175q48 -31 108 -31h363v50h-347q-116 0 -148 88q-11 31 -11 68v483q0 83 50 128q38 34 99 34h52l34 51h-87q-94 0 -150 -63q-49 -57 -49 -150v-483zM666 -120v-50h246q98 0 134 73q15 30 15 65v169q-1 63 -47 89q46 34 46 111v131q0 107 -91 130
q-27 7 -63 7v-51q85 0 98 -52q4 -16 4 -41v-142q0 -62 -87 -67h-12v-56q58 0 79 -17q21 -18 21 -49v-155q0 -74 -64 -91q-16 -4 -34 -4h-245zM214 155q0 -95 48 -142q28 -26 64 -26v51q-35 0 -51 51q-9 28 -9 67l-1 144q-1 179 110 234q43 20 100 21v51q-152 0 -218 -115
q-43 -75 -43 -191v-145zM355 400q70 0 82 -54q4 -17 4 -46v-145q0 -99 -48 -115q-7 -2 -14 -2v-51q73 0 100 85q12 37 12 83v145q-1 137 -91 138q-27 -1 -41 -22q-5 -9 -4 -16zM529 555q72 0 124 -20q-90 -81 -90 -237v-142q0 -93 47 -141q27 -27 63 -27v51q-37 0 -52 59
q-7 26 -7 59v143q1 145 87 210q85 -61 85 -197v-157q-1 -116 -59 -117v-51q76 0 101 92q9 34 9 76v155q-1 152 -85 227q45 17 100 17v51q-82 -1 -148 -35q-70 35 -175 35v-51z" />
    <glyph glyph-name="tml_NnnAi" horiz-adv-x="1595" 
d="M346 154q0 -42 12 -78q-66 -51 -146 -35q-68 13 -89 63q-19 49 18 107l217 340q57 95 29 183q-27 87 -124 113q-35 10 -77 10q-87 0 -126.5 -64t-9 -128t112.5 -64q66 1 92 50l-35 39q-8 -29 -40 -37q-9 -2 -18 -2q-49 0 -63 47q-4 13 -4 27q0 33 28 57t73 24
q85 0 126 -57q51 -70 -6 -172q-10 -18 -23 -36l-189 -285q-72 -109 -26 -192q37 -66 126 -78q90 -12 180 38q31 -37 74 -38v51q-36 0 -52 52q-8 28 -8 66l-1 144q-1 179 110 234q43 20 100 21v51q-156 0 -221 -119q-40 -74 -40 -187v-145zM488 399q70 0 81 -54q4 -17 4 -46
v-145q0 -104 -51 -116q-6 -1 -11 -1v-51q71 0 99 81q14 39 14 87v145q-1 137 -91 138q-27 -1 -41 -22q-5 -9 -4 -16zM661 554q71 0 123 -20q-89 -79 -89 -237v-142q0 -94 48 -142q28 -26 63 -26v51q-41 0 -55 66q-5 24 -5 52v143q1 145 87 210q85 -60 85 -196v-158
q-1 -116 -58 -117v-51q72 0 98 88q11 36 11 80v155q-1 152 -85 227q45 17 100 17v51q-83 -1 -149 -35q-68 35 -174 35v-51zM1055 0h51v555l96 -1v51h-165v-50h18v-555z" />
    <glyph glyph-name="tml_NnnI" horiz-adv-x="1117" 
d="M389 155q0 -93 47 -141q27 -27 63 -27v51q-37 0 -52 59q-7 26 -7 59v143q1 146 87 210q85 -60 85 -196v-158q-1 -116 -59 -117v-51q76 0 101 92q9 34 9 76v155q-1 152 -85 227q45 17 100 17v51q-83 -1 -148 -35q-69 35 -175 35v-51q71 0 123 -20q-89 -79 -89 -237v-142z
M40 154q0 -95 48 -142q28 -26 64 -26v51q-35 0 -51 49q-9 29 -9 69l-1 144q-1 179 110 234q43 20 100 21v51q-152 0 -218 -115q-43 -75 -43 -191v-145zM181 399q69 0 81 -53q4 -17 4 -47v-145q0 -101 -49 -115q-6 -2 -12 -2v-51q73 0 100 85q12 37 12 83v145q-1 137 -91 138
q-27 -1 -41 -22q-5 -9 -4 -16zM731 555h18v-555h50v555l96 -1v51h-95q3 92 56 108q14 4 30 4v51q-131 -2 -137 -163h-18v-50zM940 717q69 0 80 -66q4 -21 4 -59v-591h51v594q0 151 -100 170q-17 3 -35 3v-51z" />
    <glyph glyph-name="tml_NnnIi" horiz-adv-x="1080" 
d="M389 155q0 -93 47 -141q27 -27 63 -27v51q-37 0 -52 59q-7 26 -7 59v143q1 146 87 210q85 -60 85 -196v-158q-1 -116 -59 -117v-51q76 0 101 92q9 34 9 76v155q-1 152 -85 227q45 17 100 17v51q-83 -1 -148 -35q-69 35 -175 35v-51q71 0 123 -20q-89 -79 -89 -237v-142z
M40 154q0 -95 48 -142q28 -26 64 -26v51q-35 0 -51 49q-9 29 -9 69l-1 144q-1 179 110 234q43 20 100 21v51q-152 0 -218 -115q-43 -75 -43 -191v-145zM181 399q69 0 81 -53q4 -17 4 -47v-145q0 -101 -49 -115q-6 -2 -12 -2v-51q73 0 100 85q12 37 12 83v145q-1 137 -91 138
q-27 -1 -41 -22q-5 -9 -4 -16zM731 555h17v-83h1v-472h50v555l96 -1v51h-101q-49 113 5 192q45 54 102 59q83 0 99 -61q2 -9 2 -17q0 -52 -47 -67q-11 -4 -20 -4q-28 0 -48 23q-8 9 -8 16l-32 -38q13 -27 49 -42q19 -8 36 -8q78 0 109 62q27 56 -3 113q-33 67 -117 72h-10
q-95 0 -150 -75q-58 -79 -31 -185q6 -21 14 -40h-13v-50z" />
    <glyph glyph-name="tml_NnnU" horiz-adv-x="1088" 
d="M56 -133v-20q0 -41 50 -67q31 -15 65 -15h262v47h-260q-43 0 -60.5 22.5t-1 45t54.5 22.5h666q-19 -89 -119 -90h-226v-47h227q144 0 168 127l2 10h144v682h-51v-635h-90v452q0 149 -121 190q-2 1 -3 1v-51q73 -37 73 -142v-450h-670q-69 0 -98 -44q-12 -18 -12 -38z
M56 149q0 -86 48 -127q28 -23 63 -23v51q-36 0 -52 44q-8 24 -8 56l-1 237q0 141 163 163q28 4 59 4v51q-152 0 -224 -79q-48 -54 -48 -139v-238zM198 408q70 0 80 -69q3 -18 3 -46v-144q0 -88 -49 -98q-6 -1 -11 -1v-51q74 0 100 79q11 32 11 71v144q0 142 -80 151
q-5 1 -10 1q-27 -1 -40 -23q-5 -8 -4 -14zM530 0v51q-39 0 -55 52q-6 22 -6 48v223q1 99 88 147q90 -46 91 -144v-209q0 -106 -55 -116q-6 -1 -10 -1v-51q77 0 105 88q11 36 11 80v207q-1 111 -80 170q48 11 91 8v50q-48 8 -123 -17q-14 -5 -26 -10q-75 29 -179 29v-51
q66 0 119 -13q-81 -62 -82 -169v-222q0 -84 48 -126q27 -24 63 -24z" />
    <glyph glyph-name="tml_NnnUu" horiz-adv-x="1432" 
d="M56 -133v-20q0 -41 50 -67q31 -15 65 -15h262v47h-260q-43 0 -60.5 22.5t-1 45t54.5 22.5h666q-19 -89 -119 -90h-226v-47h227q144 0 168 127l2 10h144v642h57v51h-108v-646h-90v452q0 149 -121 190q-2 1 -3 1v-51q73 -37 73 -142v-450h-670q-69 0 -98 -44
q-12 -18 -12 -38zM56 149q0 -86 48 -127q28 -23 63 -23v51q-36 0 -52 44q-8 24 -8 56l-1 237q0 141 163 163q28 4 59 4v51q-152 0 -224 -79q-48 -54 -48 -139v-238zM198 408q70 0 80 -69q3 -18 3 -46v-144q0 -88 -49 -98q-6 -1 -11 -1v-51q74 0 100 79q11 32 11 71v144
q0 142 -80 151q-5 1 -10 1q-27 -1 -40 -23q-5 -8 -4 -14zM530 0v51q-39 0 -55 52q-6 22 -6 48v223q1 99 88 147q90 -46 91 -144v-209q0 -106 -55 -116q-6 -1 -10 -1v-51q77 0 105 88q11 36 11 80v207q-1 111 -80 170q48 11 91 8v50q-48 8 -123 -17q-14 -5 -26 -10
q-75 29 -179 29v-51q66 0 119 -13q-81 -62 -82 -169v-222q0 -84 48 -126q27 -24 63 -24zM1261 -93h51v637h84v51h-258v-51h123v-637z" />
    <glyph glyph-name="tml_Nnna" unicode="&#xba9;" horiz-adv-x="935" 
d="M389 155q0 -93 47 -141q27 -27 63 -27v51q-37 0 -52 59q-7 26 -7 59v143q1 146 87 210q85 -60 85 -196v-158q-1 -116 -59 -117v-51q76 0 101 92q9 34 9 76v155q-1 152 -85 227q45 17 100 17v51q-83 -1 -148 -35q-69 35 -175 35v-51q71 0 123 -20q-89 -79 -89 -237v-142z
M40 154q0 -95 48 -142q28 -26 64 -26v51q-35 0 -51 49q-9 29 -9 69l-1 144q-1 179 110 234q43 20 100 21v51q-152 0 -218 -115q-43 -75 -43 -191v-145zM181 399q69 0 81 -53q4 -17 4 -47v-145q0 -101 -49 -115q-6 -2 -12 -2v-51q73 0 100 85q12 37 12 83v145q-1 137 -91 138
q-27 -1 -41 -22q-5 -9 -4 -16zM731 555h18v-555h50v555l96 -1v51h-164v-50z" />
    <glyph glyph-name="tml_Number" unicode="&#xbfa;" horiz-adv-x="997" 
d="M391 324q60 0 81 -26q22 -29 22 -92l-1 -181q-5 -135 -123 -138h-250q-63 0 -87 -33q-25 -37 -25 -118h51q0 91 34 99q4 1 9 1h269q140 0 168 131q6 28 6 58v181q0 145 -107 165q-21 4 -47 4v-51zM42 0h51v544h79v51h-130v-595zM285 0h52l-1 544h143v51h-166
q-55 65 -47 120q9 50 73 68v50q-106 -12 -125 -96q-15 -65 25 -129q5 -7 9 -13h-13v-51h51zM776 695q0 102 -96 130q-29 8 -63 8h-250v-50h246q111 -6 115 -89q0 -34 -25 -58q-22 -20 -55 -20q-62 0 -78 56q-3 12 -3 23h-48q0 -80 66 -112q28 -14 59 -14q73 0 111 54
q21 31 21 72zM973 632v48q-57 2 -69 17q-10 14 -10 49v116q0 160 -132 191q-30 7 -65 7q-129 0 -172 -108q-16 -42 -16 -94h49q0 116 83 145q25 9 56 9q148 -1 149 -150v-114q0 -84 57 -106q28 -10 70 -10z" />
    <glyph glyph-name="tml_NyI" horiz-adv-x="1175" 
d="M243 -169h260v51h-262q-100 0 -132 68q-10 22 -10 48v418q0 67 54 104q39 25 95 25v51q-123 0 -174 -88q-25 -44 -25 -98v-409q0 -110 96 -152q44 -18 98 -18zM558 -120v-51h235q152 0 187 121q9 32 9 70v134q0 153 -135 167q-16 2 -34 2v-51q79 0 103 -42q15 -28 15 -76
v-134q0 -129 -123 -139q-9 -1 -19 -1h-238zM271 173q0 -78 55 -131q43 -42 99 -42v51q-46 0 -78 45q-26 36 -26 85q0 97 71 121q17 6 33 6v51q-58 -1 -103 -39q7 124 77 186q45 40 104 40v51q-119 0 -184 -109q-48 -81 -48 -189v-92v-8v-26zM480 0q65 0 108 61q33 48 33 109
v29q0 90 -63 135q-35 25 -78 25v-51q51 0 75 -53q13 -31 14 -72q0 -87 -51 -120q-19 -12 -38 -12v-51zM716 0h51v544h102v51h-105q0 108 87 124q17 3 37 3v50q-172 -2 -175 -177h-155v-51h158v-544zM942 722q124 0 134 -103q1 -12 1 -28v-589h51v592q-2 177 -186 178v-50z
" />
    <glyph glyph-name="tml_NyIi" horiz-adv-x="1043" 
d="M248 -169h260v51h-261q-100 0 -132 68q-10 22 -10 48v418q0 68 54 104q38 25 94 25v51q-121 0 -173 -86q-26 -45 -26 -100v-409q0 -110 96 -152q44 -18 98 -18zM563 -120v-51h236q153 0 187 124q8 31 8 67v134q0 153 -135 167q-16 2 -34 2v-51q80 0 104 -43
q15 -27 15 -75l-1 -134q0 -132 -126 -140h-15h-239zM276 173q0 -78 55 -131q44 -42 100 -42v51q-48 0 -80 46q-25 36 -25 84q0 97 72 121q17 6 33 6v51q-58 -1 -103 -39q7 124 76 186q45 40 104 40v51q-117 0 -183 -108q-49 -81 -49 -190v-92v1v-9v-26zM486 0q65 0 108 61
q33 49 33 109v29q0 89 -62 134q-36 26 -79 26v-51q49 0 73 -51q15 -31 15 -74q0 -86 -50 -120q-19 -12 -38 -12v-51zM722 0h51v471h1v73h101v51h-102q-54 115 -1 198q34 54 91 61q7 1 12 1q83 0 99 -61q2 -9 2 -17q0 -52 -47 -67q-11 -3 -20 -3q-28 0 -48 23q-7 8 -8 15
l-31 -38q13 -28 51 -42q17 -7 33 -7q78 0 109 62q27 56 -3 113q-33 67 -117 72h-10q-95 0 -150 -74q-58 -79 -30 -186q7 -26 18 -50h-160v-51h159v-544z" />
    <glyph glyph-name="tml_NyU" horiz-adv-x="928" 
d="M42 173q0 -78 55 -131q44 -42 100 -42v51q-46 0 -78 45q-26 36 -26 85q0 97 71 121q17 6 33 6v51q-58 -1 -103 -39q7 124 76 186q45 40 104 40v51q-117 0 -183 -108q-49 -81 -49 -190v-92v1v-9v-26zM252 0q65 0 108 61q33 49 33 109v29q0 89 -62 134q-36 26 -79 26v-51
q50 0 74 -52q14 -31 14 -73q1 -86 -49 -120q-19 -12 -39 -12v-51zM488 0h51v544h102v51h-312v-51h159v-544zM448 -188v-47h125q144 0 168 127l2 10h145v681h-51v-634h-91v208q-1 165 -154 166v-51q73 0 93 -49q10 -26 10 -69v-205h-512q-68 0 -97 -43q-13 -18 -13 -39v-20
q0 -41 50 -67q31 -15 65 -15h207v47h-204q-44 0 -61 22.5t-1 45t54 22.5h508q-19 -89 -119 -90h-124z" />
    <glyph glyph-name="tml_NyUu" horiz-adv-x="1292" 
d="M42 173q0 -78 55 -131q44 -42 100 -42v51q-48 0 -80 46q-25 35 -25 84q0 97 72 121q17 6 33 6v51q-58 -1 -103 -39q7 124 76 186q45 40 104 40v51q-117 0 -183 -108q-49 -81 -49 -190v-92v1v-9v-26zM252 0q65 0 108 61q33 49 33 109v29q0 89 -62 134q-36 26 -79 26v-51
q50 0 74 -52q14 -31 14 -73q0 -87 -51 -120q-18 -12 -37 -12v-51zM488 0h51v544h102v51h-312v-51h159v-544zM1118 -14h50v557h84v52h-222v-52h88v-557zM407 -188v-47h165q144 0 168 127l2 10h142v641h92v52h-142v-646h-89v208q-1 165 -154 166v-51q73 0 93 -49
q10 -26 10 -69v-205h-528q-69 0 -98 -44q-12 -18 -12 -38v-20q0 -41 50 -67q31 -15 65 -15h183v47h-181q-43 0 -60.5 22.5t-1 45t54.5 22.5h524q-19 -89 -119 -90h-164z" />
    <glyph glyph-name="tml_Nya" unicode="&#xb9e;" horiz-adv-x="1038" 
d="M275 173q0 -78 55 -131q43 -42 99 -42v51q-46 0 -78 45q-26 36 -26 85q0 97 71 121q17 6 33 6v51q-58 -1 -103 -39q7 124 76 186q45 40 104 40v51q-118 0 -183 -109q-48 -81 -48 -189v-92v-8v-26zM484 0q65 0 108 61q33 48 33 109v29q0 89 -62 134q-36 26 -79 26v-51
q51 0 75 -53q13 -31 14 -72q0 -87 -51 -120q-19 -12 -38 -12v-51zM720 0h51v544h102v51h-312v-51h159v-544zM246 -169h260v51h-261q-100 0 -132 68q-10 22 -10 48v418q0 67 54 103q38 26 94 26v51q-122 0 -173 -88q-26 -44 -26 -98v-409q0 -110 96 -152q44 -18 98 -18z
M561 -120v-51h236q153 0 187 124q8 31 8 67v134q0 153 -135 167q-16 2 -34 2v-51q80 0 104 -43q15 -27 15 -75v-134q0 -129 -123 -139q-9 -1 -19 -1h-239z" />
    <glyph glyph-name="tml_O" unicode="&#xb92;" horiz-adv-x="829" 
d="M447 644q145 0 233 -106q57 -72 58 -140v-230q-1 -35 -26 -58t-59.5 -27t-68.5 2t-58 28t-24 53v184h-51v-325q0 -78 92 -122q72 -35 177 -35v51q-110 -2 -174 39q-44 29 -45 72v36q60 -46 147 -35q88 10 124 70q17 29 17 64v233q0 73 -55 152q-87 125 -242 143
q-22 2 -45 2v-51zM40 199q0 -71 52 -124q45 -44 102 -45v51q-46 0 -78 45q-26 36 -26 85q0 97 71 121q17 6 33 6v51q-55 -1 -98 -36q14 171 128 245q70 46 170 46v51q-212 0 -303 -171q-51 -96 -51 -214v-78v-3v-30zM249 30q65 0 108 61q33 48 33 109v29q0 83 -59 131
q-37 29 -82 29v-51q50 0 74 -51q15 -31 15 -74q0 -87 -51 -120q-19 -12 -38 -12v-51zM186 -124q37 -96 124 -125q83 -27 158 21q42 27 67 73l-46 26q-38 -71 -109 -77q-70 -7 -118 52q-15 20 -25 43z" />
    <glyph glyph-name="tml_Om" unicode="&#xbd0;" horiz-adv-x="1149" 
d="M308 -527h249v50h-250q-124 1 -125 116v116q0 71 16 96q24 34 86 34v50q-121 0 -145 -103q-8 -33 -8 -82v-107q0 -136 119 -164q27 -6 58 -6zM613 -478v-51h232q153 0 187 124q8 31 8 67v47q0 100 -60 120q-33 7 -109 6v-51q13 0 36 1q50 3 64 -8q18 -17 18 -68v-47
q0 -132 -126 -140h-15h-235zM501 35q0 -24 22 -31q4 -1 9 -1q23 0 30 22q1 6 1 10q0 23 -22 30q-5 1 -9 1q-23 0 -30 -22q-1 -5 -1 -9zM637 -412q63 0 87 27q31 36 31 132v35q0 126 -55 155q-23 12 -59 12v-44q47 0 59 -35q9 -26 9 -88v-38q0 -66 -18 -89q-19 -23 -54 -23
v-44zM337 -412h264v44h-55v155q0 79 12 98q14 20 48 20v44q-74 0 -94 -60q-12 -35 -12 -102v-155h-117v306h-46v-350zM266 389v-51q50 0 74 -52q14 -31 14 -73q1 -87 -50 -120q-19 -12 -38 -12v-51q65 0 108 61q33 49 33 109v29q0 82 -59 130q-37 30 -82 30zM211 389
q-57 -1 -100 -36q7 170 143 237q103 49 298 54v51q-332 0 -436 -143q-60 -84 -60 -242v-78v-3v-30q0 -71 52 -124q46 -45 103 -45v51q-48 0 -80 46q-25 35 -25 84q0 97 72 121q17 6 33 6v51zM1094 165v233q0 167 -143 238q-121 59 -344 59v-51q435 -1 436 -246v-230
q-1 -35 -26 -58t-59.5 -27t-68.5 2t-58 28t-24 53v184h-51v-325q0 -78 92 -122q72 -35 177 -35v51q-110 -2 -174 39q-43 30 -44 72v35q60 -45 147 -34q88 11 124 71q16 29 16 63z" />
    <glyph glyph-name="tml_One" unicode="&#xbe7;" horiz-adv-x="786" 
d="M58 210h51q7 108 108 111h223v-131q0 -114 -85 -143q-22 -7 -48 -7v-51q131 0 171 115q13 40 13 87v130h59q91 0 114 -53q12 -27 12 -71h51q0 127 -77 159q-36 15 -90 15h-69v173h132v51h-258v-51h75v-173h-206l1 173h76v51h-128v-226q-124 -19 -125 -159zM253 -11v51
q-108 0 -135 89q-7 21 -8 44h-52q3 -103 78 -153q49 -31 117 -31zM511 -11q117 0 178 73q34 43 37 97l-54 1q-4 -65 -69 -99q-41 -22 -92 -22v-50z" />
    <glyph glyph-name="tml_Oo" unicode="&#xb93;" horiz-adv-x="829" 
d="M447 644q145 0 233 -106q57 -72 58 -140v-230q-1 -35 -26 -58t-59.5 -27t-68.5 2t-58 28t-24 53v184h-51v-325q0 -78 92 -122q72 -35 177 -35v51q-110 -2 -174 39q-44 29 -45 72v36q60 -46 147 -35q88 10 124 70q17 29 17 64v233q0 73 -55 152q-87 125 -242 143
q-22 2 -45 2v-51zM186 -141q0 -81 62 -127q44 -32 102 -33q106 -1 176 93q17 22 28 45l-45 26q-16 -30 -23 -40q-48 -68 -126 -72q-68 -4 -103 43q-20 27 -20 63q0 80 66 103q23 8 51 8v51q-126 0 -159 -100q-9 -28 -9 -60zM40 199q0 -71 52 -124q45 -44 102 -45v51
q-46 0 -78 45q-26 36 -26 85q0 97 71 121q17 6 33 6v51q-55 -1 -98 -36q14 171 128 245q70 46 170 46v51q-212 0 -303 -171q-51 -96 -51 -214v-78v-3v-30zM249 30q65 0 108 61q33 48 33 109v29q0 83 -59 131q-37 29 -82 29v-51q50 0 74 -51q15 -31 15 -74q0 -87 -51 -120
q-19 -12 -38 -12v-51z" />
    <glyph glyph-name="tml_PI" horiz-adv-x="684" 
d="M272 0h175v595h-52v-1q-34 5 -42 44q-8 43 23 73q23 22 58 22l-1 50q-84 0 -119 -68q-28 -57 -4 -112q26 -55 85 -56v-496h-123v-51zM40 0h176v51h-125v544h-51v-595zM487 732q89 0 102 -84q3 -21 3 -55v-593h52v596q0 145 -91 177q-29 10 -66 10v-51z" />
    <glyph glyph-name="tml_PIi" horiz-adv-x="691" 
d="M272 0h175v595h-2q-75 28 -96 104q-20 72 21 130q43 57 124 58q58 0 91 -40q16 -21 16 -43q0 -57 -45 -71q-10 -3 -19 -3q-37 0 -54 28q-4 8 -4 14l-35 -41q17 -32 60 -46q17 -5 34 -5q70 0 100 60q29 58 1 118q-35 73 -130 79q-9 1 -17 1q-103 0 -162 -80
q-54 -73 -35 -161q18 -87 100 -136v-510h-123v-51zM40 0h176v51h-125v544h-51v-595z" />
    <glyph glyph-name="tml_PU" horiz-adv-x="550" 
d="M288 0h136v-207h51v803h-51v-545h-136v-51zM71 0h163v51h-112v546h-51v-597z" />
    <glyph glyph-name="tml_PUu" horiz-adv-x="695" 
d="M343 0h123v-143h51v141h94v-203h-230v-51h215q53 0 64 48q2 11 2 22v185q0 44 -51 49q-9 1 -19 1h-75v546h-51v-544h-123v-51zM111 0h176v51h-126v544h-50v-595zM328 -205h-165q-45 0 -53 39q-2 11 -2 25q0 47 46 57q7 1 13 1q49 0 55 -47q1 -6 1 -12h47v6q0 63 -53 89
q-23 11 -50 11q-61 0 -91 -46q-16 -25 -16 -56v-15q2 -102 100 -103h168v51z" />
    <glyph glyph-name="tml_Pa" unicode="&#xbaa;" horiz-adv-x="539" 
d="M298 0h175v595h-52v-544h-123v-51zM66 0h176v51h-125v544h-51v-595z" />
    <glyph glyph-name="tml_RI" horiz-adv-x="692" 
d="M154 -177h66l154 177l2 544h112v51h-114q0 107 68 118q9 2 19 2v51q-135 -2 -137 -171h-89v-51h89v-523zM40 0h51v544h90v51h-141v-595zM515 715q71 0 83 -70q3 -21 3 -55v-587h51v590q0 167 -126 173h-11v-51z" />
    <glyph glyph-name="tml_RI.alt" horiz-adv-x="691" 
d="M514 716q71 0 83 -70q3 -21 3 -55v-591h51v594q0 167 -126 173h-11v-51zM323 0h51v544h99v51h-99q0 107 66 119q10 2 20 2v51q-135 -2 -137 -172h-89v-51h89v-544zM40 0h51v544h90v51h-141v-595z" />
    <glyph glyph-name="tml_RIi" horiz-adv-x="667" 
d="M154 -177h66l154 177l2 544h112v51h-113q-54 115 -2 198q35 54 91 61q7 1 12 1q83 0 99 -61q2 -9 2 -17q0 -52 -47 -67q-11 -3 -20 -3q-28 0 -48 23q-7 8 -8 15l-31 -38q13 -28 51 -42q17 -7 33 -7q78 0 109 62q27 56 -3 113q-33 67 -117 72h-10q-95 0 -150 -74
q-58 -79 -30 -186q7 -26 18 -50h-89v-51h89v-523zM40 0h51v544h90v51h-141v-595z" />
    <glyph glyph-name="tml_RIi.alt" horiz-adv-x="667" 
d="M323 0h51v544h99v51h-98q-54 115 -2 198q34 54 91 61q6 1 12 1q82 0 98 -61q3 -9 3 -17q0 -52 -47 -67q-11 -3 -20 -3q-28 0 -48 23q-7 8 -8 15l-32 -38q13 -27 51 -42q18 -7 34 -7q78 0 108 62q27 56 -2 113q-33 67 -117 72h-10q-95 0 -150 -74q-58 -79 -31 -185
q7 -26 18 -51h-89v-51h89v-544zM40 0h51v544h90v51h-141v-595z" />
    <glyph glyph-name="tml_RU" horiz-adv-x="895" 
d="M41 64q0 -132 92 -185q45 -26 102 -26h211v50h-212q-88 0 -124 71q-19 38 -19 89v224q0 121 91 154q27 9 58 9v51q-100 0 -155 -67q-44 -54 -44 -142v-228zM501 -97v-50h165q105 0 159 78q28 41 28 84v174q0 122 -129 147q-17 3 -34 4v-51q62 0 93 -42q19 -27 19 -66
v-155q0 -58 -55 -97q-38 -26 -82 -26h-164zM300 1h50v543h97v51h-147v-594zM583 1h51l2 543h112v51h-247v-51h82v-543z" />
    <glyph glyph-name="tml_RUu" horiz-adv-x="1072" 
d="M133 29q0 -114 80 -157q34 -18 77 -18h311v50h-309q-72 0 -98 63q-10 27 -10 61v234q0 81 49 93q12 3 25 3q55 0 69 -51q3 -11 3 -23q0 -39 -33 -58q-16 -8 -35 -9v-50q59 0 96 50q22 29 22 61v15q0 47 -38 84q-33 32 -80 32h-10q-95 0 -115 -100q-4 -23 -4 -48v-232z
M656 -96v-50h153q92 0 133 78q21 39 21 84v205q-1 107 -130 119v-51q48 0 69 -35q10 -18 10 -41v-186q0 -76 -54 -109q-23 -14 -50 -14h-152zM443 1h50v543h109v51h-159v-594zM726 1h51l2 543h112v51h-235v-51h70v-543z" />
    <glyph glyph-name="tml_RVirama.alt" horiz-adv-x="513" 
d="M40 0h51v544h90v51h-141v-595zM194 725q0 -29 26 -39q7 -2 14 -2q27 0 38 25q3 8 3 16q0 28 -26 39q-8 3 -15 3q-27 0 -37 -26q-3 -8 -3 -16zM323 0h51v544h99v51h-239v-51h89v-544z" />
    <glyph glyph-name="tml_Ra" unicode="&#xbb0;" horiz-adv-x="528" 
d="M154 -177h66l154 177l2 544h112v51h-254v-51h89v-523zM40 0h51v544h89v51h-140v-595z" />
    <glyph glyph-name="tml_RrAa.alt" horiz-adv-x="861" 
d="M425 -172v51h-165q-112 0 -147 84q-13 32 -13 73v483h-50v-483q0 -120 85 -176q49 -32 109 -32h181zM475 -172h196q97 0 134 73q15 30 15 66v169q-1 60 -45 88q44 36 45 118v133q0 106 -96 126q-26 5 -58 5v-51q82 0 97 -47q5 -17 5 -45v-140q0 -59 -63 -70
q-13 -3 -29 -3h-12v-55q54 0 74 -11q30 -18 31 -56v-153q0 -70 -59 -90q-18 -6 -40 -6h-195v-51zM409 556q53 0 67 -44q7 -23 7 -61l2 -450h51l-2 451q1 103 79 104v51q-69 -1 -104 -43q-34 43 -100 43v-51zM237 1h53l-2 472q0 55 36 75q14 8 32 8v51q-76 0 -107 -71
q-12 -28 -12 -56v-479z" />
    <glyph glyph-name="tml_RrI" horiz-adv-x="818" 
d="M40 -263h51q0 114 53 131q14 4 30 4h290q109 2 146 104q14 40 14 88v411q0 58 -43 98q-17 16 -37 24v17q8 104 87 105v51q-132 -2 -138 -164v-51q54 0 73 -49q7 -20 7 -46v-398q0 -94 -60 -127q-23 -13 -51 -13h-282q-101 0 -128 -90q-12 -39 -12 -95zM70 0h53l-2 472
q0 55 36 75q14 8 32 8v51q-77 0 -108 -72q-11 -28 -11 -55v-479zM242 555q53 0 67 -44q7 -23 7 -61l2 -450h50l-2 451q1 103 76 104v51q-65 -1 -100 -43q-34 43 -100 43v-51zM685 719q71 0 83 -70q3 -21 3 -55v-535h51v538q0 167 -126 173h-11v-51z" />
    <glyph glyph-name="tml_RrIi" horiz-adv-x="792" 
d="M40 -263h51q0 114 53 131q14 4 30 4h290q109 2 146 104q14 40 14 88v411q0 57 -43 97q-17 16 -38 25q-55 119 -2 203q35 55 93 62q7 1 12 1q82 0 98 -61q3 -9 3 -17q0 -52 -47 -67q-11 -3 -20 -3q-28 0 -48 23q-7 8 -8 15l-32 -38q13 -27 51 -42q18 -7 34 -7q78 0 108 62
q27 56 -2 113q-42 68 -127 71q-96 0 -151 -75q-59 -80 -30 -192q7 -25 18 -49v-41q54 0 73 -49q7 -20 7 -46v-398q0 -94 -60 -127q-23 -13 -51 -13h-282q-101 0 -128 -90q-12 -39 -12 -95zM70 0h53l-2 472q0 55 36 75q14 8 32 8v51q-77 0 -108 -72q-11 -28 -11 -55v-479z
M242 555q53 0 67 -44q7 -23 7 -61l2 -450h50l-2 451q1 103 76 104v51q-65 -1 -100 -43q-34 43 -100 43v-51z" />
    <glyph glyph-name="tml_RrU" horiz-adv-x="899" 
d="M73 -135v-20q0 -41 50 -67q31 -15 65 -15h141v47h-135q-54 0 -68 33q-12 28 15 46q17 11 42 11h415q-14 -89 -86 -90h-129v-47h130q117 0 134 131q1 4 1 6h143v683h-50v-636h-91v530q0 59 -43 98q-36 31 -86 31v-51q53 0 72 -49q7 -20 7 -46v-513h-417q-69 0 -98 -43
q-12 -18 -12 -39zM271 555q62 0 72 -62q1 -10 1 -20l2 -473h51l-3 474q0 60 53 77q12 4 23 4v51q-65 -1 -100 -38q-35 38 -99 38v-51zM98 0h53l-2 472q0 55 36 75q14 8 32 8v51q-73 0 -105 -64q-14 -29 -14 -63v-479z" />
    <glyph glyph-name="tml_RrUu" horiz-adv-x="1204" 
d="M43 -135v-20q1 -42 51 -67q31 -15 65 -15h140v47h-134q-54 0 -68 33q-12 28 15 46q16 11 41 11h415q-14 -89 -86 -90h-129v-47h130q118 1 136 137h143v645h106v51h-157v-649h-90v530q0 58 -43 97q-35 32 -87 32v-51q53 0 72 -49q7 -20 7 -46v-513h-417q-69 0 -98 -43
q-12 -18 -12 -39zM241 555q62 0 72 -62q1 -10 1 -20l2 -473h51l-2 474q0 61 53 77q12 4 22 4v51q-65 -1 -100 -38q-35 38 -99 38v-51zM68 0h53l-2 472q0 55 36 75q14 8 32 8v51q-73 0 -105 -64q-14 -29 -14 -63v-479zM1030 -15h51v560h84v51h-243v-51h108v-560z" />
    <glyph glyph-name="tml_Rra" unicode="&#xbb1;" horiz-adv-x="666" 
d="M40 -263h51q0 114 53 131q14 4 30 4h290q109 2 146 104q14 40 14 88v411q0 58 -43 98q-36 33 -88 33v-51q54 0 73 -49q7 -20 7 -46v-398q0 -94 -60 -127q-23 -13 -51 -13h-282q-101 0 -128 -90q-12 -39 -12 -95zM70 0h53l-2 472q0 55 36 75q14 8 32 8v51q-77 0 -108 -72
q-11 -28 -11 -55v-479zM242 555q53 0 67 -44q7 -23 7 -61l2 -450h50l-2 451q1 103 76 104v51q-65 -1 -100 -43q-34 43 -100 43v-51z" />
    <glyph glyph-name="tml_Rupee" unicode="&#xbf9;" horiz-adv-x="1035" 
d="M1011 722v48q-57 2 -69 17q-10 14 -10 48v117q0 165 -140 193q-26 5 -56 5q-129 0 -172 -108q-16 -42 -16 -94h48q0 117 85 146q25 8 55 8q147 -1 148 -150v-114q0 -84 57 -106q28 -10 70 -10zM814 784q0 105 -98 132q-28 7 -60 7h-250v-51h246q113 -1 114 -89
q0 -35 -26 -59q-21 -19 -53 -19q-63 0 -78 58q-3 11 -3 21h-49q0 -80 67 -112q28 -14 59 -14q74 0 110 54q21 32 21 72zM40 30q0 -135 97 -185q43 -22 97 -22h201v51h-192q-137 0 -151 130q-1 12 -1 25v513q0 72 44 90q25 10 77 10h148l-1 49h-13q-58 76 -37 130
q16 36 68 51v50q-105 -12 -125 -94q-15 -65 25 -129q3 -5 5 -8h-71q-107 0 -143 -45q-28 -36 -28 -103v-513zM489 -126v-51h154q106 0 159 78q27 40 27 84v236q0 118 -129 146q-17 3 -34 5v-51q45 0 78 -28q33 -29 34 -76v-225q0 -57 -50 -93q-35 -25 -78 -25h-161zM559 0
l52 1l2 534h111v60h-235v-60h70v-535zM277 1l56 -1v535h103v60h-157h-2v-594z" />
    <glyph glyph-name="tml_SI" horiz-adv-x="1287" 
d="M676 555q81 0 88 -112q1 -17 1 -45v-283q0 -56 51 -91q35 -24 77 -24v51q-44 0 -66 34q-10 16 -10 32v288q0 180 -112 199q-14 2 -29 2v-51zM947 0q101 0 145 81q21 39 21 86v259q0 136 -103 162q-29 8 -64 8q-24 13 -24 51q-1 52 50 74q26 11 60 11v51q-112 0 -151 -78
q-28 -57 -4 -112q22 -46 63 -48q100 0 117 -67q5 -21 5 -54v-257q0 -63 -45 -95q-29 -21 -70 -21v-51zM40 169q0 -71 52 -124q45 -45 103 -45v51q-47 0 -79 45q-26 37 -26 85q0 95 71 121q17 6 34 6v51q-58 -1 -103 -39q6 126 74 191q44 43 102 43v51q-115 0 -179 -107
q-49 -83 -49 -193v-98v1v-9v-30zM250 0q65 0 108 61q32 49 32 109v30q0 82 -59 129q-37 30 -81 30v-51q50 0 74 -53q13 -30 13 -72q0 -88 -51 -121q-17 -11 -36 -11v-51zM322 554q103 0 140 -100q17 -44 17 -100v-354h52l-1 339q1 156 42 196q19 19 50 19v51
q-95 -1 -125 -105q-57 104 -175 105v-51zM1086 731q94 0 107 -94q2 -19 2 -45v-591h51v594q0 161 -116 184q-21 4 -44 4v-52z" />
    <glyph glyph-name="tml_SIi" horiz-adv-x="1259" 
d="M1002 546q-70 27 -82 105q-11 72 32 128q45 56 116 51q61 0 89 -43q12 -19 12 -41q0 -52 -41 -68q-11 -4 -21 -4q-42 0 -55 27q-3 5 -3 10l-32 -40q18 -34 62 -44q13 -3 25 -3q70 -1 102 60q29 57 1 117q-34 72 -130 79h-16q-110 0 -164 -87q-47 -78 -25 -172
q18 -75 103 -120q3 -2 6 -3q43 -22 45 -63q1 -2 1 -12v-294q-1 -77 -80 -78v-51q99 0 124 84q6 21 6 45v295q0 56 -17 81q-20 27 -58 41zM676 555q81 0 88 -112q1 -17 1 -45v-283q0 -56 51 -91q35 -24 77 -24v51q-44 0 -66 34q-10 16 -10 32v288q0 180 -112 199q-14 2 -29 2
v-51zM40 169q0 -71 52 -124q45 -45 102 -45v51q-46 0 -78 45q-26 37 -26 85q0 94 69 120q18 7 35 7v51q-57 -1 -102 -39q6 126 74 191q44 43 102 43v51q-115 0 -179 -107q-49 -83 -49 -193v-98v1v-9v-30zM249 0q66 0 109 63q32 48 32 107v30q0 81 -58 129q-37 30 -83 30v-51
q50 0 74 -51q14 -31 14 -74q0 -88 -51 -121q-18 -11 -37 -11v-51zM322 554q103 0 140 -100q17 -44 17 -100v-354h51v326q0 159 36 203q22 25 56 25v51q-95 -1 -125 -105q-57 104 -175 105v-51z" />
    <glyph glyph-name="tml_SU" horiz-adv-x="1472" 
d="M676 555q81 0 88 -112q1 -17 1 -45v-283q0 -56 51 -91q35 -24 77 -24v51q-44 0 -66 34q-10 16 -10 32v288q0 180 -112 199q-14 2 -29 2v-51zM947 0q101 0 145 81q21 39 21 86v259q0 78 -33 120h177q108 0 122 -58q2 -11 2 -23q0 -27 -23 -49q-20 -18 -46 -18
q-51 0 -66 48q-4 11 -4 20h-51q0 -54 43 -92q32 -27 72 -27h14q50 0 86 46q26 34 26 73v7q0 94 -105 117q-30 7 -66 7h-322v-51h1v-1q100 0 117 -67q5 -21 5 -54v-257q0 -63 -45 -95q-29 -21 -70 -21v-51zM40 169q0 -71 52 -124q45 -45 102 -45v51q-46 0 -78 45
q-26 37 -26 85q0 94 69 120q18 7 35 7v51q-57 -1 -102 -39q6 126 74 191q44 43 102 43v51q-115 0 -179 -107q-49 -83 -49 -193v-98v1v-9v-30zM249 0q66 0 109 63q32 48 32 107v30q0 81 -58 129q-37 30 -83 30v-51q50 0 74 -51q14 -31 14 -74q0 -88 -51 -121q-18 -11 -37 -11
v-51zM322 554q103 0 140 -100q17 -44 17 -100v-354h51v326q0 159 36 203q22 25 56 25v51q-95 -1 -125 -105q-57 104 -175 105v-51z" />
    <glyph glyph-name="tml_SUu" horiz-adv-x="1621" 
d="M676 555q81 0 88 -112q1 -17 1 -45v-283q0 -56 51 -91q35 -24 77 -24v51q-44 0 -66 34q-10 16 -10 32v288q0 180 -112 199q-14 2 -29 2v-51zM947 0q101 0 145 81q21 39 21 86v259q0 78 -33 120h176q110 0 121 -61q2 -9 2 -19q0 -28 -24 -50q-19 -17 -44 -17q-51 0 -67 47
q-4 12 -4 21h-51q0 -54 43 -92q32 -27 72 -27h14q50 0 86 46q26 34 26 73v7q0 95 -107 117q-29 6 -63 6h-23q2 145 147 146q102 0 135 -64q11 -22 11 -46v-324q0 -72 -62 -80q-13 -2 -30 -2h-59v-47h59q142 2 143 129v324q0 96 -88 138q-48 23 -109 23q-146 0 -185 -115
q-12 -37 -12 -82h-247v-52q100 0 117 -67q5 -21 5 -54v-257q0 -63 -45 -95q-29 -21 -70 -21v-51zM40 169q0 -71 52 -124q45 -45 102 -45v51q-46 0 -78 45q-26 37 -26 85q0 94 69 120q18 7 35 7v51q-57 -1 -102 -39q6 126 74 191q44 43 102 43v51q-115 0 -179 -107
q-49 -83 -49 -193v-98v1v-9v-30zM249 0q66 0 109 63q32 48 32 107v30q0 81 -58 129q-37 30 -83 30v-51q50 0 74 -51q14 -31 14 -74q0 -88 -51 -121q-18 -11 -37 -11v-51zM322 554q103 0 140 -100q17 -44 17 -100v-354h51v326q0 159 36 203q22 25 56 25v51q-95 -1 -125 -105
q-57 104 -175 105v-51z" />
    <glyph glyph-name="tml_Sa" unicode="&#xbb8;" horiz-adv-x="1170" 
d="M707 555q82 0 89 -116q1 -16 1 -41v-283q0 -56 51 -92q34 -23 76 -23v51q-44 0 -66 34q-10 16 -10 32v288q0 167 -95 195q-22 6 -46 6v-51zM978 0q101 0 145 81q21 39 21 86v259q0 138 -106 163q-30 7 -67 7v-51q99 0 117 -66q5 -20 5 -55v-257q0 -64 -46 -96
q-28 -20 -69 -20v-51zM71 169q0 -76 55 -128q44 -41 100 -41v51q-48 0 -80 46q-24 36 -24 84q0 95 70 121q18 6 34 6v51q-58 -1 -103 -39q6 126 74 191q44 43 102 43v51q-113 0 -178 -106q-50 -83 -50 -194v-98v1v-9v-30zM281 0q66 0 109 63q31 48 31 107v30q0 82 -59 129
q-37 30 -81 30v-51q50 0 74 -51q14 -31 14 -74q0 -88 -51 -121q-18 -11 -37 -11v-51zM353 554q104 0 142 -102q15 -44 16 -98v-354h51l-1 339q1 159 45 198q20 17 47 17v51q-93 -1 -125 -106q-55 105 -175 106v-51z" />
    <glyph glyph-name="tml_Seven" unicode="&#xbed;" horiz-adv-x="670" 
d="M43 173q0 -78 55 -131q44 -42 100 -42v51q-48 0 -80 46q-25 35 -25 84q0 97 72 121q17 6 33 6v51q-58 -1 -103 -39q7 124 76 186q45 40 104 40v51q-117 0 -183 -108q-49 -81 -49 -190v-92v1v-9v-26zM253 0q64 0 107 61q34 48 34 109v29q0 89 -62 134q-36 26 -79 26v-51
q49 0 73 -51q15 -31 15 -74q0 -86 -50 -120q-19 -12 -38 -12v-51zM489 0h51v544h102v51h-312v-51h159v-544z" />
    <glyph glyph-name="tml_ShI" horiz-adv-x="1003" 
d="M40 137q0 -85 56 -120q29 -17 66 -17h7v51q-77 2 -78 89v455h-51v-458zM223 0h8q76 0 109 73q13 30 13 58v413h124v-407q0 -93 64 -125q26 -12 57 -12h6v51q-75 2 -76 89v404h210v-407q0 -62 -49 -81q-15 -5 -31 -5v-51h6q72 0 107 64q18 32 18 69v462h-106q0 102 60 119
q13 3 28 3v51q-137 -2 -139 -173h-329v-460q0 -61 -50 -79q-15 -5 -30 -5v-51zM825 717q73 0 85 -74q3 -20 3 -51v-590h50v593q-2 172 -138 173v-51z" />
    <glyph glyph-name="tml_ShIi" horiz-adv-x="1033" 
d="M836 887q58 0 90 -40q16 -20 16 -43q0 -58 -45 -71q-9 -3 -18 -3q-37 0 -54 28q-4 8 -4 14l-35 -41q17 -33 60 -46q17 -5 33 -5q71 0 101 62q29 57 0 117q-36 72 -131 79h-15q-103 0 -162 -80q-54 -73 -36 -161q13 -59 57 -102h-390v-460q0 -61 -50 -79q-15 -5 -30 -5
v-51h8q76 0 109 73q13 30 13 58v413h124v-407q0 -93 64 -125q26 -12 57 -12h6v51q-75 2 -76 89v404h210v-407q0 -62 -49 -81q-15 -5 -31 -5v-51h6q72 0 107 64q18 32 18 69v462h-2q-75 28 -96 104q-20 72 21 130q43 57 124 58zM40 137q0 -85 56 -120q29 -17 66 -17h7v51
q-77 2 -78 89v455h-51v-458z" />
    <glyph glyph-name="tml_ShU" horiz-adv-x="1232" 
d="M40 137q0 -85 56 -120q29 -17 66 -17h7v51q-77 2 -78 89v455h-51v-458zM223 0h8q76 0 109 73q13 30 13 58v413h124v-407q0 -93 64 -125q26 -12 57 -12h6v51q-75 2 -76 89v404h210v-407q0 -62 -49 -81q-15 -5 -31 -5v-51h6q72 0 107 64q18 32 18 69v411h229q110 0 122 -62
q2 -9 2 -19q0 -27 -23 -49q-20 -18 -46 -18q-50 0 -67 47q-4 12 -4 21h-50q0 -53 42 -90q32 -28 72 -28h15q51 0 86 46q25 33 25 72v8q0 91 -99 115q-32 8 -71 8h-719v-460q0 -61 -50 -79q-15 -5 -30 -5v-51z" />
    <glyph glyph-name="tml_ShUu" horiz-adv-x="1343" 
d="M738 544v-407q0 -62 -49 -81q-15 -5 -31 -5v-51h6q72 0 107 64q18 32 18 69v411h189q110 0 122 -60q2 -10 2 -20q0 -27 -23 -49q-20 -18 -46 -18q-50 0 -67 47q-4 12 -4 21h-50q0 -54 42 -92q32 -27 72 -27h15q51 0 86 47q25 34 25 72v7q0 95 -107 117q-29 6 -63 6h-22
q8 142 146 146q103 0 136 -65q10 -21 10 -45v-324q0 -71 -60 -80q-13 -2 -32 -2h-59v-47h59q142 2 143 129v324q0 96 -88 138q-48 23 -109 23q-142 0 -183 -111q-13 -38 -14 -86h-606v-460q0 -61 -50 -79q-15 -5 -30 -5v-51h8q76 0 109 73q13 30 13 58v413h124v-407
q0 -93 64 -125q26 -12 57 -12h6v51q-75 2 -76 89v404h210zM40 137q0 -85 56 -120q29 -17 66 -17h7v51q-77 2 -78 89v455h-51v-458z" />
    <glyph glyph-name="tml_Sha" unicode="&#xbb6;" horiz-adv-x="869" 
d="M56 137q0 -85 56 -120q29 -17 66 -17h7v51q-77 2 -78 89v455h-51v-458zM239 0h8q76 0 109 73q13 30 13 58v413h124v-407q0 -93 64 -125q26 -12 57 -12h6v51q-75 2 -76 89v404h210v-407q0 -62 -49 -81q-15 -5 -31 -5v-51h6q72 0 107 64q18 32 18 69v462h-486v-460
q0 -61 -50 -79q-15 -5 -30 -5v-51z" />
    <glyph glyph-name="tml_Shree" horiz-adv-x="1157" 
d="M40 -264h51q0 107 42 124q12 4 26 4h676q94 2 136 89q22 46 22 103l-1 417q0 80 -69 114q-27 13 -62 16q-51 114 3 194q44 55 101 60q83 0 99 -61q2 -9 2 -17q0 -52 -47 -67q-11 -3 -20 -3q-29 0 -48 23q-7 9 -7 15l-32 -38q13 -28 51 -42q17 -7 33 -7q79 0 109 62
q27 56 -3 113q-43 67 -127 71q-94 0 -149 -74q-59 -79 -31 -186q6 -23 15 -44q-62 -8 -98 -40q-34 42 -100 42v-51q72 -2 73 -97l2 -456h51l-2 456q2 96 100 97q102 -3 103 -96l4 -395q1 -92 -54 -130q-27 -18 -59 -18h-662q-93 0 -118 -85q-10 -37 -10 -93zM80 0h176v51
h-125v544h-51v-595zM312 0h178l-2 470q0 52 34 74q16 9 36 9v51q-77 0 -108 -71q-12 -28 -12 -56v-426h-126v-51z" />
    <glyph glyph-name="tml_Six" unicode="&#xbec;" horiz-adv-x="1042" 
d="M288 -1q142 0 176 121q9 33 9 71v129h217v-318h50l1 318h154v-318h50l1 318h56v51h-529v173h147v51h-273v-51h75v-173h-177q-20 0 -29 -1l1 174h76v51h-128v-234q-95 -27 -119 -116q-6 -23 -6 -46v-29q0 -81 57 -129q51 -41 138 -42v51q-131 0 -144 112q-1 13 -1 26
q0 113 114 130q17 2 35 2h183v-133q0 -110 -91 -132q-20 -5 -43 -5v-51z" />
    <glyph glyph-name="tml_SsI" horiz-adv-x="1322" 
d="M319 554q107 0 150 -95q20 -46 21 -105v-269q0 -26 -15 -31q-11 -3 -53 -3v-51h386v51h-267v304q-1 116 -67 187q-59 63 -155 63v-51zM40 169q0 -71 52 -124q45 -45 103 -45v51q-48 0 -80 46q-25 35 -25 84q0 97 72 121q17 6 33 6v51q-58 -1 -103 -39q5 125 72 191
q45 43 104 43v51q-119 0 -182 -112q-46 -81 -46 -191v-95v-8v-30zM250 0q65 0 108 61q32 49 32 109v30q0 82 -59 129q-37 30 -81 30v-51q49 0 73 -50q14 -32 14 -75q0 -88 -51 -121q-18 -11 -36 -11v-51zM1069 737q153 0 162 -124v-13v-598h51v601q0 119 -98 163
q-48 22 -115 22v-51zM1096 0h47v209h-136v204q0 138 -70 176q-29 15 -71 19q7 128 148 129v51q-170 0 -195 -142q-3 -18 -4 -38q-111 -6 -140 -86q-13 -37 -13 -89v-99q0 -144 91 -169q24 -7 56 -7v50q-61 0 -82 40q-14 27 -14 72v113q0 35 9 60t20 37t30.5 18t31 7t31.5 1
h1q67 0 92 -28q29 -34 29 -115v-204h-95v-51h95v-30h50v30h89v-106h-89v36h-50v-36h-95v-51h95v-179h50v178h89z" />
    <glyph glyph-name="tml_SsIi" horiz-adv-x="1183" 
d="M319 554q107 0 150 -95q20 -46 21 -105v-269q0 -26 -15 -31q-11 -3 -53 -3v-51h386v51h-267v304q-1 116 -67 187q-59 63 -155 63v-51zM40 169q0 -71 52 -124q45 -45 103 -45v51q-48 0 -80 46q-25 35 -25 84q0 97 72 121q17 6 33 6v51q-58 -1 -103 -39q5 125 72 191
q45 43 104 43v51q-119 0 -182 -112q-46 -81 -46 -191v-95v-8v-30zM250 0q65 0 108 61q32 49 32 109v30q0 82 -59 129q-37 30 -81 30v-51q49 0 73 -50q14 -32 14 -75q0 -88 -51 -121q-18 -11 -36 -11v-51zM1096 0h47v209h-136v204q0 138 -70 176q-30 15 -73 19
q-53 111 -1 193q35 55 92 62q7 1 12 1q83 0 99 -61q2 -9 2 -17q0 -52 -47 -67q-11 -3 -20 -3q-28 0 -48 23q-7 8 -8 15l-31 -38q13 -28 51 -42q17 -7 33 -7q78 0 109 62q27 56 -3 113q-33 67 -117 72h-10q-95 0 -150 -75q-57 -79 -30 -186q6 -23 16 -45q-111 -6 -139 -89
q-12 -36 -12 -86v-99q0 -144 91 -169q24 -7 56 -7v50q-61 0 -82 40q-14 27 -14 72v113q0 35 9 60t20 37t30.5 18t31 7t31.5 1h1q67 0 92 -28q29 -34 29 -115v-204h-95v-51h95v-30h50v30h89v-106h-89v36h-50v-36h-95v-51h95v-179h50v178h89z" />
    <glyph glyph-name="tml_SsU" horiz-adv-x="1399" 
d="M250 0q65 0 108 61q32 49 32 109v30q0 82 -59 129q-37 30 -81 30v-51q49 0 73 -50q14 -32 14 -75q0 -88 -51 -121q-18 -11 -36 -11v-51zM40 169q0 -71 52 -124q45 -45 103 -45v51q-48 0 -80 46q-25 35 -25 84q0 97 72 121q17 6 33 6v51q-58 -1 -103 -39q5 125 72 191
q45 43 104 43v51q-119 0 -182 -112q-46 -81 -46 -191v-95v-8v-30zM319 554q107 0 150 -95q20 -46 21 -105v-269q0 -26 -15 -31q-11 -3 -53 -3v-51h386v51h-267v304q-1 116 -67 187q-59 63 -155 63v-51zM662 334q0 -144 91 -169q24 -7 56 -7v50q-61 0 -82 40q-14 27 -14 72
v114q0 114 75 121q9 1 21 1v51q-115 0 -139 -101q-8 -32 -8 -73v-99zM1096 0h47v209h-136v204q0 94 -34 143h212q108 0 122 -58q2 -11 2 -23q0 -27 -23 -49q-20 -18 -46 -18q-50 0 -67 47q-4 12 -4 21h-50q0 -53 43 -90q32 -28 72 -28h14q51 0 86 46q25 33 25 72v8
q0 91 -99 115q-32 8 -71 8h-325h-2v-51q57 0 78 -43q17 -36 17 -100v-204h-95v-51h95v-30h50v30h89v-106h-89v36h-50v-36h-95v-51h95v-179h50v178h89z" />
    <glyph glyph-name="tml_SsUu" horiz-adv-x="1545" 
d="M319 554q107 0 150 -95q20 -46 21 -105v-269q0 -26 -15 -31q-11 -3 -53 -3v-51h386v51h-267v304q-1 116 -67 187q-59 63 -155 63v-51zM662 334q0 -144 91 -169q24 -7 56 -7v50q-61 0 -82 40q-14 27 -14 72v114q0 114 75 121q9 1 21 1v51q-115 0 -139 -101q-8 -32 -8 -73
v-99zM40 169q0 -71 52 -124q45 -45 103 -45v51q-48 0 -80 46q-25 35 -25 84q0 97 72 121q17 6 33 6v51q-58 -1 -103 -39q5 125 72 191q45 43 104 43v51q-119 0 -182 -112q-46 -81 -46 -191v-95v-8v-30zM250 0q65 0 108 61q32 49 32 109v30q0 82 -59 129q-37 30 -81 30v-51
q49 0 73 -50q14 -32 14 -75q0 -88 -51 -121q-18 -11 -36 -11v-51zM1096 0h47v209h-136v204q0 96 -35 144h208q112 0 123 -63q1 -9 1 -17q0 -27 -23 -49q-20 -18 -46 -18q-50 0 -67 47q-4 12 -4 21h-50q0 -54 42 -92q32 -27 72 -27h15q51 0 86 47q25 34 25 72v7
q0 95 -107 117q-29 6 -63 6h-22q8 142 146 146q103 0 136 -65q10 -21 10 -45v-324q0 -71 -60 -80q-13 -2 -32 -2h-59v-47h59q142 2 143 129v324q0 96 -88 138q-48 23 -109 23q-142 0 -183 -111q-13 -38 -14 -86h-249v-52q57 0 78 -43q17 -36 17 -100v-204h-95v-51h95v-30h50
v30h89v-106h-89v36h-50v-36h-95v-51h95v-179h50v178h89z" />
    <glyph glyph-name="tml_Ssa" unicode="&#xbb7;" horiz-adv-x="1258" 
d="M250 0q65 0 108 61q32 49 32 109v30q0 82 -59 129q-37 30 -81 30v-51q49 0 73 -50q14 -32 14 -75q0 -88 -51 -121q-18 -11 -36 -11v-51zM40 169q0 -71 52 -124q45 -45 103 -45v51q-48 0 -80 46q-25 35 -25 84q0 97 72 121q17 6 33 6v51q-58 -1 -103 -39q5 125 72 191
q45 43 104 43v51q-119 0 -182 -112q-46 -81 -46 -191v-95v-8v-30zM319 554q107 0 150 -95q20 -46 21 -105v-269q0 -26 -15 -31q-11 -3 -53 -3v-51h386v51h-267v304q-1 116 -67 187q-59 63 -155 63v-51zM662 334q0 -144 91 -169q24 -7 56 -7v50q-61 0 -82 40q-14 27 -14 72
v114q0 114 75 121q9 1 21 1v51q-115 0 -139 -101q-8 -32 -8 -73v-99zM1096 0h47v209h-136v204q-1 193 -145 194v-51q57 0 78 -43q17 -36 17 -100v-204h-95v-51h95v-30h50v30h89v-106h-89v36h-50v-36h-95v-51h95v-179h50v178h89z" />
    <glyph glyph-name="tml_TI" horiz-adv-x="875" 
d="M68 -263h52q0 104 37 122q12 5 27 5h256q134 0 194 86q31 44 31 96v105h-50l-1 -103q0 -73 -68 -109q-43 -24 -107 -24h-246q-82 0 -109 -67q-16 -41 -16 -111zM40 164q0 -108 96 -146q43 -16 100 -16v51q-117 0 -139 77q-5 16 -6 34h-51zM40 206h49q0 85 88 110
q26 7 51 7h195v-133q-7 -133 -134 -137v-51q140 0 175 120q9 34 9 72v129h35q66 0 89 -37q18 -29 18 -81h50q0 135 -95 161q-30 8 -74 8h-23v170h132v51h-132q0 96 66 119q25 8 56 8v51q-169 -2 -172 -178h-76v-51h76v-170h-187q-13 0 -19 -1v171h76v51h-128v-230
q-97 -27 -119 -112q-6 -22 -6 -47zM649 722q124 0 134 -103q1 -13 1 -28v-592h51v595q-2 178 -186 179v-51z" />
    <glyph glyph-name="tml_TI.alt" horiz-adv-x="882" 
d="M71 -263h52q0 104 37 122q12 5 27 5h256q134 0 194 86q31 44 31 96v105h-50v-103q0 -72 -68 -109q-45 -24 -108 -24h-246q-82 0 -109 -67q-16 -41 -16 -111zM43 164q0 -108 96 -146q43 -16 100 -16v51q-117 0 -139 77q-5 16 -6 34h-51zM43 206h49q0 85 88 110q26 7 51 7
h195v-133q-7 -133 -134 -137v-51q140 0 175 120q9 34 9 72v129h35q66 0 89 -37q18 -29 18 -81h50q0 135 -95 161q-30 8 -74 8h-23v170h132v51h-258v-51h76v-170h-187q-13 0 -19 -1v171h76v51h-128v-230q-12 -3 -31 -11q-57 213 64 328q82 78 209 83h13v50q-166 0 -267 -103
q-108 -111 -86 -290q6 -48 21 -98q-48 -46 -48 -118zM477 765q179 0 259 -122q54 -84 54 -217v-367h52v370q-1 281 -204 359q-71 27 -161 27v-50z" />
    <glyph glyph-name="tml_TIi" horiz-adv-x="766" 
d="M68 -263h52q0 104 37 122q12 5 27 5h256q134 0 194 86q31 44 31 96v105h-50l-1 -103q0 -73 -68 -109q-43 -24 -107 -24h-246q-82 0 -109 -67q-16 -41 -16 -111zM40 164q0 -108 96 -146q43 -16 100 -16v51q-117 0 -139 77q-5 16 -6 34h-51zM40 206h49q0 85 88 110
q26 7 51 7h195v-133q-7 -133 -134 -137v-51q140 0 175 120q9 34 9 72v129h35q66 0 89 -37q18 -29 18 -81h50q0 135 -95 161q-30 8 -74 8h-23v98h1v72h131v51h-132q-54 115 -1 198q34 54 91 61q6 1 12 1q83 0 99 -61q2 -9 2 -17q0 -52 -47 -67q-11 -3 -20 -3q-28 0 -48 23
q-7 8 -8 15l-31 -38q13 -28 51 -42q17 -7 33 -7q78 0 109 62q27 56 -3 113q-33 67 -117 72h-10q-95 0 -150 -74q-58 -79 -30 -186q7 -26 18 -50h-76v-51h76v-170h-187q-13 0 -19 -1v171h76v51h-128v-230q-97 -27 -119 -112q-6 -22 -6 -47z" />
    <glyph glyph-name="tml_TIi.alt" horiz-adv-x="744" 
d="M72 -263h52q0 104 37 122q12 5 27 5h256q134 0 194 86q31 44 31 96v105h-51v-103q0 -73 -68 -109q-43 -24 -107 -24h-246q-82 0 -109 -67q-16 -41 -16 -111zM44 164q0 -111 100 -147q42 -15 96 -15v51q-117 0 -139 77q-5 16 -6 34h-51zM44 206h49q0 84 87 110q26 7 51 7
h195v-133q-2 -136 -133 -137v-51q140 0 175 120q9 34 9 72v129h35q65 0 88 -37q18 -29 18 -81h51q0 135 -95 161q-30 8 -74 8h-23v170h132v51h-258v-51h75v-170h-186q-13 0 -20 -1v171h77v51h-128v-230q-19 -6 -39 -15q-54 204 9 345q39 86 114 124q84 42 196 44
q65 1 119 -15q55 -15 76 -59q12 -25 6 -48q-13 -53 -60 -57q-10 -1 -19 1q-24 6 -41 33q-8 13 -6 21l-38 -33q16 -46 64 -65q9 -3 17 -5q68 -16 110 39q27 35 28 80q0 74 -69 118q-27 17 -60 26q-166 42 -315 -20q-19 -8 -36 -17q-120 -64 -157 -221q-35 -150 19 -322
q-43 -46 -43 -113z" />
    <glyph glyph-name="tml_TU" horiz-adv-x="860" 
d="M372 -243h127q152 1 171 139h130v686h-51v-639h-77v213h-51v-213h-472q-71 0 -99 -44q-11 -17 -11 -37v-23q0 -41 50 -67q31 -15 65 -15h164v47h-158q-55 0 -68 34q-12 28 14 46q17 12 43 12h469q-23 -89 -120 -92h-126v-47zM50 155q2 -152 189 -153v51q-78 0 -107 26
q-28 25 -31 76h-51zM246 374q-13 0 -20 -1l1 171h72v51h-124v-230q-98 -24 -120 -110q-5 -22 -5 -45h49q0 87 93 108q23 5 46 5l190 -1v-132q0 -118 -103 -135q-16 -2 -32 -2v-51q138 0 175 116q11 35 11 76v128h33q55 0 76 -16q33 -26 33 -96h51q0 133 -101 157
q-29 7 -69 7h-23v170h133v51h-259v-51h75v-170h-182z" />
    <glyph glyph-name="tml_TUu" horiz-adv-x="1208" 
d="M339 -243h126q153 1 172 139h130v648h90v51h-141v-652h-77v213h-51v-213h-472q-71 0 -99 -44q-11 -17 -11 -37v-23q0 -41 50 -67q31 -15 65 -15h164v47h-158q-55 0 -68 34q-12 28 14 46q17 12 43 12h469q-17 -91 -121 -92h-125v-47zM17 155q2 -152 189 -153v51
q-78 0 -107 26q-28 25 -31 76h-51zM213 374q-14 0 -21 -1l1 171h73v51h-124v-230q-98 -24 -120 -110q-5 -22 -5 -45h49q0 87 93 108q23 5 46 5l190 -1v-132q0 -118 -103 -135q-16 -2 -32 -2v-51q138 0 175 116q11 35 11 76v128h33q55 0 76 -16q33 -26 33 -96h51
q0 133 -101 157q-29 7 -69 7h-23v170h133v51h-259v-51h75v-170h-182zM1000 -94h51v638h84v51h-224v-51h89v-638z" />
    <glyph glyph-name="tml_Ta" unicode="&#xba4;" horiz-adv-x="707" 
d="M68 -263h52q0 104 37 122q12 5 27 5h256q134 0 194 86q31 44 31 96v105h-51v-103q0 -73 -68 -109q-43 -24 -107 -24h-246q-82 0 -109 -67q-16 -41 -16 -111zM40 164q0 -111 100 -147q42 -15 96 -15v51q-117 0 -139 77q-5 16 -6 34h-51zM40 206h49q0 85 88 110q26 7 51 7
h194v-133q-2 -136 -133 -137v-51q140 0 175 120q9 34 9 72v129h35q65 0 88 -37q18 -29 18 -81h51q0 135 -95 161q-30 8 -74 8h-23v170h132v51h-258v-51h75v-170h-186q-13 0 -20 -1l1 171h76v51h-128v-230q-97 -27 -119 -112q-6 -22 -6 -47z" />
    <glyph glyph-name="tml_Ten" unicode="&#xbf0;" horiz-adv-x="645" 
d="M476 0q88 0 117 89q9 28 9 56v450l-101 134h-59l109 -147v-428q0 -77 -46 -98q-13 -6 -29 -6v-50zM42 146q0 -91 61 -129q28 -17 59 -17v50q-39 0 -59 38q-11 24 -11 58v449h-50v-449zM216 0q53 0 76 15q15 10 28 26q29 -39 85 -41h17v50q-47 0 -63 32q-13 26 -13 68v445
h-51v-445q0 -35 -8 -57.5t-22.5 -30.5t-24 -10t-23.5 -2h-1v-50z" />
    <glyph glyph-name="tml_Thousand" unicode="&#xbf2;" horiz-adv-x="1063" 
d="M660 -61q96 0 126 88q10 31 10 69v224h128v51h-451v173h147v51h-273v-51h75v-173h-177q-20 0 -29 -1l1 174h76v51h-128v-234q-95 -27 -119 -116q-6 -23 -6 -46v-29q0 -81 57 -129q51 -41 138 -42v51q-131 0 -144 112q-1 13 -1 26q0 113 114 130q17 2 35 2h183v-133
q0 -110 -91 -132q-20 -5 -43 -5v-51q142 0 176 121q9 33 9 71v129h276v-220q-2 -113 -90 -114q-35 0 -59 26q-19 21 -19 53q0 63 58 78q11 3 21 3v47q-81 0 -113 -67q-13 -27 -13 -57q0 -74 55 -110q31 -20 71 -20zM596 -258h47q2 57 18 70q15 10 49 10h116q148 0 186 115
q11 35 11 79q0 130 -108 172q-42 16 -93 16v-47q112 0 144 -80q10 -27 10 -61q0 -141 -139 -147h-11h-114q-84 0 -106 -57q-10 -28 -10 -70z" />
    <glyph glyph-name="tml_Three" unicode="&#xbe9;" horiz-adv-x="734" 
d="M255 0h395v51h-80q20 25 20 61v118q0 95 -108 118q-29 6 -61 6v-51q105 -3 117 -59q2 -8 2 -16v-105q0 -59 -65 -69q-20 -3 -53 -3h-167v-51zM316 177h50v367h109v51h-399v-4v-591h51v544h189v-367z" />
    <glyph glyph-name="tml_TtI" horiz-adv-x="711" 
d="M458 555q44 0 69 -43q16 -28 16 -67l1 -394h-112q-94 51 -148 164q-36 75 -37 148q-2 108 66 160q38 28 92 32v51q-134 -7 -186 -123q-23 -53 -24 -118q0 -123 74 -230q35 -52 79 -84h-308v-51h504v-199h51v199h76v51h-76v395q0 87 -60 133q-35 27 -77 27v-51zM40 106h51
v491l-51 -1v-490z" />
    <glyph glyph-name="tml_TtIi" horiz-adv-x="612" 
d="M40 0h633v51h-303q-99 85 -122 218q-21 125 37 209q44 62 119 77q58 12 98 -30q32 -33 32 -82q0 -47 -35 -78q-29 -24 -71 -24q-31 0 -56 27q-13 15 -16 31l-33 -38q8 -26 46 -50q34 -22 71 -22q64 0 108 52q34 43 36 103q2 94 -70 138q-46 27 -108 24q-122 -6 -179 -123
q-53 -107 -27 -244q22 -115 91 -188h-251v-51zM40 106h51v490h-51v-490z" />
    <glyph glyph-name="tml_TtU" horiz-adv-x="685" 
d="M111 325h-50v-319q0 -88 65 -141q44 -35 97 -35h98v51h-82q-82 0 -115 67q-13 27 -13 57v320zM61 388h50v214q0 93 69 120q22 9 49 9h212q88 0 121 -63q13 -26 13 -57v-60h50v59q0 105 -87 149q-42 22 -94 22h-216q-90 0 -136 -66q-31 -44 -31 -109v-218zM375 -119v-51
h67q125 0 170 90q18 36 18 77v142q-2 127 -132 128h-76v-51h77q78 -7 80 -77v-141q0 -76 -68 -104q-31 -13 -72 -13h-64zM317 0h51v593l-51 -1v-592z" />
    <glyph glyph-name="tml_TtUu" horiz-adv-x="735" 
d="M40 315v-309q0 -88 65 -141q45 -35 98 -35h96v51h-80q-84 0 -116 68q-12 27 -12 56v310h-51zM91 377v193q0 87 57 132q35 28 82 28h273q110 0 127 -49q5 -14 5 -32q0 -56 -53 -67q-8 -2 -16 -2q-39 0 -59 30q-11 17 -11 40h-51q0 -69 52 -102q27 -18 60 -18h16
q60 0 93 48q20 31 20 72v10q0 93 -114 115q-33 6 -72 6h-271q-91 0 -146 -69q-43 -57 -43 -138v-197h51zM353 -119v-51h66q127 0 171 91q17 35 17 76v227q-5 126 -131 128h-131v241l-51 -1v-592h51v301h132q78 -7 80 -77v-226q0 -77 -69 -105q-31 -12 -72 -12h-63z" />
    <glyph glyph-name="tml_Tta" unicode="&#xb9f;" horiz-adv-x="640" 
d="M84 0h489v51h-489v-51zM84 106h52v490h-52v-490z" />
    <glyph glyph-name="tml_Two" unicode="&#xbe8;" horiz-adv-x="915" 
d="M40 472q0 -111 87 -161q46 -26 101 -26q70 0 118 63q51 69 36 156h-51q13 -59 -19 -114q-32 -53 -85 -54q-86 0 -121 68q-15 31 -15 68q-1 89 65 138q48 35 116 35q97 0 157 -64q53 -58 53 -151h51q0 145 -100 217q-68 49 -161 49q-123 0 -188 -88q-44 -59 -44 -136z
M80 0h795v51h-574q128 68 191 178q41 72 41 147h-51q0 -95 -83 -187q-99 -109 -247 -133q-36 -5 -72 -5v-51z" />
    <glyph glyph-name="tml_U" unicode="&#xb89;" horiz-adv-x="996" 
d="M92 492q5 87 74 131q45 29 106 29q131 0 183 -101q28 -53 28 -129h50q0 227 -177 271q-38 9 -84 9q-116 0 -184 -80q-47 -57 -47 -130h51zM260 0h712v48h-712v-48zM58 43q0 -31 19 -38q14 -5 40 -5h89v48h-95v96l229 1q164 0 189 145q4 23 4 48v39h-50v-38
q0 -95 -49 -124q-34 -20 -97 -21h-222q-43 0 -52 -21q-5 -12 -5 -32v-98zM93 461h-52q0 -105 70 -152q42 -27 101 -27q94 0 137 65q23 36 24 83l-46 26q0 -104 -80 -120q-17 -3 -36 -3q-76 0 -106 74q-11 27 -12 54z" />
    <glyph glyph-name="tml_Uu" unicode="&#xb8a;" horiz-adv-x="1390" 
d="M92 492q5 87 74 131q45 29 106 29q131 0 183 -101q28 -53 28 -129h50q0 227 -177 271q-38 9 -84 9q-116 0 -184 -80q-47 -57 -47 -130h51zM58 43q0 -31 19 -38q14 -5 40 -5h89v48h-95v96l229 1q164 0 189 145q4 23 4 48v39h-50v-38q0 -95 -49 -124q-34 -20 -97 -21h-222
q-43 0 -52 -21q-5 -12 -5 -32v-98zM93 461h-52q0 -105 70 -152q42 -27 101 -27q94 0 137 65q23 36 24 83l-46 26q0 -104 -80 -120q-17 -3 -36 -3q-76 0 -106 74q-11 27 -12 54zM800 149q80 1 119 67q19 33 19 67q0 4 -1 16v10q0 81 -62 117q-32 18 -74 18v-48q86 -3 88 -96
v-3q1 -74 -59 -94q-15 -5 -30 -5v-49zM613 314v-32q0 -68 54 -107q37 -26 86 -26v49q-67 0 -86 58q-6 19 -6 41q0 73 64 94q15 4 28 5v48q-48 -1 -92 -32q5 89 64 141q42 36 96 36h4v48h-2q-112 0 -173 -100q-37 -60 -37 -122v-97v-4zM871 590h2q86 0 113 -81q10 -31 10 -69
v-4v-7l1 -280h49l-4 292q0 127 56 146q11 3 23 3v48h-8q-72 -1 -101 -75q-44 74 -140 75h-1v-48zM1169 590h72v-441h49v441h60v48h-181v-48zM259 0h1076v48h-1076v-48z" />
    <glyph glyph-name="tml_VI" horiz-adv-x="1007" 
d="M250 0q65 0 108 61q32 49 32 109v30q0 82 -59 129q-37 30 -81 30v-51q49 0 73 -50q14 -32 14 -75q0 -88 -51 -121q-18 -11 -36 -11v-51zM40 169q0 -71 52 -124q45 -45 103 -45v51q-48 0 -80 46q-25 35 -25 84q0 97 72 121q17 6 33 6v51q-58 -1 -103 -39q5 125 72 191
q45 43 104 43v51q-119 0 -182 -112q-46 -81 -46 -191v-95v-8v-30zM319 554q107 0 150 -95q20 -46 21 -105v-269q0 -26 -15 -31q-11 -3 -53 -3v-51h235v51h-116v304q-1 116 -67 187q-59 63 -155 63v-51zM712 0h52v595h-49q-34 4 -42 43q-10 44 21 74q23 22 58 22v50
q-84 0 -119 -68q-29 -56 -5 -112q25 -54 84 -56v-548zM806 733q90 0 102 -87q3 -20 3 -52v-594h52v597q0 145 -91 177q-29 10 -66 10v-51z" />
    <glyph glyph-name="tml_VIi" horiz-adv-x="1007" 
d="M250 0q65 0 108 61q32 49 32 109v30q0 82 -59 129q-37 30 -81 30v-51q49 0 73 -50q14 -32 14 -75q0 -88 -51 -121q-18 -11 -36 -11v-51zM40 169q0 -71 52 -124q45 -45 103 -45v51q-48 0 -80 46q-25 35 -25 84q0 97 72 121q17 6 33 6v51q-58 -1 -103 -39q5 125 72 191
q45 43 104 43v51q-119 0 -182 -112q-46 -81 -46 -191v-95v-8v-30zM319 554q107 0 150 -95q20 -46 21 -105v-269q0 -26 -15 -31q-11 -3 -53 -3v-51h235v51h-116v304q-1 116 -67 187q-59 63 -155 63v-51zM712 0h52v595h-3q-75 28 -96 104q-20 72 21 130q43 57 124 58
q58 0 91 -40q16 -21 16 -43q0 -58 -45 -71q-9 -3 -18 -3q-36 0 -54 27q-5 9 -5 15l-34 -41q17 -33 60 -46q17 -5 33 -5q70 0 100 60q29 58 1 118q-35 73 -130 79q-9 1 -17 1q-103 0 -162 -80q-53 -73 -35 -161q19 -87 101 -136v-561z" />
    <glyph glyph-name="tml_VU" horiz-adv-x="836" 
d="M251 0q66 0 109 63q32 48 32 107v30q0 81 -58 129q-37 30 -83 30v-51q50 0 74 -52q14 -31 14 -73q0 -89 -51 -121q-18 -11 -37 -11v-51zM42 169q0 -71 52 -124q45 -45 102 -45v51q-46 0 -78 45q-26 36 -26 85q0 97 71 121q17 6 33 6v51q-59 -1 -102 -39q5 125 72 191
q45 43 104 43v51q-120 0 -183 -113q-45 -81 -45 -190v-95v-8v-30zM321 554q106 0 149 -95q20 -46 21 -105v-269q0 -26 -14 -31q-11 -3 -53 -3v-51h235v51h-116v304q-1 116 -67 187q-59 63 -155 63v-51zM713 -206h52v801h-52v-801z" />
    <glyph glyph-name="tml_VUu" horiz-adv-x="957" 
d="M267 0q66 0 109 63q32 48 32 107v30q0 81 -58 129q-37 30 -83 30v-51q50 0 74 -52q14 -31 14 -73q0 -89 -51 -121q-18 -11 -37 -11v-51zM58 169q0 -72 53 -125q44 -44 101 -44v51q-46 0 -78 45q-26 36 -26 85q0 97 71 121q17 6 33 6v51q-59 -1 -102 -39q5 125 72 191
q45 43 104 43v51q-120 0 -183 -113q-45 -81 -45 -190v-95v-8v-30zM337 554q106 0 149 -95q20 -46 21 -105v-269q0 -26 -14 -31q-11 -3 -53 -3v-51h235v51h-116v304q-1 116 -67 187q-59 63 -155 63v-51zM451 -256v51h-289q-44 0 -52 37q-2 12 -2 27q0 48 46 57q6 1 12 1
q49 0 55 -47q1 -6 1 -12h47v6q0 63 -53 89q-23 11 -50 11q-61 0 -91 -46q-16 -25 -16 -56v-15q2 -102 100 -103h292zM504 -205v-51h349q53 0 64 48q2 11 2 22v185q0 42 -47 49q-11 1 -23 1h-67v163h-1v383h-51v-738h52v141h87v-203h-365z" />
    <glyph glyph-name="tml_Va" unicode="&#xbb5;" horiz-adv-x="803" 
d="M250 0q65 0 108 61q32 49 32 109v30q0 82 -59 129q-37 30 -81 30v-51q49 0 73 -50q14 -32 14 -75q0 -88 -51 -121q-18 -11 -36 -11v-51zM40 169q0 -71 52 -124q45 -45 103 -45v51q-48 0 -80 46q-25 35 -25 84q0 97 72 121q17 6 33 6v51q-58 -1 -103 -39q5 125 72 191
q45 43 104 43v51q-119 0 -182 -112q-46 -81 -46 -191v-95v-8v-30zM319 554q107 0 150 -95q20 -46 21 -105v-269q0 -26 -15 -31q-11 -3 -53 -3v-51h235v51h-116v304q-1 116 -67 187q-59 63 -155 63v-51zM712 0h52v595h-52v-595z" />
    <glyph glyph-name="tml_Virama" unicode="&#xbcd;" horiz-adv-x="0" 
d="M-39 725q0 -29 26 -39q7 -2 14 -2q27 0 37 25q3 8 3 16q0 28 -25 39q-8 3 -15 3q-29 0 -38 -28q-2 -7 -2 -14z" />
    <glyph glyph-name="tml_Visarga" unicode="&#xb83;" horiz-adv-x="676" 
d="M116 194q46 0 68 -40q9 -17 9 -36q0 -46 -40 -68q-18 -9 -37 -9q-44 0 -65 39q-10 18 -10 38q0 45 39 67q17 9 36 9zM336 583q45 0 66 -39q9 -18 9 -37q0 -45 -39 -67q-17 -9 -36 -9q-45 0 -67 39q-9 18 -9 37q0 45 39 67q18 9 37 9zM559 197q45 0 67 -39q9 -17 9 -37
q0 -45 -39 -67q-17 -9 -37 -9q-46 0 -68 40q-9 17 -9 36q0 44 39 66q17 10 38 10z" />
    <glyph glyph-name="tml_YI" horiz-adv-x="955" 
d="M748 732q90 0 103 -87q3 -20 3 -52v-593h52v596q0 144 -90 176q-30 11 -68 11v-51zM664 547v-402q0 -82 -56 -93q-13 -2 -30 -2h-6v-50h144v595h-52v-1q-33 4 -43 41q-10 43 19 74q23 24 60 24v50q-84 0 -119 -68q-28 -57 -3 -112q25 -56 86 -56zM61 140q0 -41 38 -85
q47 -54 112 -55h6v50h-6q-39 0 -74 39q-24 28 -25 56v450h-51v-455zM271 0h6q58 0 96 25q9 7 14 13l9 -38h123v50h-6q-57 0 -72 27q-11 21 -11 68v450h-51v-450q-2 -94 -102 -95h-6v-50z" />
    <glyph glyph-name="tml_YIi" horiz-adv-x="813" 
d="M742 887q58 0 91 -40q16 -21 16 -43q0 -58 -46 -71q-9 -3 -18 -3q-35 0 -53 27q-5 9 -5 15l-34 -41q17 -33 60 -46q17 -5 33 -5q70 0 100 60q29 58 1 118q-35 73 -130 79q-9 1 -17 1q-103 0 -162 -80q-53 -73 -35 -161q19 -86 100 -135v-417q0 -82 -56 -93q-13 -2 -30 -2
h-6v-50h144v595h-2q-75 28 -96 104q-20 72 21 130q43 57 124 58zM40 140q0 -41 38 -85q47 -54 112 -55h6v50h-6q-39 0 -74 39q-24 28 -25 56v450h-51v-455zM250 0h6q58 0 96 25q9 7 14 13l9 -38h123v50h-6q-57 0 -72 27q-11 21 -11 68v450h-51v-450q-2 -94 -102 -95h-6v-50z
" />
    <glyph glyph-name="tml_YU" horiz-adv-x="677" 
d="M504 0h71v-207h51v802h-51v-509q0 -32 -31 -35q-6 -1 -13 -1h-27v-50zM50 140q0 -67 55 -112q35 -28 69 -28h6v50h-5q-33 0 -58 39q-16 27 -16 56v450h-51v-455zM234 0h6q60 0 89 33l3 3v-36h119l1 50h-39q-31 9 -34 40v505h-50v-466q0 -62 -62 -76q-13 -3 -27 -3h-6v-50
z" />
    </font>
</defs>
</svg>
